<svg width="17" height="19" viewBox="0 0 17 19" fill="none" xmlns="http://www.w3.org/2000/svg">
<path d="M2.25237 16.3954C0.102764 14.2458 0.102764 10.7669 2.25237 8.61726L9.67699 1.19264C11.2397 -0.370069 13.7711 -0.370068 15.3338 1.19264C16.8966 2.75534 16.8966 5.28679 15.3338 6.84949L9.32344 12.8599C8.34763 13.8357 6.76371 13.8357 5.7879 12.8599C4.8121 11.8841 4.8121 10.3002 5.7879 9.32437L11.0912 4.02107L12.5054 5.43528L7.13848 10.8022C6.74957 11.1911 7.45667 11.8982 7.84558 11.5093L13.9196 5.43528C14.6974 4.65746 14.6974 3.38467 13.9196 2.60685C13.1418 1.82903 11.869 1.82903 11.0912 2.60685L3.66658 10.0315C2.30187 11.3962 2.30187 13.6165 3.66658 14.9812C5.0313 16.3459 7.25161 16.3459 8.61633 14.9812L15.3338 8.26371L16.7481 9.67792L10.0305 16.3954C7.88094 18.545 4.40197 18.545 2.25237 16.3954Z" fill="#19191B" fill-opacity="0.68"/>
</svg>
