<svg width="124" height="41" viewBox="0 0 124 41" fill="none" xmlns="http://www.w3.org/2000/svg">
<rect width="124" height="41" rx="6" fill="#EFEFEF"/>
<path d="M39.584 16.184H44.696C46.016 16.184 47.042 16.502 47.774 17.138C48.518 17.774 48.89 18.65 48.89 19.766C48.89 20.882 48.518 21.764 47.774 22.412C47.03 23.048 46.004 23.366 44.696 23.366H41.06V29H39.584V16.184ZM44.57 22.142C45.518 22.142 46.232 21.938 46.712 21.53C47.192 21.122 47.432 20.534 47.432 19.766C47.432 18.998 47.192 18.416 46.712 18.02C46.232 17.612 45.518 17.408 44.57 17.408H41.06V22.142H44.57ZM56.5496 29.144C55.3616 29.144 54.3296 28.88 53.4536 28.352C52.5776 27.824 51.8996 27.068 51.4196 26.084C50.9516 25.088 50.7176 23.924 50.7176 22.592C50.7176 21.248 50.9516 20.084 51.4196 19.1C51.8876 18.116 52.5596 17.36 53.4356 16.832C54.3116 16.304 55.3496 16.04 56.5496 16.04C57.7496 16.04 58.7876 16.304 59.6636 16.832C60.5396 17.36 61.2116 18.116 61.6796 19.1C62.1476 20.084 62.3816 21.242 62.3816 22.574C62.3816 23.918 62.1416 25.082 61.6616 26.066C61.1936 27.05 60.5216 27.812 59.6456 28.352C58.7696 28.88 57.7376 29.144 56.5496 29.144ZM56.5496 27.884C57.9056 27.884 58.9616 27.422 59.7176 26.498C60.4736 25.574 60.8516 24.266 60.8516 22.574C60.8516 20.882 60.4736 19.58 59.7176 18.668C58.9736 17.756 57.9176 17.3 56.5496 17.3C55.1816 17.3 54.1196 17.762 53.3636 18.686C52.6076 19.598 52.2296 20.894 52.2296 22.574C52.2296 24.266 52.6076 25.574 53.3636 26.498C54.1196 27.422 55.1816 27.884 56.5496 27.884ZM69.1579 29.144C67.1539 29.144 65.5579 28.604 64.3699 27.524L64.9279 26.39C65.5639 26.93 66.2119 27.314 66.8719 27.542C67.5319 27.77 68.2999 27.884 69.1759 27.884C70.2079 27.884 70.9999 27.686 71.5519 27.29C72.1159 26.882 72.3979 26.312 72.3979 25.58C72.3979 25.148 72.2599 24.8 71.9839 24.536C71.7199 24.26 71.3659 24.044 70.9219 23.888C70.4899 23.732 69.9079 23.57 69.1759 23.402C68.1919 23.186 67.3819 22.952 66.7459 22.7C66.1099 22.448 65.5939 22.088 65.1979 21.62C64.8019 21.14 64.6039 20.516 64.6039 19.748C64.6039 19.016 64.7959 18.374 65.1799 17.822C65.5639 17.258 66.1039 16.82 66.7999 16.508C67.5079 16.196 68.3299 16.04 69.2659 16.04C70.1539 16.04 70.9819 16.178 71.7499 16.454C72.5179 16.73 73.1659 17.132 73.6939 17.66L73.1179 18.794C72.5179 18.278 71.9059 17.9 71.2819 17.66C70.6699 17.42 69.9979 17.3 69.2659 17.3C68.2699 17.3 67.4899 17.516 66.9259 17.948C66.3619 18.368 66.0799 18.95 66.0799 19.694C66.0799 20.342 66.3259 20.828 66.8179 21.152C67.3099 21.476 68.0659 21.758 69.0859 21.998C70.1899 22.262 71.0539 22.508 71.6779 22.736C72.3139 22.952 72.8419 23.288 73.2619 23.744C73.6819 24.188 73.8919 24.782 73.8919 25.526C73.8919 26.246 73.6999 26.882 73.3159 27.434C72.9319 27.974 72.3799 28.394 71.6599 28.694C70.9519 28.994 70.1179 29.144 69.1579 29.144ZM79.137 17.444H74.673V16.184H85.095V17.444H80.631V29H79.137V17.444Z" fill="#696871"/>
</svg>
