<svg width="210" height="171" viewBox="0 0 210 171" fill="none" xmlns="http://www.w3.org/2000/svg">
<g clip-path="url(#clip0_1407_2860)">
<path d="M152.211 39.8607C152.376 36.0544 153.749 32.4697 156.045 29.846C158.341 27.2222 161.386 25.7594 164.551 25.7593C164.927 25.7593 165.298 25.7829 165.665 25.8224C167.109 22.8322 169.178 20.3503 171.668 18.6246C174.157 16.899 176.979 15.9899 179.852 15.9883C182.725 15.9866 185.547 16.8925 188.038 18.6153C190.529 20.3381 192.601 22.8177 194.047 25.8063C194.356 25.7783 194.668 25.7593 194.984 25.7593C198.149 25.7594 201.194 27.2222 203.49 29.846C205.787 32.4698 207.159 36.0544 207.324 39.8607" fill="#F2F2F2"/>
<path d="M154.785 38.7157C154.951 34.9094 156.323 31.3247 158.619 28.7009C160.915 26.0772 163.96 24.6144 167.126 24.6143C167.501 24.6143 167.872 24.6379 168.239 24.6774C169.683 21.6872 171.753 19.2053 174.242 17.4796C176.732 15.7539 179.554 14.8449 182.426 14.8433C185.299 14.8416 188.122 15.7475 190.612 17.4703C193.103 19.1931 195.175 21.6726 196.621 24.6612C196.931 24.6332 197.242 24.6143 197.558 24.6143C200.724 24.6144 203.769 26.0772 206.065 28.7009C208.361 31.3247 209.733 34.9094 209.899 38.7157" stroke="#3F3D56" stroke-miterlimit="10"/>
<path d="M14.4727 123.709C15.5841 97.7078 33.4454 77.0368 55.3172 77.0368C56.5603 77.0368 57.7878 77.1149 59.0026 77.2456C63.7806 67.3486 70.6315 59.1341 78.8712 53.4225C87.111 47.7109 96.451 44.7022 105.959 44.6968C115.466 44.6914 124.809 47.6895 133.053 53.3917C141.297 59.0939 148.155 67.3006 152.94 77.1921C153.965 77.0995 154.997 77.0368 156.042 77.0368C177.913 77.0368 195.775 97.7078 196.886 123.709" fill="#F2F2F2"/>
<path d="M22.9902 119.921C24.1017 93.9197 41.963 73.2487 63.8348 73.2487C65.0779 73.2487 66.3054 73.3268 67.5202 73.4575C72.2981 63.5605 79.1491 55.346 87.3888 49.6344C95.6285 43.9228 104.969 40.9141 114.476 40.9087C123.984 40.9033 133.326 43.9014 141.571 49.6036C149.815 55.3058 156.672 63.5125 161.458 73.4041C162.483 73.3114 163.515 73.2487 164.559 73.2487C186.431 73.2487 204.292 93.9198 205.404 119.921" stroke="#3F3D56" stroke-miterlimit="10"/>
<path d="M0 33.9722C0.223857 28.8221 2.08068 23.9718 5.1875 20.4216C8.29433 16.8715 12.4142 14.8923 16.6975 14.8922C17.2056 14.8922 17.7075 14.9241 18.2041 14.9775C20.1573 10.9316 22.958 7.57344 26.3265 5.23851C29.6949 2.90359 33.5132 1.6736 37.4 1.67139C41.2868 1.66918 45.106 2.89482 48.4763 5.2259C51.8466 7.55699 54.6499 10.9119 56.6063 14.9557C57.0253 14.9178 57.4471 14.8922 57.8741 14.8922C62.1574 14.8923 66.2773 16.8715 69.3841 20.4216C72.4909 23.9718 74.3477 28.8221 74.5716 33.9722" fill="#F2F2F2"/>
<path d="M3.48242 32.4234C3.70628 27.2732 5.5631 22.4229 8.66993 18.8728C11.7768 15.3227 15.8966 13.3434 20.1799 13.3434C20.6881 13.3434 21.1899 13.3753 21.6865 13.4287C23.6398 9.38274 26.4405 6.02461 29.8089 3.68969C33.1773 1.35476 36.9956 0.124774 40.8824 0.122562C44.7692 0.120349 48.5884 1.34599 51.9587 3.67708C55.329 6.00816 58.1323 9.36311 60.0888 13.4068C60.5077 13.369 60.9295 13.3434 61.3565 13.3434C65.6398 13.3434 69.7597 15.3227 72.8665 18.8728C75.9733 22.4229 77.8302 27.2732 78.054 32.4234" stroke="#3F3D56" stroke-miterlimit="10"/>
<path d="M83.7545 57.8179C83.7545 57.8179 86.6073 66.1596 82.3281 68.1224C82.3281 68.1224 88.4412 71.3118 89.8676 70.5758C91.294 69.8398 92.3129 68.1224 92.3129 67.6317C92.3129 67.141 90.8865 66.8956 90.8865 66.8956C90.8865 66.8956 88.2375 67.141 90.2752 59.0446L83.7545 57.8179Z" fill="#FBBEBE"/>
<path d="M87.0142 62.234C89.8276 62.234 92.1084 59.4879 92.1084 56.1004C92.1084 52.7129 89.8276 49.9668 87.0142 49.9668C84.2007 49.9668 81.9199 52.7129 81.9199 56.1004C81.9199 59.4879 84.2007 62.234 87.0142 62.234Z" fill="#FBBEBE"/>
<path d="M83.6529 62.3569C86.1287 62.3569 88.1358 58.9517 88.1358 54.7512C88.1358 50.5507 86.1287 47.1455 83.6529 47.1455C81.177 47.1455 79.1699 50.5507 79.1699 54.7512C79.1699 58.9517 81.177 62.3569 83.6529 62.3569Z" fill="#FF6584"/>
<path d="M80.3911 59.9038C82.867 59.9038 84.8741 56.4986 84.8741 52.2981C84.8741 48.0976 82.867 44.6924 80.3911 44.6924C77.9153 44.6924 75.9082 48.0976 75.9082 52.2981C75.9082 56.4986 77.9153 59.9038 80.3911 59.9038Z" fill="#FF6584"/>
<path d="M75.9094 50.5803C77.1474 50.5803 78.1509 48.8777 78.1509 46.7775C78.1509 44.6772 77.1474 42.9746 75.9094 42.9746C74.6715 42.9746 73.668 44.6772 73.668 46.7775C73.668 48.8777 74.6715 50.5803 75.9094 50.5803Z" fill="#FF6584"/>
<path d="M92.1094 66.6504C92.1094 66.6504 93.332 63.7063 97.8149 62.2342C102.298 60.7622 111.06 43.0973 111.06 43.0973C111.06 43.0973 110.652 32.5475 112.69 35.737C114.728 38.9265 113.098 45.3054 113.098 45.3054L107.84 56.2407C106.859 58.2817 105.631 60.1359 104.198 61.7428C100.947 65.386 95.1383 71.8027 94.5546 71.8027C93.7395 71.8027 92.1094 66.6504 92.1094 66.6504Z" fill="#FBBEBE"/>
<path d="M84.9766 108.604C84.9766 108.604 86.403 129.459 85.9954 131.422C85.5879 133.384 84.3653 137.31 86.403 148.841C88.4406 160.372 85.9954 159.636 85.9954 159.636L92.516 163.071C92.516 163.071 90.2746 149.822 90.6821 146.142C91.0897 142.462 90.8859 134.856 92.1085 129.704C93.3311 124.552 93.5349 110.077 93.5349 110.077L84.9766 108.604Z" fill="#FBBEBE"/>
<path opacity="0.1" d="M84.9766 108.604C84.9766 108.604 86.403 129.459 85.9954 131.422C85.5879 133.384 84.3653 137.31 86.403 148.841C88.4406 160.372 85.9954 159.636 85.9954 159.636L92.516 163.071C92.516 163.071 90.2746 149.822 90.6821 146.142C91.0897 142.462 90.8859 134.856 92.1085 129.704C93.3311 124.552 93.5349 110.077 93.5349 110.077L84.9766 108.604Z" fill="black"/>
<path d="M92.2634 160.417C91.7582 160.839 90.4604 161.268 88.0342 158.164C88.0342 158.164 86.6078 155.711 85.3852 158.164C84.1626 160.618 84.9776 160.863 85.7927 162.09C86.5795 163.274 92.8731 171.317 95.5081 170.99C95.5997 170.98 95.69 170.957 95.7774 170.922C98.2227 169.941 94.7586 166.751 94.7586 166.751C94.7586 166.751 92.4875 162.544 92.4746 160.558C92.4752 160.528 92.4691 160.498 92.4568 160.472C92.4444 160.446 92.4264 160.425 92.4046 160.41C92.3828 160.395 92.3581 160.388 92.3332 160.39C92.3083 160.391 92.2842 160.4 92.2634 160.417Z" fill="#3F3D56"/>
<path d="M80.0866 106.151C80.0866 106.151 76.6226 115.719 75.1962 120.626C74.4473 123.202 72.182 124.02 70.199 124.216C67.747 124.446 65.3651 125.31 63.2159 126.75C60.3639 128.677 56.4722 130.865 54.0041 130.44C49.7249 129.704 53.189 137.8 53.189 137.8C53.189 137.8 59.5059 133.139 65.4152 132.648C71.3245 132.157 77.6414 131.421 80.4942 127.005C83.347 122.589 90.2751 108.604 90.2751 108.604L80.0866 106.151Z" fill="#FBBEBE"/>
<path d="M53.3929 136.574C53.3929 136.574 51.3552 134.856 52.9853 133.139C54.6155 131.422 55.2268 129.95 55.2268 129.95C55.2268 129.95 52.374 126.269 51.3552 128.232C50.3363 130.195 45.8534 139.027 46.8722 141.726C47.8911 144.425 48.9099 145.161 50.1326 142.217C51.3552 139.273 54.4386 136.955 54.4386 136.955L53.3929 136.574Z" fill="#3F3D56"/>
<path d="M91.2935 67.8772C91.2935 67.8772 90.6161 69.5084 84.3211 67.9379C83.4912 67.7176 82.6243 67.8326 81.8542 68.2652C81.0841 68.6977 80.4537 69.4236 80.0606 70.3306C79.271 72.2321 79.1692 74.9922 81.92 78.427C81.92 78.427 86.8105 85.0513 84.3653 87.7501C81.92 90.4489 95.9802 86.0327 95.9802 86.0327C95.9802 86.0327 94.1463 84.5607 95.7764 80.1444C97.0573 76.6746 96.9543 74.7193 95.9618 73.2076C95.3628 72.2672 94.9553 71.1707 94.7721 70.0063C94.4938 68.3639 93.8065 66.3058 92.1086 66.1598C92.1086 66.1598 90.3237 66.0339 90.1973 66.5875C90.0708 67.1411 91.701 67.6318 91.2935 67.8772Z" fill="#EA058D"/>
<path d="M83.8436 73.0816C83.8015 72.7357 83.75 72.3919 83.7139 72.045C83.5908 70.8605 83.1231 67.9905 81.505 68.4843C79.4751 69.1038 77.2337 75.2374 77.2337 75.2374C77.2337 75.2374 75.3997 82.1071 72.7507 83.8245C70.1017 85.5419 62.766 94.3743 62.766 94.3743C62.766 94.3743 56.6529 96.3371 58.8944 98.2999C61.1359 100.263 63.9886 97.0731 63.9886 97.0731L71.1957 91.8666C73.7165 90.041 75.8839 87.5874 77.5525 84.6704C79.0539 82.0522 80.934 79.0263 82.1255 78.0265C82.8471 77.4456 83.3886 76.5933 83.6654 75.6027C83.883 74.7895 83.9439 73.9274 83.8436 73.0816Z" fill="#FBBEBE"/>
<path d="M85.5879 87.2596C85.5879 87.2596 76.2145 85.7875 70.9165 93.3932C65.6185 100.999 61.7469 98.7908 62.1544 100.018C62.562 101.244 82.1239 115.72 93.535 114.002C100.482 112.957 104.182 112.002 106.013 111.415C106.799 111.172 107.492 110.612 107.977 109.829C108.249 109.395 108.586 109.027 108.971 108.743C109.168 108.586 109.337 108.384 109.469 108.147C109.6 107.911 109.69 107.645 109.735 107.365C109.779 107.086 109.776 106.799 109.726 106.521C109.677 106.242 109.581 105.979 109.445 105.746C106.213 100.117 97.4395 85.204 94.9614 84.8061C91.9048 84.3155 85.5879 87.2596 85.5879 87.2596Z" fill="#EA058D"/>
<path d="M87.1158 52.2977C88.9164 52.2977 90.3761 51.0345 90.3761 49.4762C90.3761 47.918 88.9164 46.6548 87.1158 46.6548C85.3152 46.6548 83.8555 47.918 83.8555 49.4762C83.8555 51.0345 85.3152 52.2977 87.1158 52.2977Z" fill="#FF6584"/>
<path d="M152.185 24.3352C152.393 23.0406 152.677 21.7654 153.035 20.5193C153.403 19.3066 153.869 18.2721 154.388 18.2721C155.647 18.2721 149.982 11.8301 149.982 11.8301C149.982 11.8301 149.626 12.6259 149.038 13.6983C148.603 14.499 148.132 15.2706 147.628 16.0098C146.956 17.0315 146.158 17.9224 145.261 18.6511C142.743 20.5458 152.185 24.3352 152.185 24.3352Z" fill="#A0616A"/>
<path d="M168.853 49.4546C168.853 49.4546 181.474 59.0556 177.585 60.6333C173.696 62.2109 167.254 50.9314 167.254 50.9314L168.853 49.4546Z" fill="#A0616A"/>
<path d="M151.924 27.647C151.924 27.647 157.969 32.9541 159.735 36.9912C161.502 41.0282 170.686 49.9993 170.686 49.9993C170.686 49.9993 168.79 54.5102 167.873 54.2381C166.956 53.9659 148.056 37.0368 146.068 35.6659C144.08 34.2951 147.11 25.8277 151.924 27.647Z" fill="#EA058D"/>
<path opacity="0.1" d="M151.924 27.647C151.924 27.647 157.969 32.9541 159.735 36.9912C161.502 41.0282 170.686 49.9993 170.686 49.9993C170.686 49.9993 168.79 54.5102 167.873 54.2381C166.956 53.9659 148.056 37.0368 146.068 35.6659C144.08 34.2951 147.11 25.8277 151.924 27.647Z" fill="black"/>
<path d="M169.808 37.2192C169.808 37.2192 183.971 42.9034 180.509 45.556C177.047 48.2086 168.549 39.114 168.549 39.114L169.808 37.2192Z" fill="#A0616A"/>
<path d="M160.682 114.903C160.682 114.903 166.662 111.871 166.032 116.419C165.403 120.966 162.57 125.134 162.57 127.408C162.57 129.682 157.22 134.608 156.276 133.471C155.331 132.334 157.849 127.787 157.22 125.134C156.59 122.482 155.961 116.419 155.961 116.419L160.682 114.903Z" fill="#55536E"/>
<path opacity="0.1" d="M160.682 114.903C160.682 114.903 166.662 111.871 166.032 116.419C165.403 120.966 162.57 125.134 162.57 127.408C162.57 129.682 157.22 134.608 156.276 133.471C155.331 132.334 157.849 127.787 157.22 125.134C156.59 122.482 155.961 116.419 155.961 116.419L160.682 114.903Z" fill="black"/>
<path d="M158.793 118.314C158.793 118.314 164.773 115.282 164.144 119.829C163.514 124.377 160.682 128.545 160.682 130.819C160.682 133.092 155.331 138.019 154.387 136.882C153.443 135.745 155.961 131.198 155.331 128.545C154.702 125.893 154.072 119.829 154.072 119.829L158.793 118.314Z" fill="#55536E"/>
<path d="M144.946 90.6504C144.946 90.6504 163.515 111.871 162.885 113.766C162.256 115.661 158.164 119.829 158.164 119.829C158.164 119.829 144.001 97.4714 144.946 90.6504Z" fill="#3F3D56"/>
<path opacity="0.1" d="M144.946 90.6504C144.946 90.6504 163.515 111.871 162.885 113.766C162.256 115.661 158.164 119.829 158.164 119.829C158.164 119.829 144.001 97.4714 144.946 90.6504Z" fill="black"/>
<path d="M140.538 52.3773C140.538 52.3773 145.259 58.0614 144 69.0508C142.742 80.0402 144.945 90.6507 147.463 94.0612C149.98 97.4717 160.366 117.177 160.366 117.177C160.366 117.177 155.96 125.893 152.498 121.345C149.036 116.798 138.65 98.2296 138.65 98.2296C138.65 98.2296 129.208 75.8718 128.264 69.8087C127.32 63.7456 127.005 54.272 129.523 52.3773C132.041 50.4825 140.538 52.3773 140.538 52.3773Z" fill="#3F3D56"/>
<path opacity="0.1" d="M148.344 14.8958C152.02 15.8129 151.655 15.991 153.914 16.9459C153.927 16.9005 153.94 16.8626 153.952 16.8247C154.298 15.8318 154.516 17.1354 155.016 17.1354C156.275 17.1354 150.61 10.6934 150.61 10.6934C150.61 10.6934 150.396 11.1708 150.028 11.887C149.917 12.0955 149.798 12.3228 149.666 12.5616C149.555 12.7624 149.436 12.9746 149.31 13.1944L148.344 14.8958Z" fill="black"/>
<path d="M155.015 20.167C158.318 20.167 160.995 16.9435 160.995 12.967C160.995 8.99062 158.318 5.76709 155.015 5.76709C151.712 5.76709 149.035 8.99062 149.035 12.967C149.035 16.9435 151.712 20.167 155.015 20.167Z" fill="#A0616A"/>
<path d="M144 18.2725C144 18.2725 153.127 19.4093 155.016 24.3356C156.904 29.2619 143.371 53.1354 142.427 53.5143C141.482 53.8932 128.264 55.788 128.264 55.788C128.264 55.788 128.893 31.5355 141.168 22.4409C141.168 22.4409 144 20.9251 144 18.2725Z" fill="#EA058D"/>
<path d="M149.037 20.9246C149.037 20.9246 155.961 24.3351 158.479 27.7456C160.997 31.1561 171.698 37.2192 171.698 37.2192C171.698 37.2192 170.754 42.1455 169.81 42.1455C168.865 42.1455 147.149 31.1561 144.946 30.3982C142.743 29.6403 144.002 20.5457 149.037 20.9246Z" fill="#EA058D"/>
<path d="M154.545 13.9145C154.545 13.9145 156.118 12.0197 152.971 10.504C152.971 10.504 156.118 8.98818 156.748 6.71451C157.377 4.44084 159.58 0.651396 161.469 6.71451C163.357 12.7776 166.819 20.7355 155.489 20.7355C155.489 20.7355 152.656 21.4934 152.656 18.4618C152.656 17.5794 152.827 16.709 153.155 15.9198C153.482 15.1305 153.958 14.4439 154.545 13.9145Z" fill="#3F3D56"/>
</g>
<defs>
<clipPath id="clip0_1407_2860">
<rect width="210" height="171" fill="white"/>
</clipPath>
</defs>
</svg>
