<svg width="63" height="73" viewBox="0 0 63 73" fill="none" xmlns="http://www.w3.org/2000/svg">
<g clip-path="url(#clip0_1176_2582)">
<path d="M15.8106 20.2292C19.6691 20.2292 22.797 17.1824 22.797 13.4239C22.797 9.66548 19.6691 6.61865 15.8106 6.61865C11.9521 6.61865 8.82422 9.66548 8.82422 13.4239C8.82422 17.1824 11.9521 20.2292 15.8106 20.2292Z" fill="#3F3D56"/>
<path d="M55.8907 22.4978C59.7491 22.4978 62.8771 19.4509 62.8771 15.6925C62.8771 11.934 59.7491 8.88721 55.8907 8.88721C52.0322 8.88721 48.9043 11.934 48.9043 15.6925C48.9043 19.4509 52.0322 22.4978 55.8907 22.4978Z" fill="#3F3D56"/>
<path d="M56.0135 8.64844C54.6716 8.64845 53.358 9.02496 52.2299 9.73293C51.1019 10.4409 50.207 11.4504 49.6523 12.6407C50.8483 11.6029 52.3741 10.9971 53.974 10.9246C55.5739 10.8521 57.1508 11.3174 58.4405 12.2424C59.7303 13.1675 60.6544 14.4962 61.0583 16.0059C61.4621 17.5157 61.321 19.1147 60.6587 20.5352C61.7166 19.6181 62.4634 18.4093 62.7999 17.0693C63.1364 15.7293 63.0468 14.3213 62.5429 13.032C62.0391 11.7427 61.1448 10.6331 59.9787 9.85019C58.8126 9.06732 57.4298 8.64821 56.0135 8.64844Z" fill="#66024A"/>
<path d="M15.6895 6.37988C17.0315 6.3799 18.345 6.7564 19.4731 7.46438C20.6011 8.17235 21.496 9.18182 22.0507 10.3721C20.8547 9.33439 19.3289 8.72854 17.729 8.65604C16.1291 8.58355 14.5522 9.04881 13.2625 9.97389C11.9728 10.899 11.0486 12.2277 10.6448 13.7374C10.2409 15.2471 10.382 16.8462 11.0443 18.2667C9.98638 17.3495 9.23967 16.1408 8.90317 14.8007C8.56666 13.4607 8.65627 12.0527 9.16011 10.7634C9.66394 9.47415 10.5582 8.3645 11.7243 7.58163C12.8904 6.79876 14.2733 6.37966 15.6895 6.37988Z" fill="#66024A"/>
<path d="M36.0352 47.3308C36.0381 50.806 34.9826 54.204 33.0023 57.0947C31.0221 59.9854 28.206 62.239 24.9104 63.5702C21.6148 64.9014 17.9879 65.2505 14.4886 64.5732C10.9894 63.8959 7.77497 62.2227 5.25223 59.7654C2.72949 57.308 1.01179 54.177 0.316479 50.7684C-0.37883 47.3598 -0.0204923 43.8269 1.34615 40.6168C2.71279 37.4067 5.02632 34.6636 7.99396 32.7346C10.9616 30.8056 14.45 29.7775 18.0177 29.7804C20.386 29.7726 22.7325 30.2212 24.9221 31.1004C27.1117 31.9796 29.1012 33.2721 30.7758 34.9034C32.4505 36.5346 33.7774 38.4725 34.68 40.6053C35.5826 42.7382 36.0432 45.0239 36.0352 47.3308Z" fill="#3F3D56"/>
<path d="M36.0345 47.3307C36.0379 49.8431 35.4856 52.3266 34.4153 54.6124C31.3303 54.5722 28.2908 53.8808 25.5065 52.586C22.7221 51.2912 20.2591 49.4238 18.2872 47.1123C16.3152 44.8009 14.8812 42.1004 14.0841 39.1971C13.2869 36.2938 13.1454 33.2566 13.6695 30.2949C16.3249 29.6546 19.095 29.6112 21.7702 30.168C24.4453 30.7248 26.9553 31.8671 29.1102 33.5086C31.2651 35.15 33.0084 37.2475 34.208 39.6422C35.4077 42.0369 36.0322 44.6661 36.0345 47.3307Z" fill="#66024A"/>
<path d="M34.6862 51.987C46.4647 51.987 56.0131 42.6862 56.0131 31.213C56.0131 19.7398 46.4647 10.439 34.6862 10.439C22.9077 10.439 13.3594 19.7398 13.3594 31.213C13.3594 42.6862 22.9077 51.987 34.6862 51.987Z" fill="#3F3D56"/>
<path d="M39.8698 31.9236C40.9744 30.479 42.6219 29.5199 44.4512 29.2565C46.2804 28.9931 48.1423 29.4469 49.6287 30.5184C50.4548 29.4382 50.9332 28.1436 51.0033 26.7984C51.0735 25.4532 50.7323 24.118 50.023 22.9618C49.3136 21.8056 48.268 20.8805 47.0185 20.3035C45.7691 19.7265 44.3719 19.5237 43.004 19.7206C41.6361 19.9176 40.359 20.5055 39.3343 21.4099C38.3097 22.3144 37.5836 23.4946 37.248 24.8013C36.9124 26.1079 36.9824 27.4822 37.4491 28.7501C37.9158 30.018 38.7583 31.1224 39.8698 31.9236Z" fill="white"/>
<path d="M23.569 33.2371C24.6736 31.7925 26.3211 30.8334 28.1504 30.57C29.9797 30.3066 31.8415 30.7604 33.328 31.8319C34.154 30.7517 34.6324 29.4571 34.7025 28.1119C34.7727 26.7667 34.4315 25.4315 33.7222 24.2753C33.0128 23.1191 31.9672 22.1939 30.7178 21.617C29.4683 21.04 28.0711 20.8371 26.7032 21.0341C25.3353 21.2311 24.0582 21.819 23.0335 22.7234C22.0089 23.6278 21.2828 24.8081 20.9472 26.1148C20.6116 27.4214 20.6816 28.7957 21.1483 30.0636C21.615 31.3314 22.4575 32.4359 23.569 33.2371Z" fill="white"/>
<path d="M28.1911 28.9451C29.6127 28.9451 30.765 27.8226 30.765 26.4379C30.765 25.0532 29.6127 23.9307 28.1911 23.9307C26.7696 23.9307 25.6172 25.0532 25.6172 26.4379C25.6172 27.8226 26.7696 28.9451 28.1911 28.9451Z" fill="#3F3D56"/>
<path d="M44.8591 27.0344C46.2806 27.0344 47.433 25.9119 47.433 24.5272C47.433 23.1425 46.2806 22.02 44.8591 22.02C43.4375 22.02 42.2852 23.1425 42.2852 24.5272C42.2852 25.9119 43.4375 27.0344 44.8591 27.0344Z" fill="#3F3D56"/>
<path d="M36.2799 33.2428C37.0245 33.2428 37.6281 32.6548 37.6281 31.9295C37.6281 31.2042 37.0245 30.6162 36.2799 30.6162C35.5353 30.6162 34.9316 31.2042 34.9316 31.9295C34.9316 32.6548 35.5353 33.2428 36.2799 33.2428Z" fill="#FF6584"/>
<path d="M16.0569 69.1042V63.3291H14.0959V69.1042C13.5224 69.3018 13.0258 69.6677 12.6746 70.1515C12.3234 70.6353 12.1348 71.2133 12.1348 71.8059V71.8059H18.018V71.8059C18.018 71.2133 17.8294 70.6353 17.4782 70.1515C17.127 69.6677 16.6304 69.3018 16.0569 69.1042Z" fill="#3F3D56"/>
<path d="M23.2874 69.1042V63.3291H21.3263V69.1042C20.7528 69.3018 20.2563 69.6677 19.9051 70.1515C19.5539 70.6353 19.3653 71.2133 19.3652 71.8059V71.8059H25.2485V71.8059C25.2484 71.2133 25.0598 70.6353 24.7086 70.1515C24.3574 69.6677 23.8609 69.3018 23.2874 69.1042Z" fill="#3F3D56"/>
<path d="M25.967 12.4314C25.0784 11.0379 24.4815 9.40086 24.6665 7.77031C24.8514 6.13975 25.948 4.54868 27.5623 4.0814C29.1767 3.61412 31.1765 4.58219 31.4808 6.19568C33.0977 3.4725 35.6554 1.39757 38.6974 0.341153C40.1083 -0.143138 41.9834 -0.252961 42.7992 0.968467C43.203 1.57298 43.2462 2.39488 43.7871 2.88736C44.635 3.65941 45.9947 3.11564 47.1534 3.18163C48.7828 3.27443 50.0945 4.75572 50.2998 6.33301C50.5051 7.9103 49.7879 9.49539 48.7293 10.7056C47.6707 11.9157 46.2936 12.8135 44.9354 13.6952" fill="#3F3D56"/>
<path d="M38.6251 36.7382C38.7129 36.6478 38.8035 36.5603 38.8982 36.4768C38.9401 36.4399 38.9826 36.4037 39.0258 36.3682C39.0528 36.346 39.08 36.3242 39.1075 36.3027C39.155 36.2654 39.17 36.2563 39.1124 36.298C39.3208 36.1461 39.5403 36.0092 39.7691 35.8884C39.8745 35.8333 39.9817 35.7818 40.0908 35.7337C40.1164 35.7224 40.1423 35.7116 40.168 35.7004C40.0524 35.7505 40.143 35.7107 40.1728 35.6991C40.2382 35.6735 40.3041 35.6492 40.3705 35.6261C40.6168 35.5404 40.8689 35.4715 41.125 35.4197C41.2431 35.3957 41.3618 35.3772 41.4808 35.3587C41.5609 35.3462 41.3799 35.3696 41.4606 35.3615C41.4959 35.3579 41.5311 35.3533 41.5663 35.3498C41.6369 35.3426 41.7076 35.3367 41.7783 35.332C42.0332 35.315 42.289 35.3141 42.544 35.3293C42.6714 35.3369 42.7982 35.3495 42.9249 35.3641C42.7971 35.3494 42.9435 35.3675 42.9885 35.3747C43.0583 35.3858 43.1278 35.3982 43.1972 35.4119C43.4463 35.4608 43.6917 35.5263 43.9317 35.6078C43.9915 35.6281 44.0509 35.6495 44.11 35.672C44.1428 35.6844 44.1753 35.6974 44.208 35.7102C44.1915 35.7037 44.1005 35.6637 44.1927 35.7044C44.308 35.7554 44.4223 35.8079 44.5341 35.8659C44.7633 35.9864 44.9833 36.123 45.1923 36.2745C45.2559 36.32 45.1207 36.2168 45.181 36.2665C45.2079 36.2887 45.236 36.3098 45.2631 36.3319C45.3066 36.3673 45.3495 36.4035 45.3916 36.4405C45.4995 36.5351 45.6029 36.6346 45.7024 36.7375C45.7933 36.8315 45.8807 36.9285 45.9646 37.0285C45.9635 37.0271 46.0592 37.1427 46.0083 37.0804C45.9656 37.0281 46.026 37.1032 46.0355 37.1157C46.0863 37.1819 46.1355 37.2491 46.1834 37.3174C46.3391 37.5405 46.4799 37.7732 46.6047 38.014C46.6641 38.128 46.7201 38.2435 46.7728 38.3606C46.7844 38.3863 46.8246 38.4811 46.781 38.3779C46.7928 38.4058 46.8046 38.4338 46.8161 38.4619C46.845 38.5322 46.8729 38.6029 46.8997 38.674C47.0928 39.1962 47.2408 39.7331 47.3424 40.2792C47.3691 40.4179 47.3935 40.557 47.4157 40.6965C47.4256 40.7587 47.4351 40.821 47.4442 40.8833C47.444 40.8817 47.4653 41.0354 47.4542 40.9525C47.4444 40.8788 47.4613 41.0082 47.4631 41.0221C47.5003 41.3128 47.5296 41.6045 47.5534 41.8966C47.6001 42.4696 47.625 43.0439 47.6429 43.6183C47.6884 45.0755 47.7271 46.5329 47.769 47.9902L48.0261 56.9164L48.2831 65.8425L48.315 66.9506C48.315 67.0931 48.3731 67.2297 48.4765 67.3305C48.58 67.4313 48.7203 67.4879 48.8665 67.4879C49.0128 67.4879 49.1531 67.4313 49.2566 67.3305C49.36 67.2297 49.4181 67.0931 49.4181 66.9506L49.154 57.7782L48.8917 48.6674L48.7596 44.0812C48.7242 42.8532 48.6734 41.6265 48.4794 40.4108C48.1221 38.1719 47.084 35.8444 44.8646 34.8277C42.7918 33.8782 40.2265 34.0984 38.4105 35.4791C38.2094 35.6315 38.0204 35.7984 37.8451 35.9784C37.7417 36.0792 37.6836 36.2158 37.6836 36.3583C37.6836 36.5008 37.7417 36.6375 37.8451 36.7382C37.9486 36.839 38.0889 36.8956 38.2352 36.8956C38.3814 36.8956 38.5217 36.839 38.6252 36.7382L38.6251 36.7382Z" fill="#66024A"/>
<path d="M42.7769 53.6587C42.6144 53.6589 42.4587 53.7218 42.3438 53.8337C42.2289 53.9457 42.1643 54.0974 42.1641 54.2556L43.3895 72.3953C43.3888 72.4742 43.4042 72.5526 43.4346 72.6257C43.4651 72.6989 43.5101 72.7655 43.5671 72.8217C43.624 72.8779 43.6918 72.9226 43.7666 72.9532C43.8413 72.9838 43.9215 72.9997 44.0026 73H54.0532C54.2157 72.9998 54.3714 72.9369 54.4863 72.825C54.6012 72.7131 54.6658 72.5613 54.666 72.4031L55.8919 54.2478C55.89 54.0908 55.8245 53.9408 55.7097 53.8305C55.5949 53.7202 55.4401 53.6585 55.2789 53.6587H42.7769Z" fill="#E6E6E6"/>
<path d="M43.7456 54.5542C43.6617 54.5542 43.5786 54.571 43.5017 54.6036C43.4247 54.6361 43.3554 54.6837 43.2981 54.7434C43.2407 54.8031 43.1966 54.8737 43.1684 54.9507C43.1402 55.0277 43.1286 55.1095 43.1342 55.191L44.2611 71.5476C44.2719 71.6985 44.3409 71.8399 44.4544 71.9432C44.5678 72.0466 44.7172 72.1043 44.8725 72.1047H53.1801C53.3354 72.1043 53.4848 72.0466 53.5982 71.9432C53.7117 71.8399 53.7807 71.6985 53.7915 71.5476L54.9184 55.191C54.924 55.1095 54.9124 55.0277 54.8842 54.9507C54.856 54.8737 54.8119 54.8031 54.7545 54.7434C54.6972 54.6837 54.6279 54.6361 54.5509 54.6036C54.474 54.571 54.3909 54.5542 54.307 54.5542H43.7456Z" fill="#66024A"/>
<path d="M47.4326 57.3599C47.3676 57.3599 47.3053 57.3851 47.2594 57.4299C47.2134 57.4747 47.1876 57.5353 47.1875 57.5986V58.9119C47.1876 58.9752 47.2134 59.0359 47.2594 59.0807C47.3053 59.1255 47.3676 59.1506 47.4326 59.1507H49.5163C49.5813 59.1506 49.6436 59.1255 49.6895 59.0807C49.7355 59.0359 49.7613 58.9752 49.7614 58.9119V57.5986C49.7613 57.5353 49.7355 57.4747 49.6895 57.4299C49.6436 57.3851 49.5813 57.3599 49.5163 57.3599H47.4326Z" fill="#E6E6E6"/>
<path d="M49.7627 60.8223C49.6977 60.8223 49.6354 60.8475 49.5895 60.8923C49.5435 60.9371 49.5177 60.9977 49.5176 61.061V62.3744C49.5177 62.4377 49.5435 62.4983 49.5895 62.5431C49.6354 62.5879 49.6977 62.6131 49.7627 62.6131H51.8464C51.9114 62.6131 51.9737 62.5879 52.0196 62.5431C52.0656 62.4983 52.0914 62.4377 52.0915 62.3744V61.061C52.0914 60.9977 52.0656 60.9371 52.0196 60.8923C51.9737 60.8475 51.9114 60.8223 51.8464 60.8223H49.7627Z" fill="#E6E6E6"/>
<path d="M47.5576 63.6875C47.4926 63.6876 47.4303 63.7128 47.3844 63.7575C47.3384 63.8023 47.3126 63.863 47.3125 63.9263V65.2396C47.3126 65.3029 47.3384 65.3636 47.3844 65.4083C47.4303 65.4531 47.4926 65.4783 47.5576 65.4784H49.6413C49.7063 65.4783 49.7686 65.4531 49.8145 65.4083C49.8605 65.3636 49.8864 65.3029 49.8864 65.2396V63.9263C49.8864 63.863 49.8605 63.8023 49.8145 63.7575C49.7686 63.7128 49.7063 63.6876 49.6413 63.6875H47.5576Z" fill="#E6E6E6"/>
<path d="M7.9709 56.7817C8.6087 56.9878 9.05788 57.5163 9.43159 58.0344C9.81683 58.5685 10.1699 59.1485 10.6964 59.5656C10.9175 59.7529 11.177 59.8922 11.4576 59.9743C11.7381 60.0565 12.0334 60.0796 12.3239 60.0422C12.9012 59.9574 13.3905 59.5644 13.4783 58.9846C13.5939 58.221 13.0453 57.5143 12.5641 56.9712L12.4341 57.2769C13.2009 57.3574 13.8675 57.7832 14.5696 58.0573C15.2424 58.3199 16.0381 58.4632 16.7102 58.1208C17.2258 57.8582 17.5473 57.3326 17.6563 56.788C17.7678 56.1936 17.6745 55.58 17.3911 55.0426C17.0333 54.3301 16.4467 53.7543 15.8776 53.1998L15.6988 53.4991C16.5448 53.6229 17.4881 53.7382 18.2221 53.2087C18.5158 53.0071 18.7251 52.7094 18.812 52.3699C18.8868 51.9948 18.8231 51.6059 18.6322 51.272C18.2462 50.5398 17.5176 50.0236 16.8645 49.5325C15.3408 48.3849 13.6898 47.4073 11.9424 46.6181C11.7292 46.5215 11.5422 46.8302 11.7568 46.9273C13.2537 47.6044 14.6808 48.4192 16.0186 49.3607C16.6622 49.814 17.3424 50.2814 17.8787 50.8564C18.3341 51.3446 18.7488 52.0913 18.2515 52.6947C17.6665 53.4046 16.6081 53.2724 15.7965 53.1537C15.7577 53.1446 15.7169 53.1479 15.6801 53.1631C15.6433 53.1784 15.6126 53.2048 15.5925 53.2384C15.5724 53.2721 15.564 53.3111 15.5685 53.3498C15.5731 53.3885 15.5903 53.4247 15.6176 53.4531C16.4658 54.2796 17.473 55.2719 17.3255 56.5439C17.2696 57.0262 17.0347 57.5187 16.5942 57.7738C15.9953 58.1204 15.2463 57.942 14.6431 57.7023C13.9108 57.4113 13.2361 57.003 12.4341 56.9187C12.2613 56.9006 12.2112 57.1196 12.3041 57.2244C12.6932 57.6636 13.1599 58.2351 13.1254 58.8508C13.0965 59.3661 12.6352 59.6743 12.1407 59.7035C10.8825 59.7776 10.2473 58.5016 9.60946 57.665C9.20576 57.1354 8.72669 56.6489 8.06866 56.4363C7.84354 56.3636 7.74702 56.7094 7.97091 56.7817H7.9709Z" fill="#66024A"/>
</g>
<defs>
<clipPath id="clip0_1176_2582">
<rect width="63" height="73" fill="white"/>
</clipPath>
</defs>
</svg>
