<svg width="446" height="386" viewBox="0 0 446 386" fill="none" xmlns="http://www.w3.org/2000/svg">
<path d="M421.097 200.491C430.267 184.84 426.771 164.53 417.021 157.731C407.272 150.932 388.908 155.998 379.738 171.649C371.251 186.136 374.054 204.909 381.8 212.701C381.651 212.726 381.508 212.783 381.378 212.867L379.11 214.419C378.937 214.537 378.795 214.701 378.696 214.896C378.598 215.092 378.547 215.311 378.549 215.533C378.55 215.756 378.603 215.975 378.704 216.168C378.804 216.362 378.948 216.525 379.123 216.641L383.993 219.879C384.167 219.994 384.366 220.06 384.57 220.068C384.774 220.077 384.976 220.029 385.158 219.928C385.34 219.827 385.495 219.677 385.609 219.492C385.723 219.308 385.792 219.094 385.809 218.872L386.033 215.962C386.039 215.86 386.033 215.758 386.017 215.658C395.754 220.116 412.591 215.009 421.097 200.491Z" fill="#FF0099"/>
<path d="M416.436 169.615C417.925 174.828 417.54 180.464 415.359 185.379C413.178 190.293 409.364 194.118 404.692 196.076C403.625 196.525 404.089 198.42 405.17 197.966C410.292 195.855 414.487 191.696 416.901 186.334C419.315 180.971 419.768 174.808 418.168 169.095C417.833 167.891 416.099 168.404 416.436 169.615Z" fill="white"/>
<path d="M89.046 143.569C98.5129 129.747 115.84 126.411 124.45 133.43C133.06 140.45 135.038 159.523 125.571 173.345C116.808 186.139 100.932 189.628 92.1872 184.835C92.2155 184.984 92.2172 185.138 92.1924 185.289L91.6994 187.948C91.6618 188.151 91.5773 188.339 91.454 188.496C91.3307 188.654 91.1727 188.774 90.9949 188.845C90.8171 188.917 90.6254 188.938 90.4381 188.906C90.2508 188.874 90.0741 188.791 89.9247 188.663L85.7499 185.105C85.6005 184.978 85.4834 184.811 85.4098 184.62C85.3361 184.43 85.3084 184.222 85.3291 184.016C85.3498 183.811 85.4184 183.614 85.5282 183.446C85.6381 183.277 85.7856 183.142 85.9568 183.053L88.2025 181.888C88.2815 181.849 88.3645 181.821 88.4496 181.803C81.7093 174.029 80.2641 156.39 89.046 143.569Z" fill="#E6E6E6"/>
<path d="M109.754 138.35C105.123 139.153 100.951 141.864 98.0996 145.925C95.2482 149.986 93.9346 155.087 94.4302 160.174C94.532 161.339 92.8631 161.331 92.7621 160.174C92.2847 154.691 93.7249 149.214 96.794 144.841C99.8631 140.468 104.334 137.522 109.31 136.595C110.36 136.401 110.812 138.154 109.754 138.35Z" fill="white"/>
<path d="M327.316 338.716C334.756 326.017 331.919 309.538 324.008 304.021C316.097 298.504 301.197 302.615 293.757 315.314C286.87 327.069 289.145 342.301 295.429 348.624C295.308 348.645 295.192 348.69 295.087 348.759L293.247 350.017C293.107 350.113 292.991 350.247 292.911 350.405C292.832 350.564 292.79 350.742 292.791 350.922C292.792 351.103 292.836 351.28 292.917 351.437C292.999 351.595 293.116 351.727 293.257 351.821L297.209 354.448C297.35 354.542 297.511 354.595 297.677 354.602C297.842 354.609 298.007 354.57 298.154 354.488C298.302 354.406 298.428 354.284 298.521 354.134C298.613 353.985 298.669 353.811 298.683 353.631L298.864 351.27C298.869 351.187 298.864 351.105 298.851 351.023C306.752 354.64 320.413 350.497 327.316 338.716Z" fill="#F2F2F2"/>
<path d="M439.768 51.9027H6.23157C4.57942 51.9047 2.99547 52.6216 1.82723 53.8962C0.658986 55.1707 0.00186529 56.8987 3.05176e-05 58.7012V379.201C0.00186687 381.004 0.658996 382.732 1.82724 384.007C2.99548 385.281 4.57942 385.998 6.23157 386H439.768C441.421 385.998 443.005 385.281 444.173 384.007C445.341 382.732 445.998 381.004 446 379.201V58.7012C445.998 56.8987 445.341 55.1707 444.173 53.8962C443.005 52.6216 441.421 51.9047 439.768 51.9027ZM444.22 379.201C444.219 380.489 443.75 381.724 442.915 382.635C442.081 383.545 440.949 384.057 439.768 384.058H6.23157C5.0512 384.057 3.91931 383.545 3.08467 382.635C2.25003 381.724 1.78092 380.489 1.78046 379.201V58.7012C1.78093 57.4134 2.25004 56.1786 3.08468 55.268C3.91932 54.3574 5.0512 53.8456 6.23157 53.8451H439.768C440.949 53.8456 442.081 54.3574 442.915 55.268C443.75 56.1786 444.219 57.4134 444.22 58.7012V379.201Z" fill="#3F3D56"/>
<path d="M445.11 79.1355H0.890213V81.0779H445.11V79.1355Z" fill="#3F3D56"/>
<path d="M16.0239 72.2982C18.9739 72.2982 21.3653 69.6893 21.3653 66.471C21.3653 63.2526 18.9739 60.6437 16.0239 60.6437C13.074 60.6437 10.6826 63.2526 10.6826 66.471C10.6826 69.6893 13.074 72.2982 16.0239 72.2982Z" fill="#3F3D56"/>
<path d="M31.3802 72.2982C34.3302 72.2982 36.7216 69.6893 36.7216 66.471C36.7216 63.2526 34.3302 60.6437 31.3802 60.6437C28.4303 60.6437 26.0389 63.2526 26.0389 66.471C26.0389 69.6893 28.4303 72.2982 31.3802 72.2982Z" fill="#3F3D56"/>
<path d="M46.7365 72.2982C49.6865 72.2982 52.0778 69.6893 52.0778 66.471C52.0778 63.2526 49.6865 60.6437 46.7365 60.6437C43.7866 60.6437 41.3952 63.2526 41.3952 66.471C41.3952 69.6893 43.7866 72.2982 46.7365 72.2982Z" fill="#3F3D56"/>
<path d="M221.274 179.362C231.309 179.362 239.444 170.486 239.444 159.538C239.444 148.59 231.309 139.715 221.274 139.715C211.239 139.715 203.104 148.59 203.104 159.538C203.104 170.486 211.239 179.362 221.274 179.362Z" fill="#2F2E41"/>
<path d="M252.082 351.026L245.481 354.525L229.968 328.415L239.709 323.25L252.082 351.026Z" fill="#A0616A"/>
<path d="M239.85 354.968L252.58 348.219L256.475 356.963L235.73 367.961C235.218 366.813 234.919 365.566 234.849 364.292C234.779 363.017 234.94 361.74 235.323 360.534C235.706 359.327 236.302 358.214 237.079 357.259C237.856 356.304 238.797 355.526 239.85 354.968Z" fill="#2F2E41"/>
<path d="M238.912 350.343C238.698 350.343 238.485 350.316 238.277 350.262C237.88 350.158 237.508 349.96 237.189 349.683C236.869 349.405 236.609 349.055 236.426 348.656L218.714 310.356C218.424 309.724 218.336 309.004 218.464 308.31C218.592 307.617 218.929 306.991 219.421 306.53L229.285 297.478C229.617 297.169 230.013 296.95 230.439 296.843C230.864 296.735 231.308 296.74 231.731 296.858C232.164 296.976 232.564 297.206 232.898 297.528C233.233 297.85 233.491 298.255 233.652 298.709L248.792 340.183C249.03 340.827 249.065 341.538 248.893 342.206C248.721 342.873 248.352 343.46 247.842 343.875L240.551 349.752C240.076 350.135 239.502 350.343 238.912 350.343Z" fill="#2F2E41"/>
<path d="M232.622 369.447L225.86 372.557L211.648 345.578L221.629 340.989L232.622 369.447Z" fill="#A0616A"/>
<path d="M220.215 372.67L233.257 366.673L236.718 375.632L215.464 385.404C215.009 384.228 214.771 382.965 214.764 381.689C214.757 380.412 214.98 379.146 215.422 377.964C215.863 376.781 216.513 375.705 217.336 374.797C218.158 373.888 219.136 373.166 220.215 372.67Z" fill="#2F2E41"/>
<path d="M221.847 369.361C221.371 369.361 220.904 369.223 220.493 368.962C220.082 368.7 219.742 368.323 219.508 367.871C217.046 363.113 210.38 349.889 201.671 329.888C191.336 306.15 214.228 279.841 218.921 274.808C219.133 274.581 219.297 274.307 219.404 274.005C219.51 273.703 219.557 273.379 219.54 273.056L218.523 253.09C218.485 252.365 218.695 251.651 219.112 251.085C219.529 250.519 220.124 250.142 220.782 250.027L247.811 245.243C248.278 245.162 248.757 245.216 249.199 245.399C249.642 245.582 250.033 245.887 250.334 246.285C254.9 252.333 256.862 258.838 256.165 265.621C254.741 279.47 242.782 289.927 241.423 291.073C241.368 291.12 241.315 291.17 241.265 291.222L216.797 316.674C216.491 316.99 216.28 317.399 216.192 317.848C216.104 318.298 216.142 318.766 216.303 319.19L231.439 359.724C231.668 360.333 231.702 361.01 231.536 361.643C231.369 362.276 231.012 362.83 230.522 363.215L223.428 368.804C222.968 369.166 222.415 369.361 221.847 369.361Z" fill="#2F2E41"/>
<path d="M198.166 232.07C197.561 232.071 196.973 231.85 196.497 231.442L174.687 212.743C174.483 212.821 174.276 212.887 174.067 212.942C172.799 213.267 171.471 213.174 170.252 212.676C169.032 212.178 167.975 211.297 167.215 210.143C166.454 208.99 166.024 207.616 165.979 206.197C165.934 204.777 166.276 203.374 166.962 202.166C167.648 200.958 168.647 199.999 169.832 199.411C171.017 198.822 172.336 198.63 173.621 198.859C174.906 199.088 176.1 199.728 177.052 200.697C178.004 201.666 178.672 202.922 178.97 204.305C179.035 204.617 179.081 204.934 179.107 205.253L197.751 220.031L204.879 212.059L211.889 222.072L199.729 231.527C199.273 231.881 198.726 232.071 198.166 232.07Z" fill="#A0616A"/>
<path d="M219.07 184.396C227.19 184.396 233.773 177.215 233.773 168.356C233.773 159.497 227.19 152.316 219.07 152.316C210.95 152.316 204.368 159.497 204.368 168.356C204.368 177.215 210.95 184.396 219.07 184.396Z" fill="#A0616A"/>
<path d="M226.012 262.946C224.816 262.956 223.629 262.724 222.511 262.262C220.843 261.555 219.449 260.246 218.56 258.552C214.019 249.908 204.231 223.122 213.347 203.232C219.484 189.839 226.274 186.655 230.89 186.342C235.151 186.055 235.976 187.083 237.399 191.266C238.189 193.585 239.724 196.901 241.502 200.741C247.885 214.524 257.531 235.353 249.46 245.713C240.745 256.897 232.435 262.945 226.012 262.946Z" fill="#FF0099"/>
<path d="M214.103 225.178C213.672 225.178 213.254 225.023 212.912 224.738L201.451 215.197C201.226 215.009 201.04 214.771 200.907 214.498C200.774 214.225 200.697 213.923 200.681 213.615C200.665 213.306 200.71 212.997 200.813 212.709C200.916 212.421 201.076 212.161 201.28 211.947L212.294 200.372C213.043 199.585 214.007 199.086 215.039 198.95C216.071 198.815 217.116 199.05 218.015 199.62C218.913 200.19 219.617 201.065 220.02 202.11C220.422 203.156 220.501 204.317 220.245 205.416L216.01 223.562C215.902 224.024 215.655 224.434 215.31 224.727C214.965 225.019 214.54 225.178 214.103 225.178Z" fill="#FF0099"/>
<path d="M224.611 251.456C223.188 251.449 221.806 250.941 220.67 250.008C219.533 249.075 218.704 247.766 218.304 246.277C218.045 245.305 217.977 244.284 218.105 243.282C218.232 242.279 218.553 241.317 219.045 240.459C219.537 239.601 220.19 238.866 220.961 238.302C221.731 237.738 222.602 237.359 223.517 237.188H223.517C223.807 237.136 224.1 237.105 224.393 237.097L243.844 210.888L237.349 203.253L246.94 196.234L254.844 210.056C255.15 210.597 255.289 211.23 255.239 211.863C255.189 212.496 254.953 213.095 254.567 213.57L230.974 242.37C231.033 242.596 231.081 242.826 231.118 243.058C231.274 244.056 231.236 245.078 231.005 246.059C230.773 247.039 230.355 247.955 229.777 248.747C229.198 249.538 228.473 250.188 227.649 250.653C226.824 251.117 225.919 251.387 224.993 251.443C224.865 251.451 224.737 251.456 224.611 251.456Z" fill="#A0616A"/>
<path d="M237.571 209.776C237.236 209.776 236.906 209.682 236.613 209.503C236.32 209.325 236.073 209.068 235.897 208.756L227.872 194.554C227.36 193.643 227.116 192.584 227.172 191.518C227.228 190.452 227.581 189.43 228.185 188.589C228.868 187.649 229.826 186.993 230.899 186.731C231.972 186.469 233.095 186.617 234.08 187.15L249.432 195.524C249.722 195.682 249.972 195.917 250.16 196.207C250.347 196.496 250.465 196.832 250.504 197.184C250.543 197.536 250.502 197.893 250.383 198.223C250.265 198.553 250.074 198.846 249.826 199.076L238.844 209.264C238.489 209.594 238.038 209.776 237.571 209.776Z" fill="#FF0099"/>
<path d="M207.095 185.101L217.413 178.168L216.658 176.83L206.944 183.359C206.689 182.656 206.209 182.077 205.594 181.728C204.979 181.38 204.27 181.285 203.596 181.462C202.922 181.638 202.329 182.074 201.926 182.69C201.524 183.305 201.338 184.058 201.403 184.811C201.469 185.563 201.781 186.265 202.283 186.787C202.784 187.309 203.441 187.615 204.134 187.651C204.826 187.686 205.507 187.447 206.051 186.979C206.595 186.511 206.966 185.844 207.095 185.101L207.095 185.101Z" fill="#3F3D56"/>
<path d="M229.268 143.581C229.268 143.581 222.376 150.966 207.416 153.298C192.456 155.629 204.21 181.277 204.21 181.277C204.21 181.277 199.936 171.95 208.485 163.79C217.033 155.629 229.268 154.074 229.268 143.581Z" fill="#2F2E41"/>
<path d="M221.943 138.357C221.943 138.357 226.217 154.678 232.629 157.01C239.04 159.341 235.834 183.823 225.148 186.155C225.148 186.155 234.231 172.748 228.888 162.256C223.546 151.764 220.34 143.603 221.943 138.357Z" fill="#2F2E41"/>
<path d="M231.908 150.417C231.842 150.402 231.776 150.382 231.713 150.358L214.96 144.118C214.689 144.017 214.448 143.842 214.258 143.608C214.069 143.375 213.939 143.092 213.88 142.787C213.821 142.482 213.836 142.165 213.923 141.869C214.011 141.572 214.167 141.305 214.377 141.094L227.802 127.638C228.019 127.421 228.285 127.271 228.573 127.203C228.861 127.136 229.16 127.155 229.439 127.257C229.718 127.358 229.967 127.54 230.16 127.782C230.353 128.025 230.483 128.319 230.537 128.635L233.865 148.332C233.914 148.622 233.896 148.921 233.815 149.202C233.733 149.483 233.589 149.738 233.395 149.944C233.202 150.15 232.965 150.3 232.706 150.383C232.446 150.466 232.172 150.477 231.908 150.417V150.417Z" fill="#FF0099"/>
<path d="M224.126 131.81L231.007 133.407L230.634 131.2L225.845 130.088L224.126 131.81Z" fill="#E6E6E6"/>
<path d="M222.696 133.245L231.319 135.247L231.691 137.454L220.977 134.967L222.696 133.245Z" fill="#E6E6E6"/>
<path d="M221.409 117.396L223.604 124.805C223.672 125.052 223.825 125.261 224.03 125.389C224.236 125.516 224.479 125.552 224.709 125.489C224.937 125.417 225.131 125.251 225.248 125.026C225.365 124.801 225.397 124.534 225.336 124.284L223.141 116.875C223.073 116.628 222.92 116.418 222.714 116.291C222.509 116.163 222.266 116.128 222.036 116.191C221.808 116.262 221.614 116.428 221.497 116.654C221.38 116.879 221.348 117.146 221.409 117.396Z" fill="#CCCCCC"/>
<path d="M232.072 114.882L229.98 122.64C229.653 123.852 231.386 124.37 231.711 123.161L233.803 115.403C234.13 114.191 232.398 113.674 232.072 114.882Z" fill="#CCCCCC"/>
<path d="M239.81 121.985L234.637 127.776C233.829 128.681 235.139 130.022 235.945 129.12L241.118 123.328C241.926 122.424 240.616 121.083 239.81 121.985Z" fill="#CCCCCC"/>
<path d="M323.533 313.664C324.742 317.894 324.429 322.467 322.66 326.455C320.89 330.442 317.795 333.546 314.005 335.135C313.139 335.499 313.515 337.036 314.392 336.668C318.548 334.955 321.952 331.58 323.91 327.229C325.869 322.878 326.237 317.877 324.938 313.241C324.667 312.265 323.26 312.681 323.533 313.664Z" fill="white"/>
<path d="M374.406 45.7124C383.575 30.0614 380.079 9.75188 370.33 2.95291C360.58 -3.84606 342.217 1.21956 333.047 16.8705C324.559 31.3574 327.363 50.1309 335.108 57.9225C334.959 57.9482 334.816 58.0048 334.687 58.0892L332.418 59.6403C332.245 59.7586 332.103 59.9231 332.005 60.1182C331.907 60.3134 331.856 60.5326 331.857 60.7553C331.858 60.9779 331.912 61.1965 332.012 61.3903C332.113 61.584 332.257 61.7466 332.431 61.8624L337.301 65.1003C337.476 65.2162 337.674 65.2815 337.878 65.2901C338.082 65.2988 338.285 65.2504 338.467 65.1496C338.649 65.0488 338.804 64.8989 338.918 64.7142C339.032 64.5294 339.1 64.316 339.118 64.0942L339.341 61.1837C339.347 61.0821 339.342 60.9802 339.326 60.88C349.063 65.3374 365.899 60.2308 374.406 45.7124Z" fill="#E6E6E6"/>
<path d="M369.744 14.8371C371.234 20.05 370.849 25.686 368.668 30.6005C366.487 35.515 362.673 39.3398 358.001 41.2981C356.934 41.7469 357.397 43.642 358.478 43.1874C363.601 41.0764 367.795 36.9175 370.209 31.5553C372.623 26.1931 373.076 20.0296 371.476 14.3163C371.142 13.1129 369.408 13.6258 369.744 14.8371Z" fill="white"/>
<path d="M121.948 38.2174C111.756 23.3377 93.1028 19.7466 83.8336 27.3032C74.5645 34.8597 72.4352 55.3934 82.6269 70.2731C92.0605 84.0461 109.152 87.8024 118.566 82.6423C118.535 82.8034 118.534 82.9694 118.56 83.1313L119.091 85.9939C119.131 86.2121 119.222 86.4154 119.355 86.5845C119.488 86.7536 119.658 86.8829 119.849 86.9601C120.041 87.0373 120.247 87.0598 120.449 87.0255C120.65 86.9912 120.841 86.9013 121.002 86.7642L125.496 82.9336C125.657 82.7965 125.783 82.6169 125.862 82.4118C125.941 82.2066 125.971 81.9827 125.949 81.7614C125.927 81.5401 125.853 81.3287 125.735 81.1473C125.616 80.9658 125.457 80.8204 125.273 80.7247L122.856 79.4703C122.77 79.4286 122.681 79.398 122.59 79.3792C129.846 71.0099 131.402 52.0204 121.948 38.2174Z" fill="#FF0099"/>
<path d="M99.6546 32.5995C104.64 33.4635 109.131 36.3827 112.201 40.7545C115.271 45.1264 116.685 50.6172 116.151 56.0935C116.042 57.348 117.838 57.3398 117.947 56.0935C118.461 50.1909 116.91 44.2946 113.606 39.5869C110.302 34.8793 105.489 31.7085 100.132 30.7103C99.0015 30.5007 98.5158 32.3883 99.6546 32.5995Z" fill="white"/>
<path d="M81.0326 242.958C85.4886 243.264 89.8146 244.718 93.656 247.201C97.4974 249.683 100.745 253.123 103.132 257.239C103.801 258.406 104.675 259.689 104.212 261.125C104.05 261.676 103.722 262.15 103.282 262.471C102.841 262.793 102.313 262.941 101.785 262.893C100.42 262.711 99.5386 261.254 99.3704 259.857C99.1795 258.273 100.204 257.03 101.469 256.441C104.559 255.003 107.677 257.226 110.194 259C115.93 263.041 122.24 266.697 129.19 267.157C135.621 267.584 142.517 264.833 146.094 258.749C146.72 257.684 145.166 256.701 144.543 257.76C140.996 263.794 133.824 265.961 127.589 265.028C123.873 264.389 120.285 263.059 116.98 261.099C115.266 260.128 113.604 259.053 111.976 257.922C110.426 256.742 108.783 255.715 107.067 254.852C104.205 253.569 100.416 253.669 98.4163 256.623C96.551 259.378 97.9926 263.965 101.112 264.74C104.069 265.474 106.659 262.44 106.05 259.268C105.739 257.646 104.619 256.058 103.752 254.732C101.148 250.735 97.7547 247.426 93.8227 245.049C89.8906 242.672 85.52 241.288 81.0326 240.999C79.8774 240.936 79.8804 242.896 81.0326 242.958H81.0326Z" fill="#FF0099"/>
<path d="M350.047 241.283C345.933 243.677 341.339 244.921 336.676 244.904C332.013 244.887 327.427 243.609 323.328 241.184C322.399 240.626 321.619 239.988 321.514 238.751C321.46 238.241 321.547 237.726 321.766 237.271C321.986 236.817 322.325 236.446 322.741 236.206C324.031 235.519 325.565 236.32 326.371 237.493C327.237 238.754 326.891 240.391 326.089 241.578C324.014 244.65 320.093 244.358 316.991 244.29C310.309 244.143 303.284 244.725 297.298 248.266C291.673 251.594 287.156 257.836 287.032 265.018C287.01 266.279 288.805 266.279 288.827 265.018C288.95 257.931 293.86 252.09 299.513 249.245C303.021 247.586 306.773 246.623 310.591 246.401C312.455 246.25 314.325 246.21 316.194 246.235C318.058 246.342 319.926 246.299 321.784 246.104C324.989 245.626 328.434 243.373 328.671 239.484C328.885 235.965 325.221 232.98 322.2 234.336C321.647 234.607 321.154 235.005 320.755 235.503C320.355 236 320.059 236.586 319.887 237.22C319.714 237.855 319.67 238.522 319.755 239.177C319.841 239.832 320.056 240.458 320.384 241.014C321.192 242.357 322.628 243.044 323.915 243.709C328.16 245.905 332.818 246.983 337.514 246.855C342.211 246.727 346.814 245.398 350.953 242.974C351.967 242.368 351.062 240.675 350.047 241.283V241.283Z" fill="#FF6584"/>
<path d="M268.92 114.243C276.999 117.275 282.656 126.209 283.136 135.407C283.38 140.076 282.365 145.473 279.173 148.833C278.467 149.649 277.585 150.26 276.608 150.611C275.631 150.961 274.589 151.04 273.577 150.84C271.814 150.422 269.975 149.111 269.673 147.028C269.382 145.016 270.643 143.353 272.171 142.436C273.038 141.923 273.992 141.606 274.974 141.504C275.957 141.402 276.948 141.518 277.889 141.844C280.382 142.689 282.492 144.503 284.505 146.253C286.469 148.03 288.557 149.637 290.751 151.058C299.405 156.496 309.665 158.03 319.341 155.333C329.017 152.635 337.345 145.92 342.548 136.62C343.179 135.503 343.759 134.355 344.285 133.175C344.792 132.047 343.244 131.053 342.735 132.186C340.451 137.33 337.181 141.878 333.145 145.522C329.109 149.166 324.401 151.82 319.342 153.305C314.283 154.79 308.991 155.07 303.824 154.128C298.657 153.185 293.736 151.04 289.395 147.84C285.215 144.785 281.207 139.534 275.77 139.497C271.767 139.469 266.952 142.771 267.977 147.74C268.444 150.001 270.195 151.629 272.115 152.412C273.147 152.829 274.25 152.994 275.347 152.896C276.444 152.798 277.507 152.439 278.463 151.843C282.703 149.246 284.554 143.481 284.906 138.47C285.597 128.626 280.496 118.416 272.482 113.8C271.489 113.232 270.458 112.748 269.398 112.353C268.303 111.942 267.832 113.834 268.92 114.243V114.243Z" fill="#E6E6E6"/>
</svg>
