<svg width="486" height="444" viewBox="0 0 486 444" fill="none" xmlns="http://www.w3.org/2000/svg">
<g clip-path="url(#clip0)">
<path d="M322.442 151.846L157.777 0L132.72 61.7301C139.487 68.3554 144.272 78.7001 146.055 90.5623C147.839 102.425 146.48 114.868 142.269 125.243C138.057 135.618 131.325 143.106 123.506 146.113C115.687 149.12 107.398 147.409 100.403 141.343L92.2716 161.375H161.681V288.054L330.791 444L366.185 356.806H322.442V151.846Z" fill="#F2F2F2"/>
<path d="M241.444 339.619C257.914 339.619 271.265 336.509 271.265 332.672C271.265 328.834 257.914 325.724 241.444 325.724C224.974 325.724 211.623 328.834 211.623 332.672C211.623 336.509 224.974 339.619 241.444 339.619Z" fill="#FF0099"/>
<path d="M242.409 271.138L272.455 219.331C274.653 215.944 276.387 211.938 277.558 207.541C278.729 203.144 279.314 198.442 279.279 193.705C279.245 188.967 278.591 184.286 277.356 179.929C276.122 175.572 274.329 171.625 272.082 168.311C269.835 164.998 267.177 162.385 264.26 160.62C261.343 158.855 258.223 157.974 255.08 158.026C251.937 158.078 248.831 159.063 245.941 160.924C243.05 162.786 240.431 165.487 238.233 168.874C235.986 165.561 233.328 162.947 230.41 161.182C227.493 159.417 224.374 158.536 221.231 158.588C218.087 158.64 214.982 159.625 212.091 161.486C209.2 163.348 206.581 166.049 204.383 169.436C202.185 172.823 200.451 176.829 199.28 181.226C198.109 185.623 197.524 190.324 197.559 195.062C197.594 199.799 198.247 204.48 199.482 208.837C200.717 213.194 202.509 217.142 204.756 220.455L238.185 271.138" fill="#FF0099"/>
<path d="M162.62 160.668H0.46936V382.273H162.62V160.668Z" stroke="#3F3D56" stroke-width="2" stroke-miterlimit="10"/>
<path d="M485.531 134.493H323.38V356.099H485.531V134.493Z" stroke="#3F3D56" stroke-width="2" stroke-miterlimit="10"/>
<path d="M117.093 132.484C128.239 132.484 137.275 118.865 137.275 102.065C137.275 85.2655 128.239 71.6465 117.093 71.6465C105.947 71.6465 96.9109 85.2655 96.9109 102.065C96.9109 118.865 105.947 132.484 117.093 132.484Z" fill="#FF0099"/>
<path d="M164.966 267.601C164.966 267.601 190.311 254.16 201.106 272.553C211.901 290.945 241.939 261.941 241.939 261.941" stroke="#3F3D56" stroke-width="2" stroke-miterlimit="10"/>
<path d="M371.01 272.553C371.01 272.553 366.316 255.575 334.401 271.138C302.485 286.701 257.428 285.994 246.163 261.942L276.21 210.134C278.408 206.748 280.142 202.741 281.313 198.344C282.484 193.947 283.069 189.246 283.034 184.508C282.999 179.771 282.346 175.09 281.111 170.733C279.876 166.376 278.084 162.428 275.837 159.115C273.59 155.802 270.932 153.189 268.015 151.424C265.097 149.659 261.978 148.778 258.835 148.83C255.692 148.882 252.586 149.867 249.695 151.728C246.805 153.589 244.186 156.29 241.987 159.677C237.449 152.986 231.333 149.287 224.985 149.392C218.637 149.497 212.577 153.399 208.138 160.239C203.699 167.08 201.244 176.297 201.314 185.865C201.384 195.433 203.973 204.568 208.511 211.259L241.939 261.942" stroke="#3F3D56" stroke-width="2" stroke-miterlimit="10"/>
<path d="M245.251 333.845C261.72 333.845 275.072 330.735 275.072 326.897C275.072 323.06 261.72 319.949 245.251 319.949C228.781 319.949 215.43 323.06 215.43 326.897C215.43 330.735 228.781 333.845 245.251 333.845Z" stroke="#3F3D56" stroke-width="2" stroke-miterlimit="10"/>
<path d="M242.078 381.243C255.044 381.243 265.554 378.795 265.554 375.774C265.554 372.753 255.044 370.304 242.078 370.304C229.113 370.304 218.602 372.753 218.602 375.774C218.602 378.795 229.113 381.243 242.078 381.243Z" fill="#FF0099"/>
<path d="M242.078 421.11C250.839 421.11 257.941 419.456 257.941 417.414C257.941 415.373 250.839 413.719 242.078 413.719C233.318 413.719 226.216 415.373 226.216 417.414C226.216 419.456 233.318 421.11 242.078 421.11Z" fill="#FF0099"/>
<path d="M245.251 376.371C258.216 376.371 268.727 373.922 268.727 370.901C268.727 367.88 258.216 365.431 245.251 365.431C232.285 365.431 221.775 367.88 221.775 370.901C221.775 373.922 232.285 376.371 245.251 376.371Z" stroke="#3F3D56" stroke-width="2" stroke-miterlimit="10"/>
<path d="M245.251 417.442C254.011 417.442 261.113 415.788 261.113 413.747C261.113 411.705 254.011 410.051 245.251 410.051C236.49 410.051 229.389 411.705 229.389 413.747C229.389 415.788 236.49 417.442 245.251 417.442Z" stroke="#3F3D56" stroke-width="2" stroke-miterlimit="10"/>
<path d="M95.089 276.413C103.708 276.413 110.696 265.881 110.696 252.89C110.696 239.898 103.708 229.366 95.089 229.366C86.4696 229.366 79.4822 239.898 79.4822 252.89C79.4822 265.881 86.4696 276.413 95.089 276.413Z" fill="#2F2E41"/>
<path d="M87.6389 264.774C87.6389 264.774 82.5555 281.74 81.1031 282.287C79.6507 282.834 93.0855 292.685 93.0855 292.685C93.0855 292.685 95.6272 271.889 96.7165 270.794C97.8058 269.699 87.6389 264.774 87.6389 264.774Z" fill="#9F616A"/>
<path d="M95.2641 277.361C101.08 277.361 105.794 270.255 105.794 261.49C105.794 252.725 101.08 245.619 95.2641 245.619C89.4486 245.619 84.7341 252.725 84.7341 261.49C84.7341 270.255 89.4486 277.361 95.2641 277.361Z" fill="#9F616A"/>
<path d="M104.082 382.273H59.3067C60.804 374.074 62.4044 365.946 63.3056 361.432C63.7608 359.169 64.0378 357.81 64.0378 357.81C64.0378 357.81 97.8073 368.754 98.5301 369.306C98.9367 369.96 99.2969 370.676 99.6049 371.442C100.661 373.777 102.346 377.788 104.082 382.273Z" fill="#2F2E41"/>
<path d="M48.4239 227.559L37.5309 202.384C37.5309 202.384 40.2247 175.975 36.5936 180.901C32.9626 185.826 31.8135 205.717 31.8135 205.717L44.4298 234.674L48.4239 227.559Z" fill="#9F616A"/>
<path d="M147.188 273.53L156.991 272.436C156.991 272.436 168.611 253.828 169.337 259.848C170.063 265.868 159.896 279.003 159.896 279.003L146.461 281.192L147.188 273.53Z" fill="#9F616A"/>
<path d="M75.6566 279.003V273.53C75.6566 273.53 66.2159 264.227 66.579 262.585C66.9421 260.943 65.8528 259.848 65.8528 259.848C65.8528 259.848 64.7635 257.659 64.7635 257.112C64.7635 256.565 63.3111 256.017 63.3111 256.017L54.2336 240.146C54.2336 240.146 49.1501 224.823 48.0608 225.37C46.9715 225.917 41.1619 229.201 41.8881 231.39C42.6143 233.579 62.948 280.645 62.948 280.645C62.948 280.645 64.0373 291.043 65.8528 291.043C67.6683 291.043 75.6566 279.003 75.6566 279.003Z" fill="#3F3D56"/>
<path d="M99.9844 285.57C99.9844 285.57 107.973 285.023 108.336 285.57C108.699 286.118 113.782 285.57 113.782 285.57C113.782 285.57 127.58 280.645 128.669 279.003C129.759 277.361 147.914 270.246 148.64 273.53C149.366 276.814 151.182 283.381 149.366 284.476C147.551 285.57 98.532 304.178 98.532 304.178L99.9844 285.57Z" fill="#3F3D56"/>
<path d="M89.6295 237.865C93.1962 237.865 96.0875 233.507 96.0875 228.132C96.0875 222.756 93.1962 218.398 89.6295 218.398C86.0629 218.398 83.1715 222.756 83.1715 228.132C83.1715 233.507 86.0629 237.865 89.6295 237.865Z" fill="#2F2E41"/>
<path d="M81.0189 222.859C81.019 220.453 81.6102 218.133 82.6785 216.345C83.7469 214.557 85.2166 213.429 86.8042 213.178C86.5807 213.143 86.3562 213.126 86.1315 213.125C84.4187 213.125 82.7761 214.151 81.565 215.976C80.3539 217.802 79.6735 220.278 79.6735 222.859C79.6735 225.441 80.3539 227.917 81.565 229.742C82.7761 231.567 84.4187 232.593 86.1315 232.593C86.3562 232.593 86.5807 232.575 86.8042 232.54C85.2166 232.289 83.7469 231.161 82.6785 229.374C81.6102 227.586 81.019 225.265 81.0189 222.859Z" fill="#2F2E41"/>
<path d="M96.9046 257.636C102.849 257.636 107.668 253.278 107.668 247.902C107.668 242.526 102.849 238.168 96.9046 238.168C90.9601 238.168 86.1412 242.526 86.1412 247.902C86.1412 253.278 90.9601 257.636 96.9046 257.636Z" fill="#2F2E41"/>
<path d="M84.5526 273.257C84.5526 273.257 81.2846 277.087 80.5584 277.635C79.8322 278.182 75.475 272.709 74.7488 272.709C74.0226 272.709 64.582 289.128 64.582 289.128C64.582 289.128 66.3364 292.174 64.582 307.735C63.924 313.571 62.6186 338.522 62.6186 341.806C62.6186 345.09 55.5044 353.159 62.0402 360.274C68.5761 367.388 99.8028 375.05 100.166 370.672C100.529 366.294 96.5349 354.801 98.3504 349.328C100.166 343.855 100.166 323.606 100.166 323.606L102.345 302.262L104.16 285.297C104.16 285.297 95.6272 281.739 94.901 281.739C94.1748 281.739 90.9068 289.401 84.5526 273.257Z" fill="#3F3D56"/>
<path d="M411.753 220.986L404.323 221.42L404.693 235.819L412.123 235.385L411.753 220.986Z" fill="#FF0099"/>
<path d="M378.236 271.413C378.236 271.413 367.946 264.003 368.111 270.403C368.275 276.802 378.483 281.012 378.483 281.012L378.236 271.413Z" fill="#FFB9B9"/>
<path d="M426.083 356.098H377.276C378.294 348.897 380.233 340.21 381.749 333.949C382.95 328.997 383.879 325.559 383.879 325.559C389.422 316.136 397.467 315.896 405.014 318.223C405.915 318.499 406.812 318.81 407.694 319.157C407.797 319.192 407.901 319.235 408.004 319.277C409.769 319.964 411.482 320.756 413.101 321.548C415.894 322.921 418.414 324.307 420.451 325.248C421.475 325.759 422.527 326.13 423.596 326.359C423.829 326.396 424.065 326.41 424.3 326.401C425.107 326.352 425.665 327.66 426.027 329.945C426.843 335.102 426.656 345.261 426.083 356.098Z" fill="#2F2E41"/>
<path d="M416.455 207.492C416.455 207.492 422.112 220.781 424.317 223.857C426.523 226.932 420.319 233.704 420.319 233.704L409.215 235.955C409.215 235.955 409.354 220.725 408.782 219.157C408.211 217.588 416.455 207.492 416.455 207.492Z" fill="#FFB9B9"/>
<path d="M406.804 224.88C406.804 224.88 409.091 231.156 411.214 231.032C413.337 230.907 424.318 223.857 424.787 221.426C425.255 218.995 428.424 238.838 428.424 238.838L401.555 310.106L395.001 303.279L398.177 261.435L400.785 238.851L406.804 224.88Z" fill="#FF0099"/>
<path d="M425.778 288.663C424.668 291.911 424.102 295.52 424.129 299.174C424.133 299.334 424.137 299.493 424.147 299.653C424.401 307.057 426.211 315.619 426.86 321.846C427.331 326.313 427.197 329.573 425.463 330.339C421.258 332.187 426.076 333.508 409.808 341.669C393.541 349.83 390.702 342.786 390.661 341.186C390.62 339.586 392.965 327.432 392.414 326.663C391.862 325.894 384.7 336.728 382.536 335.252C380.372 333.776 382.289 325.653 382.289 325.653C382.289 325.653 387.164 308.544 387.061 304.545C386.958 300.545 394.446 281.681 394.446 281.681L399.538 231.714C399.538 231.714 401.496 225.191 404.129 224.236C405.788 223.716 407.516 224.19 408.947 225.556L404.541 240.234L399.892 266.142L400.67 275.71C400.67 275.71 406.076 258.57 409.626 251.954C413.177 245.337 420.747 229.673 420.747 229.673C420.747 229.673 422.514 220.685 421.18 218C419.845 215.306 426.745 214.902 429.687 225.946C431.246 231.799 433.777 240.528 435.363 248.655C436.776 255.854 437.443 262.585 436.043 266.432C433.904 272.309 428.521 280.034 425.778 288.663Z" fill="#575A89"/>
<path opacity="0.1" d="M436.043 266.432C433.904 272.309 428.521 280.034 425.778 288.663C425.061 284.771 424.187 280.744 424.187 280.744C424.187 280.744 420.833 253.702 430.752 246.713C432.396 246.474 434.04 247.166 435.363 248.655C436.776 255.854 437.443 262.585 436.043 266.432Z" fill="black"/>
<path d="M396.667 264.728L388.258 268.424L376.582 269.106L375.381 284.398L394.569 286.481C394.569 286.481 399.362 266.173 396.667 264.728Z" fill="#575A89"/>
<path d="M410.379 316.143C410.379 316.143 399.13 318.956 401.697 324.059C404.265 329.161 414.231 323.797 414.231 323.797L410.379 316.143Z" fill="#FFB9B9"/>
<path opacity="0.1" d="M424.147 299.653C424.401 307.057 426.211 315.619 426.86 321.846C423.276 326.958 419.868 331.468 418.584 331.543C415.93 331.698 411.664 331.146 410.092 332.039C408.521 332.932 407.599 317.764 407.599 317.764C407.599 317.764 408.537 312.903 412.721 310.255C415.545 308.464 420.958 303.605 424.147 299.653Z" fill="black"/>
<path d="M430.629 241.914C430.629 241.914 439.61 239.786 439.125 262.246C438.64 284.706 440.071 299.043 436.459 303.259C432.847 307.476 421.114 326.588 418.46 326.743C415.807 326.898 411.54 326.346 409.969 327.239C408.397 328.132 407.475 312.965 407.475 312.965C407.475 312.965 408.413 308.103 412.597 305.455C416.781 302.807 426.639 293.419 426.556 290.219C426.474 287.019 424.063 275.945 424.063 275.945C424.063 275.945 420.71 248.902 430.629 241.914Z" fill="#575A89"/>
<path d="M408.536 227.169C414.989 227.169 420.22 219.284 420.22 209.558C420.22 199.831 414.989 191.946 408.536 191.946C402.082 191.946 396.851 199.831 396.851 209.558C396.851 219.284 402.082 227.169 408.536 227.169Z" fill="#FFB9B9"/>
<path d="M400.668 184.315C400.386 184.681 400.049 184.937 399.685 185.058C399.503 185.107 399.315 185.046 399.163 184.887C399.011 184.728 398.907 184.485 398.873 184.21C398.663 185.089 398.272 185.844 397.758 186.365C397.212 186.794 396.368 186.434 396.29 185.514C396.21 186.213 396.005 186.865 395.697 187.401C395.536 187.657 395.315 187.807 395.081 187.819C394.847 187.831 394.62 187.703 394.448 187.464C394.687 189.433 394.54 191.457 394.615 193.456C394.69 195.454 395.044 197.573 396.045 198.887C397.506 200.803 399.703 200.33 401.625 199.967C401.915 199.875 402.217 199.9 402.499 200.039C403.218 200.501 403.186 202.011 403.196 203.19C403.254 205.258 403.797 207.228 404.728 208.749C405.659 210.271 406.918 211.247 408.281 211.502C409.044 211.68 409.822 211.393 410.445 210.706C410.99 210.009 411.269 208.873 411.894 208.35C412.911 207.498 414.145 208.74 414.888 210.089C415.632 211.437 416.365 213.096 417.516 213.343C419.04 213.67 420.2 211.33 420.769 209.175C421.555 206.155 421.931 202.929 421.876 199.686C421.821 196.444 421.336 193.251 420.449 190.295C417.268 179.844 406.402 178.191 400.668 184.315Z" fill="#2F2E41"/>
</g>
<defs>
<clipPath id="clip0">
<rect width="486" height="444" fill="white"/>
</clipPath>
</defs>
</svg>
