<svg width="321" height="398" viewBox="0 0 321 398" fill="none" xmlns="http://www.w3.org/2000/svg">
<g clip-path="url(#clip0)">
<path d="M80.5623 110.291C100.222 110.291 116.16 93.6793 116.16 73.188C116.16 52.6967 100.222 36.0852 80.5623 36.0852C60.9024 36.0852 44.965 52.6967 44.965 73.188C44.965 93.6793 60.9024 110.291 80.5623 110.291Z" fill="#3F3D56"/>
<path d="M284.778 122.658C304.438 122.658 320.375 106.047 320.375 85.5556C320.375 65.0644 304.438 48.4529 284.778 48.4529C265.118 48.4529 249.181 65.0644 249.181 85.5556C249.181 106.047 265.118 122.658 284.778 122.658Z" fill="#3F3D56"/>
<path d="M285.403 47.1509C278.565 47.151 271.872 49.2037 266.125 53.0636C260.377 56.9235 255.817 62.4272 252.991 68.9167C259.085 63.259 266.859 59.9559 275.011 59.5606C283.163 59.1654 291.198 61.702 297.769 66.7456C304.34 71.7891 309.049 79.0333 311.107 87.2644C313.165 95.4955 312.446 104.214 309.071 111.958C314.462 106.958 318.266 100.368 319.981 93.0618C321.695 85.756 321.239 78.0794 318.672 71.0502C316.104 64.021 311.548 57.9711 305.606 53.7029C299.665 49.4346 292.619 47.1496 285.403 47.1509Z" fill="#FF0099"/>
<path d="M79.9377 34.7834C86.7753 34.7835 93.4681 36.8363 99.2159 40.6962C104.964 44.5561 109.523 50.0598 112.349 56.5492C106.256 50.8916 98.4815 47.5885 90.3295 47.1932C82.1776 46.798 74.1429 49.3346 67.5715 54.3781C61.0001 59.4217 56.2911 66.6658 54.2335 74.897C52.1759 83.1281 52.8946 91.8462 56.2692 99.5908C50.8789 94.5904 47.0742 88.0003 45.3597 80.6944C43.6451 73.3885 44.1017 65.712 46.6689 58.6828C49.236 51.6536 53.7925 45.6037 59.7341 41.3355C65.6757 37.0672 72.7217 34.7822 79.9377 34.7834Z" fill="#FF0099"/>
<path d="M183.607 258.051C183.622 276.998 178.244 295.524 168.154 311.284C158.064 327.044 143.715 339.331 126.924 346.589C110.132 353.847 91.6519 355.75 73.8223 352.057C55.9926 348.365 39.6145 339.242 26.7605 325.845C13.9066 312.447 5.15446 295.376 1.6117 276.793C-1.93106 258.209 -0.105247 238.947 6.85812 221.446C13.8215 203.944 25.6094 188.988 40.7303 178.471C55.8511 167.955 73.6253 162.349 91.8035 162.365C103.871 162.322 115.827 164.768 126.983 169.562C138.14 174.355 148.277 181.402 156.809 190.296C165.342 199.189 172.103 209.755 176.702 221.383C181.301 233.012 183.648 245.473 183.607 258.051Z" fill="#3F3D56"/>
<path d="M183.607 258.051C183.624 271.748 180.811 285.289 175.357 297.751C159.638 297.532 144.151 293.762 129.964 286.703C115.777 279.644 103.228 269.462 93.1802 256.86C83.1327 244.258 75.8262 229.535 71.7644 213.706C67.7025 197.877 66.9818 181.318 69.652 165.17C83.1819 161.68 97.2964 161.443 110.927 164.479C124.557 167.514 137.347 173.742 148.326 182.692C159.306 191.641 168.188 203.076 174.301 216.132C180.413 229.189 183.596 243.523 183.607 258.051Z" fill="#FF0099"/>
<path d="M176.737 283.437C236.752 283.437 285.403 232.728 285.403 170.176C285.403 107.624 236.752 56.9148 176.737 56.9148C116.723 56.9148 68.072 107.624 68.072 170.176C68.072 232.728 116.723 283.437 176.737 283.437Z" fill="#3F3D56"/>
<path d="M203.144 174.05C208.773 166.174 217.167 160.945 226.488 159.509C235.808 158.073 245.295 160.547 252.869 166.389C257.077 160.5 259.515 153.441 259.872 146.107C260.23 138.773 258.492 131.494 254.877 125.19C251.263 118.886 245.935 113.842 239.569 110.697C233.203 107.551 226.084 106.445 219.114 107.519C212.144 108.593 205.637 111.798 200.416 116.729C195.195 121.66 191.495 128.095 189.786 135.219C188.076 142.343 188.432 149.835 190.81 156.748C193.188 163.66 197.481 169.682 203.144 174.05Z" fill="white"/>
<path d="M120.084 181.21C125.712 173.334 134.106 168.105 143.427 166.669C152.748 165.233 162.235 167.707 169.808 173.549C174.017 167.66 176.454 160.601 176.812 153.267C177.17 145.933 175.431 138.654 171.817 132.35C168.203 126.046 162.875 121.002 156.509 117.857C150.142 114.711 143.024 113.605 136.054 114.679C129.084 115.753 122.577 118.958 117.356 123.889C112.135 128.82 108.435 135.255 106.725 142.379C105.015 149.503 105.372 156.995 107.75 163.908C110.128 170.821 114.421 176.842 120.084 181.21Z" fill="white"/>
<path d="M143.638 157.808C150.881 157.808 156.753 151.688 156.753 144.139C156.753 136.589 150.881 130.469 143.638 130.469C136.395 130.469 130.523 136.589 130.523 144.139C130.523 151.688 136.395 157.808 143.638 157.808Z" fill="#3F3D56"/>
<path d="M228.572 147.394C235.815 147.394 241.687 141.274 241.687 133.724C241.687 126.175 235.815 120.055 228.572 120.055C221.329 120.055 215.457 126.175 215.457 133.724C215.457 141.274 221.329 147.394 228.572 147.394Z" fill="#3F3D56"/>
<path d="M184.856 181.242C188.65 181.242 191.726 178.036 191.726 174.082C191.726 170.127 188.65 166.921 184.856 166.921C181.062 166.921 177.986 170.127 177.986 174.082C177.986 178.036 181.062 181.242 184.856 181.242Z" fill="#FF6584"/>
<path d="M81.8113 376.761V345.275H71.8191V376.761C68.897 377.838 66.3671 379.833 64.5777 382.471C62.7882 385.109 61.8272 388.26 61.8269 391.491V391.491H91.8035V391.491C91.8031 388.26 90.8421 385.109 89.0527 382.471C87.2632 379.833 84.7334 377.838 81.8113 376.761Z" fill="#3F3D56"/>
<path d="M118.658 376.761V345.275H108.665V376.761C105.743 377.838 103.213 379.833 101.424 382.471C99.6345 385.109 98.6735 388.26 98.6731 391.491V391.491H128.65V391.491C128.649 388.26 127.688 385.109 125.899 382.471C124.11 379.833 121.58 377.838 118.658 376.761Z" fill="#3F3D56"/>
<path d="M132.311 67.7767C127.783 60.179 124.742 51.254 125.684 42.3641C126.627 33.4743 132.214 24.7996 140.439 22.252C148.665 19.7044 158.855 24.9824 160.405 33.7792C168.643 18.9323 181.675 7.61961 197.175 1.85998C204.364 -0.780399 213.918 -1.37915 218.075 5.28014C220.132 8.57596 220.352 13.057 223.108 15.7421C227.429 19.9513 234.357 16.9866 240.26 17.3464C248.563 17.8523 255.246 25.9284 256.292 34.5279C257.338 43.1274 253.684 51.7694 248.29 58.3673C242.896 64.9653 235.88 69.8601 228.959 74.6672" fill="#3F3D56"/>
<path d="M196.802 200.298C197.249 199.806 197.711 199.328 198.193 198.873C198.406 198.672 198.623 198.474 198.843 198.281C198.981 198.16 199.119 198.041 199.259 197.924C199.501 197.72 199.578 197.671 199.284 197.898C200.346 197.07 201.464 196.324 202.63 195.665C203.167 195.365 203.714 195.084 204.269 194.822C204.4 194.76 204.532 194.701 204.663 194.64C204.074 194.913 204.536 194.696 204.687 194.633C205.02 194.494 205.356 194.361 205.694 194.235C206.95 193.768 208.234 193.392 209.539 193.109C210.141 192.979 210.745 192.878 211.352 192.777C211.76 192.709 210.838 192.837 211.249 192.792C211.429 192.773 211.608 192.748 211.788 192.728C212.147 192.689 212.507 192.657 212.868 192.631C214.167 192.539 215.47 192.534 216.769 192.617C217.418 192.658 218.064 192.727 218.71 192.806C218.059 192.726 218.805 192.825 219.034 192.864C219.389 192.925 219.744 192.993 220.097 193.067C221.367 193.334 222.617 193.691 223.84 194.135C224.144 194.246 224.447 194.363 224.748 194.485C224.915 194.553 225.081 194.623 225.247 194.693C225.163 194.658 224.7 194.44 225.169 194.662C225.757 194.94 226.339 195.226 226.909 195.542C228.077 196.199 229.198 196.944 230.263 197.77C230.587 198.018 229.898 197.455 230.205 197.726C230.342 197.848 230.486 197.962 230.624 198.083C230.845 198.276 231.064 198.473 231.278 198.675C231.828 199.191 232.355 199.733 232.862 200.294C233.325 200.807 233.77 201.335 234.198 201.881C234.192 201.873 234.68 202.504 234.42 202.164C234.203 201.879 234.51 202.288 234.559 202.356C234.818 202.717 235.069 203.084 235.312 203.456C236.106 204.672 236.823 205.941 237.459 207.254C237.762 207.875 238.047 208.505 238.316 209.143C238.375 209.283 238.579 209.801 238.358 209.238C238.418 209.39 238.478 209.543 238.537 209.696C238.684 210.079 238.826 210.465 238.962 210.852C239.946 213.699 240.701 216.626 241.218 219.604C241.354 220.36 241.478 221.118 241.591 221.879C241.642 222.218 241.691 222.558 241.737 222.898C241.736 222.889 241.844 223.727 241.788 223.275C241.738 222.873 241.824 223.579 241.833 223.654C242.022 225.239 242.172 226.83 242.293 228.422C242.531 231.546 242.658 234.677 242.749 237.809C242.981 245.754 243.178 253.7 243.392 261.645L244.701 310.311L246.011 358.977L246.174 365.018C246.174 365.795 246.47 366.54 246.997 367.089C247.524 367.638 248.239 367.947 248.984 367.947C249.729 367.947 250.444 367.638 250.971 367.089C251.498 366.54 251.794 365.795 251.794 365.018L250.449 315.009L249.112 265.337L248.439 240.333C248.259 233.638 248 226.95 247.011 220.322C245.191 208.115 239.901 195.425 228.593 189.882C218.032 184.705 204.961 185.906 195.708 193.434C194.683 194.264 193.72 195.174 192.827 196.156C192.3 196.705 192.004 197.45 192.004 198.227C192.004 199.004 192.3 199.749 192.827 200.298C193.354 200.848 194.069 201.156 194.814 201.156C195.56 201.156 196.275 200.848 196.802 200.298L196.802 200.298Z" fill="#FF0099"/>
<path d="M217.955 292.55C217.127 292.551 216.334 292.894 215.748 293.504C215.163 294.115 214.834 294.942 214.833 295.805L221.077 394.703C221.073 395.133 221.151 395.56 221.306 395.959C221.462 396.358 221.691 396.721 221.981 397.028C222.272 397.334 222.617 397.578 222.998 397.745C223.379 397.911 223.787 397.998 224.2 398H275.411C276.238 397.999 277.032 397.656 277.617 397.046C278.203 396.436 278.532 395.608 278.533 394.745L284.779 295.762C284.769 294.906 284.436 294.088 283.851 293.487C283.266 292.886 282.477 292.549 281.656 292.55H217.955Z" fill="#E6E6E6"/>
<path d="M222.899 297.432C222.471 297.432 222.048 297.524 221.656 297.701C221.264 297.878 220.911 298.138 220.619 298.463C220.327 298.789 220.102 299.174 219.958 299.593C219.815 300.013 219.755 300.459 219.784 300.904L225.526 390.081C225.581 390.904 225.932 391.674 226.51 392.238C227.088 392.801 227.85 393.116 228.641 393.118H270.97C271.761 393.116 272.523 392.801 273.1 392.238C273.678 391.674 274.03 390.904 274.085 390.081L279.827 300.904C279.856 300.459 279.796 300.013 279.653 299.593C279.509 299.174 279.284 298.789 278.992 298.463C278.7 298.138 278.347 297.878 277.955 297.701C277.563 297.524 277.14 297.432 276.712 297.432H222.899Z" fill="#FF0099"/>
<path d="M241.687 312.729C241.356 312.729 241.038 312.867 240.804 313.111C240.57 313.355 240.438 313.685 240.438 314.031V321.191C240.438 321.536 240.57 321.867 240.804 322.111C241.038 322.355 241.356 322.492 241.687 322.493H252.303C252.635 322.492 252.952 322.355 253.186 322.111C253.42 321.867 253.552 321.536 253.553 321.191V314.031C253.552 313.685 253.42 313.355 253.186 313.111C252.952 312.867 252.635 312.729 252.303 312.729H241.687Z" fill="#E6E6E6"/>
<path d="M253.553 331.605C253.221 331.606 252.904 331.743 252.67 331.987C252.436 332.231 252.304 332.562 252.304 332.907V340.068C252.304 340.413 252.436 340.744 252.67 340.988C252.904 341.232 253.221 341.369 253.553 341.369H264.169C264.5 341.369 264.818 341.232 265.052 340.988C265.286 340.744 265.418 340.413 265.418 340.068V332.907C265.418 332.562 265.286 332.231 265.052 331.987C264.818 331.743 264.5 331.606 264.169 331.605H253.553Z" fill="#E6E6E6"/>
<path d="M242.311 347.228C241.98 347.228 241.663 347.366 241.429 347.61C241.194 347.854 241.063 348.184 241.062 348.53V355.69C241.063 356.035 241.194 356.366 241.429 356.61C241.663 356.854 241.98 356.991 242.311 356.992H252.928C253.259 356.991 253.577 356.854 253.811 356.61C254.045 356.366 254.177 356.035 254.177 355.69V348.53C254.177 348.184 254.045 347.854 253.811 347.61C253.577 347.366 253.259 347.228 252.928 347.228H242.311Z" fill="#E6E6E6"/>
<path d="M40.6116 309.578C43.8613 310.701 46.15 313.583 48.0541 316.408C50.017 319.32 51.8162 322.481 54.4988 324.756C55.6254 325.777 56.9473 326.536 58.3769 326.984C59.8065 327.432 61.3111 327.558 62.791 327.354C65.7324 326.892 68.2258 324.749 68.6732 321.588C69.2623 317.425 66.467 313.572 64.015 310.611L63.3526 312.278C67.2596 312.717 70.6562 315.038 74.2337 316.532C77.6614 317.964 81.7159 318.745 85.1401 316.879C87.7675 315.447 89.4058 312.582 89.9609 309.612C90.5289 306.372 90.0539 303.026 88.6097 300.096C86.7869 296.212 83.7978 293.072 80.8983 290.049L79.9869 291.681C84.2976 292.356 89.1038 292.985 92.8441 290.097C94.3402 288.999 95.407 287.376 95.8496 285.525C96.2308 283.479 95.9063 281.359 94.9334 279.539C92.9667 275.547 89.2545 272.732 85.9265 270.055C78.1627 263.798 69.7505 258.468 60.8474 254.165C59.7609 253.639 58.8083 255.322 59.9018 255.851C67.5288 259.543 74.8001 263.985 81.6166 269.118C84.896 271.59 88.3616 274.138 91.0943 277.273C93.4143 279.934 95.5274 284.005 92.9936 287.295C90.0132 291.166 84.6203 290.445 80.485 289.798C80.2871 289.748 80.079 289.766 79.8917 289.849C79.7044 289.932 79.5479 290.076 79.4455 290.26C79.3431 290.443 79.3002 290.656 79.3233 290.867C79.3464 291.078 79.4341 291.275 79.5735 291.43C83.8951 295.936 89.0273 301.346 88.2756 308.281C87.9907 310.911 86.7939 313.596 84.5491 314.987C81.4976 316.877 77.6814 315.904 74.6079 314.597C70.8766 313.01 67.4388 310.784 63.3526 310.325C62.472 310.226 62.217 311.42 62.6902 311.992C64.6728 314.386 67.0509 317.502 66.8749 320.859C66.7275 323.668 64.3775 325.349 61.8575 325.507C55.447 325.912 52.2105 318.955 48.9604 314.393C46.9035 311.506 44.4625 308.854 41.1097 307.695C39.9626 307.298 39.4708 309.183 40.6116 309.578H40.6116Z" fill="#FF0099"/>
</g>
<defs>
<clipPath id="clip0">
<rect width="321" height="398" fill="white"/>
</clipPath>
</defs>
</svg>
