<svg width="613" height="398" viewBox="0 0 613 398" fill="none" xmlns="http://www.w3.org/2000/svg">
<g clip-path="url(#clip0)">
<path d="M459.723 0.000624787H336.909C330.983 0.000622206 325.233 2.29418 320.604 6.50427C315.975 10.7144 312.744 16.5905 311.44 23.1667L249.385 336.262C248.708 339.677 248.696 343.219 249.35 346.64C250.004 350.061 251.308 353.278 253.17 356.065C255.032 358.852 257.408 361.142 260.131 362.774C262.853 364.406 265.857 365.341 268.931 365.514L395.184 372.589C401.945 372.968 408.595 370.536 413.895 365.747C419.195 360.958 422.782 354.139 423.987 346.563L459.189 125.201L461.808 126.052L468.543 84.0958L465.847 83.3292L475.673 21.5391C476.094 18.8926 475.997 16.1729 475.388 13.5742C474.778 10.9754 473.673 8.56151 472.149 6.50454C470.626 4.44756 468.723 2.79818 466.575 1.67396C464.427 0.549752 462.087 -0.0216076 459.723 0.000624787V0.000624787Z" fill="#3F3D56"/>
<path d="M353.077 6.75025H338.741C334.624 6.75025 330.631 8.35188 327.425 11.2893C324.218 14.2267 321.991 18.3231 321.114 22.8986L261.549 333.439C261.206 335.227 261.206 337.078 261.55 338.866C261.894 340.654 262.572 342.336 263.54 343.798C264.507 345.26 265.741 346.468 267.156 347.338C268.572 348.208 270.135 348.72 271.741 348.84L397.586 358.222C401.136 358.486 404.648 357.255 407.451 354.762C410.253 352.269 412.151 348.69 412.782 344.707L463.609 23.7327C463.938 21.6552 463.862 19.521 463.387 17.4805C462.911 15.44 462.048 13.543 460.858 11.9235C459.668 10.3039 458.179 9.00127 456.498 8.1074C454.817 7.21353 452.984 6.75025 451.128 6.75025H437.528C436.212 6.75025 434.932 7.24384 433.888 8.15461C432.843 9.06538 432.091 10.3425 431.749 11.7883C431.447 13.0647 430.783 14.1922 429.861 14.9962C428.939 15.8003 427.809 16.236 426.647 16.236H362.083C359.807 16.236 357.616 15.259 355.946 13.5004C354.276 11.7417 353.252 9.33098 353.077 6.75024L353.077 6.75025Z" fill="#FF0099"/>
<path d="M534.98 276.165C515.341 311.463 521.37 355.877 521.37 355.877C521.37 355.877 559.237 343.062 578.875 307.764C598.514 272.467 592.485 228.053 592.485 228.053C592.485 228.053 554.618 240.868 534.98 276.165Z" fill="#D0CDE1"/>
<path d="M550.12 282.118C549.034 323.872 522.191 356.846 522.191 356.846C522.191 356.846 497.109 322.124 498.195 280.37C499.281 238.616 526.123 205.642 526.123 205.642C526.123 205.642 551.206 240.364 550.12 282.118Z" fill="#FF0099"/>
<path d="M59.1841 229.455C65.3857 229.455 70.4131 225.563 70.4131 220.761C70.4131 215.959 65.3857 212.067 59.1841 212.067C52.9825 212.067 47.9551 215.959 47.9551 220.761C47.9551 225.563 52.9825 229.455 59.1841 229.455Z" fill="#FF0099"/>
<path d="M59.1841 220.761C59.1841 220.761 112.522 326.178 111.118 341.393Z" fill="#FF0099"/>
<path d="M94.2747 228.033V289.7C83.102 272.09 60.8173 253.958 19.0574 239.239L94.2747 356.76V357.653C94.2747 357.653 94.4167 357.566 94.6813 357.396L94.8094 357.596C94.8094 357.596 94.9168 357.432 95.1087 357.117C103.872 351.343 177.369 299.279 94.2747 228.033Z" fill="#3F3D56"/>
<path d="M468.537 229.455C474.739 229.455 479.766 225.563 479.766 220.761C479.766 215.959 474.739 212.067 468.537 212.067C462.335 212.067 457.308 215.959 457.308 220.761C457.308 225.563 462.335 229.455 468.537 229.455Z" fill="#FF0099"/>
<path d="M468.537 220.761C468.537 220.761 521.875 326.178 520.471 341.393Z" fill="#FF0099"/>
<path d="M503.628 228.033V289.7C492.455 272.09 470.17 253.958 428.41 239.239L503.628 356.76V357.653C503.628 357.653 503.77 357.566 504.034 357.396L504.162 357.596C504.162 357.596 504.27 357.432 504.462 357.117C513.225 351.343 586.722 299.279 503.628 228.033Z" fill="#3F3D56"/>
<path d="M23.1895 339.654C29.0848 352.09 41.5967 357.429 41.5967 357.429C41.5967 357.429 44.5504 342.604 38.6551 330.168C32.7598 317.732 20.248 312.393 20.248 312.393C20.248 312.393 17.2943 327.218 23.1895 339.654Z" fill="#D0CDE1"/>
<path d="M27.2415 335.562C37.8849 342.846 41.984 357.314 41.984 357.314C41.984 357.314 28.8268 359.972 18.1834 352.688C7.54002 345.405 3.44092 330.937 3.44092 330.937C3.44092 330.937 16.5981 328.279 27.2415 335.562Z" fill="#FF0099"/>
<path d="M375.376 339.654C381.271 352.09 393.783 357.429 393.783 357.429C393.783 357.429 396.737 342.604 390.842 330.168C384.946 317.732 372.434 312.393 372.434 312.393C372.434 312.393 369.481 327.218 375.376 339.654Z" fill="#3F3D56"/>
<path d="M379.428 335.562C390.071 342.846 394.171 357.314 394.171 357.314C394.171 357.314 381.013 359.972 370.37 352.688C359.727 345.405 355.627 330.937 355.627 330.937C355.627 330.937 368.785 328.279 379.428 335.562Z" fill="#3F3D56"/>
<path d="M231.439 330.364C237.334 342.801 249.846 348.139 249.846 348.139C249.846 348.139 252.8 333.315 246.904 320.879C241.009 308.442 228.497 303.104 228.497 303.104C228.497 303.104 225.544 317.928 231.439 330.364Z" fill="#3F3D56"/>
<path d="M235.491 326.273C246.134 333.557 250.233 348.024 250.233 348.024C250.233 348.024 237.076 350.683 226.433 343.399C215.79 336.115 211.69 321.647 211.69 321.647C211.69 321.647 224.848 318.989 235.491 326.273Z" fill="#FF0099"/>
<path d="M167.637 330.364C173.532 342.801 186.044 348.139 186.044 348.139C186.044 348.139 188.998 333.315 183.103 320.879C177.207 308.442 164.696 303.104 164.696 303.104C164.696 303.104 161.742 317.928 167.637 330.364Z" fill="#D0CDE1"/>
<path d="M171.689 326.273C182.332 333.557 186.431 348.024 186.431 348.024C186.431 348.024 173.274 350.683 162.631 343.399C151.988 336.115 147.888 321.647 147.888 321.647C147.888 321.647 161.046 318.989 171.689 326.273Z" fill="#FF0099"/>
<path d="M589.75 339.654C583.855 352.09 571.343 357.429 571.343 357.429C571.343 357.429 568.389 342.604 574.285 330.168C580.18 317.732 592.692 312.393 592.692 312.393C592.692 312.393 595.646 327.218 589.75 339.654Z" fill="#3F3D56"/>
<path d="M585.698 335.562C575.055 342.846 570.956 357.314 570.956 357.314C570.956 357.314 584.113 359.972 594.757 352.688C605.4 345.405 609.499 330.937 609.499 330.937C609.499 330.937 596.342 328.279 585.698 335.562Z" fill="#FF0099"/>
<path d="M613 366.488C613 366.488 598.319 361.54 569.118 356.784L569.643 346.621C574.039 289.391 539.594 204.131 539.594 204.131C552.861 246.548 559.442 291.296 559.034 336.315C554.466 327.508 545.725 318.061 529.061 312.423C529.061 312.423 550.881 333.174 557.305 354.993C535.286 351.896 506.758 349.18 471.775 348.384L478.984 328.858L464.926 345.256C464.926 345.256 458.528 296.755 445.944 295.029L455.682 342.529C455.682 342.529 444.689 333.158 442.187 334.147L448.538 348.153C444.633 348.162 440.66 348.196 436.617 348.255C439.631 291.096 406.376 208.776 406.376 208.776C419.643 251.193 426.224 295.941 425.816 340.96C421.248 332.152 412.507 322.705 395.842 317.068C395.842 317.068 410.845 331.336 419.633 348.65C397.537 349.346 373.559 350.811 347.709 353.286C344.709 353.186 341.658 353.1 338.557 353.029L341.931 343.891L343.236 341.012C343.164 340.986 343.089 340.968 343.014 340.958L345.766 333.503L336.825 343.931C334.816 345.317 332.8 346.894 331.435 347.997C331.289 347.02 331.085 345.702 330.822 344.124L339.479 301.894C333.902 302.659 329.541 312.612 326.413 323.458C323.251 311.786 318.682 300.49 312.726 299.673L321.798 343.927C321.65 344.762 321.515 345.551 321.393 346.284C318.605 343.998 311.186 338.146 309.052 338.771L306.439 335.723L312.747 352.809C309.721 352.824 306.656 352.854 303.552 352.898C303.037 352.833 302.522 352.768 302.007 352.703L306.561 340.368L296.56 352.033C294.932 351.836 293.31 351.642 291.694 351.453C289.613 338.816 283.52 307.91 273.521 306.539L282.514 350.411C281.026 350.248 279.544 350.088 278.069 349.932C274.857 347.556 271.1 345.129 269.764 345.657L271.388 349.239C231.344 345.203 195.695 343.585 164.462 343.508L170.813 329.502C168.311 328.513 157.318 337.885 157.318 337.885L167.056 290.384C159.23 291.457 153.798 310.618 150.808 324.956C147.997 317.524 144.493 311.758 140.302 311.183L145.788 337.945L134.016 324.213L141.225 343.74C106.242 344.535 77.7145 347.252 55.6953 350.348C62.1187 328.529 83.9393 307.778 83.9393 307.778C67.275 313.416 58.5337 322.863 53.9661 331.67C53.5579 286.651 60.1389 241.903 73.406 199.486C73.406 199.486 38.9615 284.746 43.3565 341.976L43.8822 352.139C14.681 356.895 0 361.843 0 361.843L142.701 363.878L143.965 366.665C125.196 369.499 105.649 372.863 85.3232 376.757L479.782 371.133C479.782 371.133 476.702 370.096 470.579 368.519L613 366.488Z" fill="#3F3D56"/>
<path d="M112.921 398C112.921 398 206.837 382.324 265.025 398Z" fill="#3F3D56"/>
<path d="M472.253 384.604C472.253 384.604 527.878 368.557 562.341 384.604Z" fill="#3F3D56"/>
<path d="M386.864 299.263C386.621 299.263 386.377 299.254 386.133 299.236L377.429 298.586L292.134 292.229C290.716 292.125 289.342 291.633 288.127 290.795C286.912 289.957 285.893 288.798 285.157 287.416C283.962 285.207 283.568 282.557 284.058 280.024L328.552 48.065C329.245 44.5264 330.974 41.3607 333.457 39.0868C335.939 36.8128 339.027 35.5655 342.214 35.5493H426.162C427.623 35.55 429.065 35.9152 430.389 36.6191C431.712 37.3231 432.883 38.3487 433.819 39.6236C434.756 40.8985 435.435 42.3916 435.81 43.9977C436.184 45.6038 436.243 47.2837 435.985 48.9188L398.02 288.664C397.67 290.866 396.823 292.927 395.562 294.644L395.456 294.934L395.346 294.935C394.415 296.127 393.297 297.113 392.051 297.843L391.989 297.876C390.4 298.789 388.644 299.264 386.864 299.263ZM342.214 36.7105C339.259 36.7255 336.397 37.8818 334.096 39.9897C331.795 42.0977 330.192 45.0322 329.549 48.3125L285.056 280.271C284.649 282.418 284.951 284.66 285.904 286.569C286.856 288.479 288.393 289.924 290.221 290.628C290.862 290.872 291.529 291.02 292.203 291.07L386.199 298.077C388.037 298.215 389.874 297.789 391.519 296.844L391.577 296.814C392.704 296.155 393.715 295.267 394.559 294.194L394.725 293.973C395.902 292.395 396.692 290.493 397.016 288.457L434.98 48.713L435.482 48.8159L434.98 48.713C435.212 47.2451 435.158 45.7371 434.823 44.2953C434.487 42.8535 433.877 41.5131 433.036 40.3685C432.195 39.224 431.144 38.3033 429.956 37.6712C428.768 37.0392 427.473 36.7112 426.162 36.7105H342.214Z" fill="#3F3D56"/>
<path d="M295.796 272.122C295.796 272.122 279.779 293.371 283.145 294.758C286.512 296.146 302.23 280.963 301.219 275.595L295.796 272.122Z" fill="#FFB9B9"/>
<path d="M390.075 291.814C390.075 291.814 398.771 317.999 395.19 317.999C391.609 317.999 381.378 297.633 383.936 292.978L390.075 291.814Z" fill="#FFB9B9"/>
<path d="M395.485 133.323C394.049 131.013 392.283 128.995 390.768 126.752C387.274 121.58 386.066 114.689 381.378 110.723C376.739 106.799 369.378 102.937 363.573 103.246C355.923 103.654 349.854 110.405 344.58 116.722C340.55 121.55 336.52 126.377 332.489 131.205C329.574 134.697 326.551 138.405 325.5 143.07C324.49 147.554 325.475 152.371 327.324 156.494C329.246 160.677 331.941 164.337 335.224 167.221C339.271 160.882 344.941 152.129 344.941 152.129L346.262 173.901C353.118 176.486 360.484 176.994 367.71 176.423L369.85 167.496L372.096 175.929C380.731 174.626 389.406 171.235 394.751 163.57C400.661 155.096 400.975 142.155 395.485 133.323Z" fill="#2F2E41"/>
<path d="M362.451 152.746C371.209 152.746 378.309 144.67 378.309 134.708C378.309 124.746 371.209 116.67 362.451 116.67C353.693 116.67 346.594 124.746 346.594 134.708C346.594 144.67 353.693 152.746 362.451 152.746Z" fill="#FFB9B9"/>
<path d="M352.221 143.436C352.221 143.436 353.244 157.401 346.594 158.565C339.944 159.729 332.782 158.565 332.782 163.22C332.782 167.875 337.897 210.352 337.897 210.352L350.686 209.188L368.59 189.404L378.309 167.875C378.309 167.875 366.544 162.056 371.659 144.6L352.221 143.436Z" fill="#FFB9B9"/>
<path d="M344.547 202.205L339.432 186.495L340.455 164.965C340.455 164.965 351.687 163.22 351.442 152.746L343.013 156.819L323.574 160.31V180.676C323.574 180.676 316.924 192.895 324.597 205.115L328.178 230.717L365.009 227.808L376.774 210.352L391.609 177.185L376.263 164.384L378.309 160.892L370.482 155.086L371.659 166.129L368.078 173.112C368.078 173.112 351.709 176.603 344.547 202.205Z" fill="white"/>
<path d="M326.644 161.474L323.574 160.311C323.574 160.311 317.436 163.22 317.436 172.53C317.436 181.84 292.882 273.776 292.882 273.776L304.136 277.267L319.482 234.79L328.69 199.296L326.644 161.474Z" fill="white"/>
<path d="M387.517 177.185H391.609C391.609 177.185 394.167 174.857 393.655 191.732C393.144 208.606 395.19 297.633 395.19 297.633L380.355 296.469L376.775 200.46L387.517 177.185Z" fill="white"/>
<path d="M377.463 298.007L349.508 295.922L342.714 295.417L327.243 294.262C327.009 293.316 326.804 292.497 326.641 291.812C321.527 270.283 327.157 240.029 327.157 240.029C327.157 240.029 326.131 237.12 327.157 235.372C328.177 233.625 327.667 234.211 325.62 231.883C323.573 229.555 325.62 231.883 326.641 228.974C327.667 226.06 326.641 228.974 326.641 226.646C326.694 225.377 326.33 224.131 325.62 223.151C326.042 222.773 326.501 222.454 326.988 222.199C336.722 216.892 367.964 223.424 367.964 223.424C367.964 223.424 367.944 223.453 367.908 223.511C367.663 223.917 366.734 225.694 368.077 227.227C369.613 228.974 367.056 228.974 366.545 230.716C366.03 232.463 366.545 230.716 367.056 232.463C367.566 234.211 366.03 236.533 366.03 236.533C379.198 249.121 379.893 275.439 377.463 298.007Z" fill="#2F2E41"/>
<path d="M349.507 295.922L342.714 295.417C343.867 289.455 344.546 285.994 344.546 285.994L349.507 295.922Z" fill="#2F2E41"/>
<path d="M345.315 121.616C345.315 121.616 358.103 139.072 383.68 129.18L376.519 114.633L359.638 108.815L345.315 121.616Z" fill="#2F2E41"/>
<path d="M227.119 378.341C227.119 378.341 234.345 385.264 238.149 384.831C241.953 384.399 249.18 384.399 246.137 389.158C243.094 393.917 230.542 396.513 225.217 396.946C219.891 397.379 208.1 397.811 208.861 395.215C209.622 392.619 210.382 380.505 213.425 379.639C216.468 378.774 227.119 378.341 227.119 378.341Z" fill="#575A89"/>
<path d="M185.639 371.545C185.639 371.545 190.965 380.422 194.731 381.168C198.497 381.914 205.458 384.123 201.402 387.777C197.347 391.431 184.643 390.095 179.412 388.883C174.18 387.672 162.72 384.484 164.067 382.216C165.413 379.948 169.008 368.512 172.143 368.609C175.279 368.706 185.639 371.545 185.639 371.545Z" fill="#575A89"/>
<path d="M231.352 244.586C231.352 244.586 236.247 282.722 235.106 289.645C233.965 296.567 233.204 307.384 233.204 307.384C233.204 307.384 233.965 316.47 233.204 320.797C232.444 325.123 227.879 366.227 227.879 367.092C227.879 367.957 228.64 370.553 227.879 372.717C227.118 374.88 225.597 373.149 227.879 376.611C230.161 380.072 228.64 380.937 228.259 380.937C227.879 380.937 213.045 382.668 212.284 380.937C211.523 379.207 212.664 378.774 212.284 376.611C211.904 374.447 211.523 374.015 210.763 373.582C210.002 373.149 208.48 374.015 209.621 371.851C210.762 369.688 213.425 367.092 212.664 365.794C211.904 364.496 213.045 354.977 213.045 354.977C213.045 354.977 213.805 333.777 214.186 320.797C214.566 307.817 210.763 294.404 210.763 294.404C210.289 305.024 206.821 315.189 200.873 323.393C190.983 336.805 186.039 361.9 186.039 361.9C186.039 361.9 183.756 365.794 184.897 369.255C186.039 372.717 189.462 370.553 186.039 372.717C182.615 374.88 170.824 371.851 169.683 370.553C168.542 369.255 171.204 367.525 170.443 364.063C169.683 360.602 166.64 361.467 169.302 359.737C171.965 358.006 172.726 358.439 172.726 356.708C172.726 354.977 179.572 317.335 190.223 306.519L190.983 267.146C190.983 267.146 181.474 239.455 191.364 236.859C201.253 234.263 231.352 244.586 231.352 244.586Z" fill="#2F2E41"/>
<path d="M224.456 142.106C224.456 142.106 217.99 160.278 219.511 162.874C221.033 165.469 200.873 154.22 200.873 154.22C200.873 154.22 207.339 136.048 207.339 133.885C207.339 131.722 224.456 142.106 224.456 142.106Z" fill="#FFB9B9"/>
<path d="M219.701 146.648C227.474 146.648 233.775 139.481 233.775 130.64C233.775 121.798 227.474 114.631 219.701 114.631C211.929 114.631 205.628 121.798 205.628 130.64C205.628 139.481 211.929 146.648 219.701 146.648Z" fill="#FFB9B9"/>
<path d="M200.873 146.865C200.873 146.865 210.763 145.567 215.707 152.489C220.652 159.412 221.413 161.143 221.413 161.143C221.413 161.143 233.204 182.776 230.922 193.593C230.366 194.569 229.858 195.58 229.401 196.621C228.64 198.352 228.64 222.581 229.401 226.475C230.161 230.369 230.922 231.667 230.161 237.292C229.401 242.917 236.247 252.003 228.259 253.733C220.272 255.464 214.186 254.166 211.523 250.272C208.861 246.378 211.143 243.782 202.775 243.782C194.407 243.782 189.082 237.292 189.082 237.292C189.082 237.292 193.266 232.1 191.744 231.235C190.223 230.369 191.744 228.206 192.505 226.043C193.266 223.879 193.266 222.149 192.124 222.149C190.983 222.149 191.744 221.283 192.505 219.12C193.266 216.957 179.192 179.747 187.56 168.931C195.928 158.114 200.112 152.057 200.112 152.057C200.112 152.057 198.591 145.567 200.873 146.865Z" fill="#2F2E41"/>
<path d="M222.554 187.968V207.006L234.726 252.868C234.726 252.868 242.714 276.665 234.726 276.665C226.738 276.665 227.166 253.952 227.166 253.952L210.002 219.553C210.002 219.553 203.155 192.295 203.916 190.132C204.677 187.968 222.554 187.968 222.554 187.968Z" fill="#FFB9B9"/>
<path d="M216.088 159.845C216.088 159.845 227.499 165.037 224.456 178.882C221.413 192.727 224.456 192.295 224.456 192.295C224.456 192.295 208.861 190.564 203.916 194.458L202.775 189.266C202.775 189.266 198.211 159.412 216.088 159.845Z" fill="#2F2E41"/>
<path d="M224.507 118.622C225.385 118.976 226.327 119.077 227.248 118.914C228.169 118.751 229.039 118.329 229.781 117.688C231.215 116.344 231.823 113.865 230.98 111.982C230.252 110.356 228.694 109.464 227.2 108.799C223.905 107.333 220.434 106.442 216.905 106.155C215.222 106.019 213.455 106.04 211.953 106.915C211.21 107.347 210.565 107.972 209.829 108.42C208.476 109.244 206.902 109.427 205.439 109.957C203.944 110.512 202.57 111.427 201.411 112.638C200.253 113.849 199.337 115.329 198.725 116.978C198.327 118.098 198.05 119.268 197.898 120.463C197.46 123.736 197.766 127.081 198.785 130.181C200.407 135.092 203.807 139.385 203.999 144.626C206.081 142.908 206.852 139.808 208.52 137.581C209.761 135.936 211.456 134.818 213.328 134.409C213.846 134.373 214.344 134.167 214.761 133.815C215.052 133.42 215.234 132.937 215.285 132.426L216.709 124.777C216.999 123.221 217.365 121.523 218.49 120.578C219.19 120.068 219.984 119.75 220.811 119.647C222.775 119.257 224.764 119.051 226.757 119.031" fill="#2F2E41"/>
</g>
<defs>
<clipPath id="clip0">
<rect width="613" height="398" fill="white"/>
</clipPath>
</defs>
</svg>
