<?xml version="1.0" standalone="no"?>
<!DOCTYPE svg PUBLIC "-//W3C//DTD SVG 20010904//EN"
 "http://www.w3.org/TR/2001/REC-SVG-20010904/DTD/svg10.dtd">
<svg version="1.0" xmlns="http://www.w3.org/2000/svg"
 width="1000.000000pt" height="1000.000000pt" viewBox="0 0 1000.000000 1000.000000"
 preserveAspectRatio="xMidYMid meet">

<g transform="translate(0.000000,1000.000000) scale(0.100000,-0.100000)"
fill="#000000" stroke="none">
<path d="M1149 9963 c-16 -51 -43 -103 -67 -131 -24 -28 -36 -99 -22 -136 22
-58 -1 -176 -34 -176 -6 0 -16 -10 -21 -22 -13 -29 -50 -27 -75 4 -15 20 -20
21 -35 8 -9 -7 -25 -30 -36 -49 -10 -20 -23 -43 -28 -51 -19 -31 -51 -102 -54
-118 -2 -9 -11 -31 -20 -49 -9 -18 -17 -40 -17 -50 0 -10 -14 -39 -30 -65 -22
-36 -38 -49 -67 -57 -54 -15 -105 -13 -131 5 -26 18 -55 70 -47 84 3 5 -3 27
-15 49 -11 22 -20 55 -20 74 0 19 -7 56 -15 83 -8 27 -15 63 -15 81 0 71 -63
188 -123 228 l-34 24 -44 -22 c-55 -27 -78 -54 -79 -90 0 -15 -9 -53 -19 -85
-11 -31 -25 -93 -31 -137 -9 -58 -20 -92 -41 -123 l-29 -43 0 -439 c0 -433 0
-439 20 -445 12 -4 33 -25 47 -46 23 -34 26 -50 25 -106 -2 -72 -23 -119 -67
-147 l-25 -16 0 -3879 c0 -3536 1 -3879 16 -3885 9 -3 20 -4 25 0 5 3 14 2 20
-2 7 -4 27 -8 46 -10 26 -2 40 3 56 20 32 33 70 40 85 15 8 -13 19 -18 31 -14
30 9 65 -10 124 -69 41 -40 66 -57 94 -61 76 -13 75 -12 71 -66 l-3 -49 3568
0 c3314 0 3567 1 3567 17 0 15 1 15 18 0 10 -10 34 -17 53 -17 34 1 34 1 10
14 -24 13 -23 14 20 18 24 3 48 1 54 -3 5 -6 2 -9 -7 -9 -9 0 -20 -5 -23 -10
-4 -6 7 -10 24 -10 17 0 31 3 30 8 -3 19 15 52 28 52 8 0 11 -5 7 -12 -5 -8
25 -9 119 -4 120 7 126 6 132 -13 4 -13 11 -18 22 -14 11 4 14 2 9 -5 -5 -9
42 -12 188 -12 189 0 196 1 196 20 0 11 5 20 10 20 6 0 10 -5 10 -11 0 -6 7
-9 15 -5 8 3 15 1 15 -4 0 -5 -8 -11 -17 -13 -10 -3 26 -5 80 -6 74 -1 98 2
95 11 -3 7 -24 16 -49 21 -47 9 -89 40 -70 51 6 4 11 2 11 -3 0 -15 47 -14 53
2 3 8 11 6 28 -9 65 -56 109 -75 162 -72 48 3 50 4 27 15 -14 6 -33 23 -44 37
-10 14 -22 23 -27 20 -11 -7 -49 18 -49 33 0 22 16 22 61 1 47 -23 61 -37 52
-51 -6 -10 30 -5 38 6 10 13 89 -27 89 -45 0 -17 29 -18 465 -18 l465 0 0
5000 0 5000 -420 0 c-372 0 -420 -2 -428 -16 -8 -14 -10 -14 -25 0 -15 15 -17
15 -25 0 -11 -20 -66 -21 -89 -2 -13 11 -351 13 -1840 16 -1740 2 -1824 1
-1820 -15 23 -82 14 -125 -44 -211 -16 -24 -29 -49 -29 -56 0 -7 -13 -30 -30
-51 -16 -21 -30 -44 -30 -51 0 -8 -9 -19 -20 -26 -21 -14 -27 -43 -10 -53 18
-11 10 -26 -22 -40 -20 -8 -33 -20 -33 -32 0 -10 -6 -17 -14 -15 -34 7 -55
-50 -29 -76 22 -22 37 -13 48 28 10 37 14 40 45 40 19 0 49 -9 67 -19 41 -24
268 -73 268 -58 0 6 11 0 25 -13 14 -13 25 -32 25 -43 0 -11 22 -41 49 -68 37
-38 47 -55 44 -73 -4 -18 0 -25 19 -29 24 -6 83 -56 109 -92 7 -11 24 -25 36
-30 16 -7 20 -14 14 -24 -7 -11 -12 -10 -27 8 -34 39 -48 26 -47 -44 1 -34 2
-36 26 -35 38 3 47 1 47 -15 0 -8 16 -30 35 -50 67 -66 0 -37 -80 35 -16 15
-46 31 -66 34 -21 4 -43 14 -50 23 -13 15 -11 16 19 10 28 -6 33 -4 30 11 -2
9 -14 18 -28 20 -14 2 -35 13 -47 24 -12 11 -40 22 -64 24 -49 5 -58 15 -60
64 -1 24 -3 28 -6 13 -2 -13 -10 -23 -16 -22 -31 3 -62 16 -63 27 -3 25 -5 27
-14 12 -13 -19 -13 -77 0 -85 5 -3 7 -12 3 -20 -4 -11 -1 -13 11 -9 10 4 16 1
16 -8 0 -25 -12 -28 -29 -9 -9 10 -25 20 -36 23 -14 2 -19 10 -17 27 3 21 1
22 -27 16 -23 -5 -31 -3 -31 7 0 21 -97 108 -119 108 -15 0 -21 -8 -23 -32 -4
-47 -35 -51 -40 -6 -3 31 -5 33 -41 33 -25 0 -36 4 -33 12 6 14 -31 63 -47 63
-6 0 -30 -9 -54 -21 l-43 -21 -48 25 c-38 20 -68 26 -163 31 -75 5 -131 3
-157 -3 -53 -15 -92 -1 -92 33 0 14 4 27 10 31 5 3 19 32 30 64 27 72 61 111
99 111 33 0 91 -19 91 -30 0 -16 58 -73 68 -66 6 3 13 0 16 -6 4 -9 8 -9 11
-2 4 7 24 8 58 4 30 -4 55 -3 58 2 4 6 20 8 37 7 25 -3 39 5 81 47 33 33 49
57 46 66 -4 9 1 22 9 31 21 20 20 25 -10 93 -15 33 -27 66 -28 74 -1 8 -6 40
-10 70 -7 53 -3 80 30 188 l6 22 -478 -1 c-264 -1 -471 -3 -461 -6 10 -3 17
-14 17 -29 0 -17 11 -31 38 -47 64 -41 110 -100 117 -151 4 -25 5 -60 2 -78
-3 -18 -10 -76 -17 -128 -9 -70 -21 -114 -46 -167 -39 -82 -40 -88 -16 -102
15 -9 15 -10 -5 -11 -13 0 -23 -6 -23 -14 0 -8 -11 -27 -25 -42 -21 -22 -28
-25 -52 -17 -18 6 -54 5 -98 -2 -44 -6 -94 -7 -135 -2 -56 8 -80 5 -177 -19
-125 -32 -132 -30 -159 35 -21 47 -14 173 11 220 11 22 16 51 15 80 -7 116 6
220 34 286 35 78 46 131 34 163 l-12 32 -132 0 -131 0 1 -45 c1 -40 -3 -49
-37 -80 -20 -19 -57 -43 -81 -54 -24 -10 -53 -28 -65 -40 -11 -11 -31 -22 -43
-24 -28 -5 -56 -15 -83 -29 -86 -47 -133 -68 -152 -68 -13 0 -23 -3 -24 -7 0
-5 -2 -18 -3 -30 -2 -13 1 -23 6 -23 4 0 8 -6 8 -13 0 -7 13 -26 30 -42 52
-49 64 -99 56 -226 -4 -61 -12 -122 -17 -136 -5 -14 -16 -73 -24 -132 -9 -58
-19 -131 -24 -161 -13 -79 -60 -241 -79 -272 -30 -46 -123 -138 -141 -138 -17
0 -88 -31 -197 -87 -43 -22 -55 -36 -81 -87 -17 -34 -45 -104 -63 -156 -39
-119 -56 -157 -86 -197 -13 -17 -24 -36 -24 -40 0 -5 -15 -23 -33 -41 -60 -58
-144 -36 -188 49 -18 35 -19 47 -10 119 6 44 15 88 20 98 5 9 9 19 8 22 -1 3
5 27 13 53 14 52 10 261 -9 407 -5 41 -15 120 -22 175 -7 55 -19 116 -27 135
-12 27 -16 82 -18 237 -1 111 -5 207 -9 213 -4 6 -11 41 -16 78 -4 37 -18 96
-29 131 -18 54 -22 90 -23 237 l-1 174 -367 0 -367 0 -13 -37z m7807 -453 c23
-13 47 -33 54 -44 20 -32 21 -107 1 -136 -22 -33 -51 -97 -51 -114 0 -18 -70
-97 -81 -90 -5 3 -22 -3 -38 -12 -40 -23 -76 -7 -97 42 -8 20 -19 41 -25 48
-28 33 -59 89 -59 106 0 40 40 123 85 175 42 49 50 54 93 57 55 3 63 1 118
-32z m-4675 -273 c-1 -4 -1 -14 -1 -21 0 -11 -11 -14 -40 -13 -35 1 -40 4 -38
22 2 12 10 19 21 19 9 -1 17 2 17 7 0 5 9 5 21 1 11 -5 20 -11 20 -15z m1692
-252 c20 -30 37 -62 37 -70 0 -9 7 -26 15 -38 8 -13 11 -28 6 -36 -7 -10 -14
-6 -32 18 -12 17 -29 31 -36 31 -7 0 -13 7 -13 15 0 13 -45 48 -75 58 -6 2 -5
10 2 19 7 8 10 18 7 21 -13 13 6 37 29 37 17 0 33 -15 60 -55z m364 -162 c-3
-10 -5 -4 -5 12 0 17 2 24 5 18 2 -7 2 -21 0 -30z m-452 -93 c-3 -5 -12 -7
-20 -3 -21 7 -19 13 6 13 11 0 18 -4 14 -10z m-60 -10 c-3 -5 -10 -10 -16 -10
-5 0 -9 5 -9 10 0 6 7 10 16 10 8 0 12 -4 9 -10z m240 -61 c11 -17 -1 -21 -15
-4 -8 9 -8 15 -2 15 6 0 14 -5 17 -11z m-1899 -60 c3 -5 26 -9 52 -9 32 0 42
-3 33 -9 -10 -6 9 -11 55 -14 115 -7 147 -20 215 -87 33 -33 62 -67 63 -75 3
-23 67 -75 92 -75 12 0 35 -3 52 -6 28 -6 32 -11 38 -53 4 -25 10 -50 14 -56
5 -5 13 -35 18 -65 8 -41 8 -58 -1 -65 -8 -6 -11 -34 -9 -76 2 -44 -3 -81 -14
-110 -9 -24 -17 -63 -19 -86 -1 -22 -5 -46 -9 -51 -3 -5 0 -12 8 -15 7 -3 17
-22 21 -43 4 -21 16 -45 27 -52 10 -8 17 -20 14 -27 -5 -14 28 -55 44 -55 5 0
12 -11 16 -24 3 -14 18 -29 36 -37 23 -9 28 -17 24 -33 -6 -24 10 -47 30 -39
10 3 16 -4 20 -26 5 -22 24 -46 66 -81 33 -28 66 -50 73 -50 7 0 21 -17 30
-37 10 -21 26 -50 37 -65 11 -16 16 -28 12 -28 -3 0 -1 -6 5 -13 6 -8 8 -16 6
-19 -3 -3 -1 -17 4 -31 6 -14 13 -50 16 -79 3 -29 10 -78 15 -108 6 -34 7 -75
1 -103 -5 -26 -5 -50 -1 -52 5 -3 11 -23 15 -44 5 -31 10 -38 22 -34 13 5 15
2 10 -18 -4 -13 -10 -42 -13 -64 -10 -76 -14 -85 -34 -85 -22 0 -32 -24 -28
-73 1 -19 -6 -46 -15 -60 -11 -17 -17 -47 -17 -83 0 -31 -6 -70 -14 -87 -16
-37 -30 -88 -27 -101 1 -4 -8 -25 -20 -45 -12 -20 -25 -49 -29 -66 -6 -28 -9
-30 -47 -27 -31 2 -44 -1 -55 -16 -21 -30 -64 -40 -188 -42 -14 0 -36 -6 -49
-13 -16 -8 -25 -9 -28 -2 -2 6 -19 9 -40 7 -25 -3 -34 -1 -29 7 4 6 18 11 32
11 13 0 24 5 24 11 0 7 -10 9 -25 7 -17 -4 -26 0 -30 12 -6 20 -53 36 -66 23
-5 -5 -10 -21 -11 -35 -2 -22 -9 -28 -36 -33 -18 -3 -41 -4 -50 -1 -19 7 -57
65 -53 81 2 6 4 15 5 21 1 7 7 19 14 27 10 12 9 16 -8 20 -17 4 -19 9 -10 31
7 20 6 26 -5 26 -12 0 -12 5 0 33 12 29 12 37 -1 55 -8 11 -10 23 -5 26 12 8
41 -3 41 -15 0 -5 9 -9 19 -9 23 0 36 -16 20 -25 -15 -10 29 -55 53 -55 14 0
18 8 18 38 0 42 -15 63 -38 55 -10 -4 -13 -1 -10 8 5 14 -23 40 -56 53 -12 4
-26 0 -37 -10 -14 -12 -22 -13 -39 -4 -13 7 -37 9 -61 5 -27 -5 -39 -3 -39 5
0 6 -10 10 -22 8 -16 -2 -26 4 -33 20 -7 15 -16 21 -28 18 -9 -2 -31 3 -48 11
-34 17 -79 10 -79 -11 0 -9 7 -12 21 -9 18 5 38 -9 39 -27 0 -14 -116 6 -126
21 -8 13 -48 11 -62 -3 -9 -9 -17 -7 -35 10 -23 21 -23 21 -35 1 -11 -17 -9
-23 12 -42 22 -19 23 -22 7 -34 -15 -12 -14 -15 7 -29 12 -9 22 -22 22 -28 0
-14 56 -46 81 -46 25 0 81 -28 76 -38 -9 -15 92 -158 121 -171 44 -21 54 -15
49 28 -4 38 -3 39 31 45 20 3 41 1 48 -5 7 -6 18 -8 24 -4 7 4 8 -6 4 -34 -4
-27 -2 -46 6 -56 7 -8 9 -22 6 -31 -5 -14 -16 -16 -56 -11 -56 7 -76 -8 -42
-31 43 -29 19 -52 -55 -52 -22 0 -33 -5 -33 -14 0 -19 -51 -34 -125 -38 l-60
-3 -3 33 c-2 24 1 32 12 32 9 0 16 5 16 11 0 7 -10 9 -25 5 -19 -5 -25 -2 -25
9 0 9 -6 37 -14 63 -8 26 -17 59 -20 74 -4 19 -11 26 -21 22 -10 -4 -19 4 -28
25 -7 17 -16 28 -20 25 -3 -4 -12 5 -18 20 -17 36 -59 37 -59 1 0 -18 -5 -25
-20 -25 -13 0 -20 7 -20 19 0 10 -12 26 -26 36 -25 16 -28 16 -36 1 -14 -26
-48 -2 -48 34 0 16 -4 31 -9 34 -5 3 -11 18 -14 32 -3 20 0 28 14 31 11 3 22
16 25 29 3 12 23 41 44 64 37 41 55 86 44 115 -9 22 -28 19 -62 -10 -42 -35
-98 -36 -207 -2 -96 30 -105 34 -176 66 -84 39 -253 47 -280 15 -6 -8 -17 -14
-23 -14 -7 0 -26 -14 -43 -30 -21 -21 -33 -26 -36 -18 -2 7 -7 10 -11 7 -3 -3
12 -31 33 -62 38 -54 39 -56 20 -73 -10 -9 -19 -23 -19 -31 0 -7 -7 -16 -15
-19 -8 -4 -12 -11 -9 -16 4 -5 6 -28 6 -51 -1 -23 3 -46 9 -53 11 -13 -12 -86
-29 -92 -14 -4 -26 43 -57 240 -3 21 -12 41 -19 45 -25 15 -36 52 -36 116 0
43 5 68 14 76 8 6 26 51 41 99 33 104 56 152 124 252 29 42 54 92 57 112 6 34
11 39 48 49 22 6 60 13 84 14 38 3 52 11 102 61 67 65 76 84 84 168 7 79 17
87 64 49 21 -17 52 -34 70 -38 46 -10 60 -38 66 -130 2 -44 10 -92 16 -107 12
-24 17 -26 73 -27 34 0 67 5 74 10 9 8 14 4 19 -15 4 -16 13 -26 24 -26 10 0
20 -7 23 -14 9 -24 65 -47 160 -67 153 -32 259 -21 315 34 20 19 31 39 29 49
-3 9 0 20 7 23 6 3 -36 2 -94 -1 -262 -15 -246 -15 -265 6 -17 18 -17 20 -1
26 10 4 48 4 86 0 54 -5 70 -3 80 9 7 9 19 14 26 11 7 -3 50 -6 96 -7 45 -1
88 -5 93 -9 6 -5 48 -15 95 -24 70 -13 95 -14 145 -4 33 7 71 20 84 30 13 10
31 18 41 18 9 0 25 9 35 20 16 18 17 23 4 46 -7 15 -23 30 -35 34 -12 5 -23
17 -26 27 -3 10 -35 36 -72 57 -37 22 -71 47 -76 56 -5 10 -22 22 -37 29 -16
6 -37 25 -48 41 -10 16 -35 36 -55 45 -70 32 -142 73 -164 94 -13 12 -35 21
-52 21 -27 -1 -114 5 -214 15 -76 8 -191 5 -208 -4 -8 -5 -32 -6 -53 -4 -54 8
-136 -23 -199 -74 -30 -25 -56 -49 -56 -54 -1 -5 -2 -13 -3 -19 -1 -14 -24
-13 -39 2 -8 8 -8 15 -1 24 8 10 -1 14 -38 19 -26 4 -63 16 -81 27 -18 11 -38
18 -45 15 -8 -3 -38 1 -68 9 -48 13 -55 13 -66 -2 -9 -12 -16 -13 -32 -5 -33
18 -34 46 -1 141 17 50 34 116 40 148 9 56 24 124 40 172 4 14 22 68 38 120
17 52 34 107 36 121 6 28 140 202 199 258 88 83 239 149 355 156 35 2 66 6 69
9 4 3 25 6 47 6 23 0 48 5 56 10 18 12 208 11 216 -1z m-3603 -60 c74 -15 99
-42 105 -113 4 -51 2 -57 -29 -89 -46 -46 -134 -65 -199 -42 -47 16 -80 41
-80 59 0 21 45 151 57 164 30 31 67 37 146 21z m156 -940 c14 -17 52 -58 85
-90 l59 -59 -13 -48 c-7 -26 -25 -59 -39 -73 -14 -14 -32 -35 -40 -47 -19 -27
-83 -39 -110 -20 -45 32 -101 146 -101 207 0 57 75 161 117 161 8 0 27 -14 42
-31z m6976 -229 c3 -5 12 -7 20 -3 11 4 15 -3 15 -26 0 -28 -3 -31 -30 -31
-23 0 -30 5 -30 19 0 11 -3 26 -6 35 -7 18 20 23 31 6z m-5547 -268 c34 -26
21 -63 -45 -128 -41 -40 -63 -54 -83 -54 -51 0 -90 77 -57 112 6 8 17 23 23
33 11 20 83 52 119 54 11 0 30 -7 43 -17z m1027 8 c-3 -5 -11 -10 -16 -10 -6
0 -7 5 -4 10 3 6 11 10 16 10 6 0 7 -4 4 -10z m1031 -20 c27 0 14 -19 -18 -28
-42 -11 -45 -9 -23 25 11 16 20 23 23 15 2 -6 10 -12 18 -12z m2045 -181 c115
-58 178 -206 150 -356 -7 -38 -17 -86 -24 -108 l-11 -39 -7 34 c-5 23 -3 37 4
42 8 5 9 10 2 16 -7 4 -9 41 -5 97 8 144 -17 206 -107 263 -79 49 -99 50 -220
4 -53 -20 -68 -17 -57 11 5 15 96 52 144 59 39 6 91 -3 131 -23z m-607 -222
c16 -11 18 -24 14 -78 -4 -63 -3 -65 26 -79 42 -22 65 -90 59 -177 -5 -59 -10
-73 -36 -100 -17 -18 -37 -33 -44 -33 -8 0 -16 -7 -19 -15 -11 -28 -20 -15
-16 23 3 29 -1 40 -17 49 -18 11 -23 7 -56 -37 -20 -27 -35 -57 -34 -67 3 -25
-11 -53 -26 -53 -27 0 -28 230 -2 392 16 95 17 98 64 142 52 50 60 53 87 33z
m540 2 c25 -12 25 -15 28 -123 3 -104 4 -112 26 -121 18 -8 22 -18 22 -57 0
-26 4 -49 9 -52 13 -8 2 -74 -18 -106 -33 -56 -57 -86 -98 -130 -24 -25 -43
-50 -43 -56 0 -6 -16 -28 -35 -50 -19 -21 -35 -42 -35 -46 0 -4 -24 -21 -54
-38 -29 -17 -67 -43 -83 -58 -46 -42 -69 -52 -138 -59 -52 -5 -75 -2 -125 17
-69 26 -93 53 -88 102 l3 33 75 0 c41 0 91 -6 110 -13 105 -41 122 -38 118 21
l-3 41 -92 1 c-95 0 -133 14 -133 49 0 8 -3 21 -6 29 -4 11 2 16 17 19 18 2
25 12 32 43 5 26 19 48 38 64 29 23 31 23 77 8 41 -14 50 -14 70 -1 24 16 27
37 13 96 -9 38 -9 38 31 50 39 12 42 11 64 -18 27 -33 31 -80 9 -104 -9 -10
-20 -31 -25 -49 -13 -47 7 -40 66 23 42 44 53 63 62 111 7 32 12 83 12 112 0
51 -3 56 -46 98 -25 25 -51 45 -57 45 -14 0 -87 50 -87 60 0 4 24 5 53 2 39
-3 58 0 68 11 23 22 91 56 116 57 12 0 33 -5 47 -11z m1251 -54 c6 -1 18 -5
28 -10 9 -4 26 -5 37 -2 13 3 20 0 20 -9 0 -8 -5 -14 -11 -14 -6 0 -9 -9 -6
-20 5 -18 -37 -84 -63 -100 -18 -11 -87 -2 -118 16 -25 14 -32 24 -29 41 2 12
0 24 -5 25 -4 2 -1 22 9 46 l16 43 56 -7 c31 -4 61 -8 66 -9z m-470 -96 c0
-17 6 -24 20 -24 27 -1 46 -14 43 -28 -4 -16 40 -77 54 -74 15 3 18 -52 6 -86
-13 -33 -4 -46 44 -61 31 -11 33 -14 35 -66 5 -137 9 -159 29 -177 21 -19 21
-48 -2 -74 -8 -8 -17 -31 -20 -50 -10 -47 -48 -83 -75 -69 -10 6 -19 15 -19
21 0 6 -8 8 -18 5 -10 -4 -26 2 -38 12 -10 10 -34 24 -51 31 -27 11 -33 19
-33 43 0 22 -10 38 -36 61 -20 18 -45 51 -55 75 -16 34 -25 42 -42 40 -16 -2
-23 3 -25 20 -2 13 -10 22 -21 22 -9 0 -32 15 -50 34 -31 32 -33 38 -27 80 4
25 14 53 22 61 14 14 11 19 -8 16 -16 -2 -7 17 10 24 16 6 16 8 -3 22 -20 15
-20 15 3 8 14 -4 22 -2 22 6 0 7 7 20 16 30 8 9 16 23 17 31 2 7 5 13 9 13 3
0 15 8 26 18 15 14 29 17 51 12 27 -6 31 -4 31 14 0 12 5 21 10 21 6 0 10 -9
10 -20 0 -15 6 -20 28 -19 l27 0 -24 10 c-23 9 -23 10 -6 29 23 26 39 21 40
-11z m-4721 -111 c35 -9 47 -19 60 -45 24 -51 21 -108 -8 -130 -66 -52 -170
-51 -194 2 -15 33 -15 90 -1 118 15 30 60 67 81 67 10 0 38 -5 62 -12z m-369
-50 c30 -36 31 -75 1 -138 -48 -102 -71 -125 -116 -115 -47 10 -65 46 -61 124
3 74 26 122 69 146 45 24 77 19 107 -17z m1223 -114 c28 -8 28 -28 0 -48 -25
-18 -42 -21 -33 -6 3 6 1 10 -4 10 -6 0 -11 11 -11 25 0 26 9 29 48 19z
m-2304 -109 c20 -10 49 -36 66 -58 61 -83 33 -202 -66 -278 -29 -22 -64 -55
-78 -74 -29 -37 -99 -75 -140 -75 -17 0 -38 11 -56 28 -42 43 -49 116 -20 229
39 153 60 193 125 235 36 23 112 20 169 -7z m2396 -121 c32 4 51 3 56 -5 9
-15 -14 -29 -51 -29 -17 0 -36 -5 -42 -11 -9 -9 -16 -8 -28 5 -9 9 -30 16 -46
16 -22 0 -36 -9 -59 -42 -34 -46 -37 -42 -14 25 14 40 19 46 47 49 18 2 45 -1
60 -6 16 -4 50 -6 77 -2z m311 -55 c25 -25 23 -29 -13 -22 -19 4 -28 12 -28
24 0 25 15 24 41 -2z m1138 -121 c-13 -5 -26 -10 -29 -11 -3 -1 -6 3 -8 8 -4
11 38 25 52 17 5 -3 -1 -9 -15 -14z m-1209 -58 c126 -15 140 -19 140 -40 0
-20 63 -40 129 -40 22 0 43 -4 46 -10 3 -5 15 -10 26 -10 10 0 19 -4 19 -10 0
-5 6 -10 14 -10 8 0 16 -7 20 -15 3 -8 15 -15 26 -15 20 0 27 -14 11 -24 -5
-3 -12 -22 -15 -41 -5 -25 -12 -35 -26 -35 -10 0 -25 -7 -33 -15 -28 -27 -63
-28 -98 -3 -19 12 -42 33 -52 46 -10 12 -27 22 -38 22 -17 0 -18 3 -8 21 6 12
7 19 1 16 -5 -4 -26 2 -47 13 -21 11 -47 18 -59 17 -16 -2 -20 3 -19 21 2 12
-2 22 -7 22 -6 0 -10 -5 -10 -11 0 -6 -7 -9 -15 -5 -28 10 -165 -13 -253 -44
-48 -17 -102 -31 -121 -30 -33 1 -33 0 -27 -34 4 -20 2 -37 -4 -41 -11 -7 -3
-50 16 -80 17 -28 22 -97 6 -103 -6 -2 -12 4 -12 13 0 21 -30 117 -42 132 -5
7 -8 22 -7 35 2 13 -6 38 -19 55 -16 23 -22 45 -22 85 1 51 1 52 15 28 8 -14
14 -33 15 -42 0 -35 17 -17 23 24 4 28 15 51 36 72 28 28 39 32 109 37 130 10
194 9 282 -1z m2439 -414 c-9 -8 -10 -7 -5 7 3 10 7 26 7 35 1 9 4 6 6 -7 3
-13 -1 -28 -8 -35z m28 32 c-3 -8 -6 -5 -6 6 -1 11 2 17 5 13 3 -3 4 -12 1
-19z m3 -57 c0 -4 -6 -8 -14 -8 -8 0 -12 6 -9 14 5 13 23 9 23 -6z m1442 -3
c53 -30 97 -103 100 -165 5 -137 2 -147 -58 -212 -30 -33 -65 -63 -77 -67 -12
-3 -33 -16 -47 -29 -40 -36 -65 -45 -132 -46 -58 -2 -116 8 -178 31 -14 5 -42
12 -64 15 -52 7 -103 32 -108 53 -3 9 -3 41 -1 69 3 63 35 119 90 160 21 15
63 53 95 83 31 30 62 60 70 65 28 23 100 55 109 50 5 -4 17 -1 26 4 33 19 132
13 175 -11z m-1489 -13 c-3 -9 -8 -14 -10 -11 -3 3 -2 9 2 15 9 16 15 13 8 -4z
m-2264 -74 c11 -7 11 -12 -2 -31 -28 -40 -97 -65 -97 -35 0 17 -26 20 -35 4
-5 -6 -12 -4 -20 8 -9 12 -10 22 -3 30 5 7 7 17 3 23 -8 13 134 14 154 1z
m2846 -404 c11 -8 52 -27 90 -43 39 -16 94 -43 124 -61 30 -18 59 -33 64 -33
5 0 32 -15 60 -34 29 -19 66 -40 82 -47 17 -7 58 -33 93 -58 77 -56 134 -137
163 -232 13 -42 36 -88 59 -116 20 -27 47 -66 58 -88 11 -22 50 -66 86 -98 36
-32 66 -64 66 -71 0 -7 9 -25 20 -39 35 -44 27 -54 -39 -49 -42 3 -69 -1 -95
-13 -20 -10 -51 -21 -69 -24 -18 -4 -33 -13 -33 -21 -1 -8 -2 -22 -3 -31 -2
-24 -49 -43 -69 -27 -13 11 -14 10 -9 -14 8 -31 -5 -44 -23 -23 -19 23 -31 18
-24 -10 4 -15 2 -25 -5 -25 -6 0 -11 5 -11 10 0 6 -7 10 -15 10 -8 0 -15 5
-15 10 0 6 -7 10 -16 10 -11 0 -14 -5 -10 -16 3 -9 6 -21 6 -28 0 -7 18 -20
40 -30 22 -10 40 -22 40 -26 0 -11 55 -2 83 12 10 5 15 13 12 17 -2 5 8 17 23
27 15 10 44 35 65 56 54 54 70 61 90 37 9 -10 27 -19 40 -19 32 0 88 -19 107
-36 12 -12 11 -14 -8 -14 -29 0 -28 -13 6 -52 57 -66 119 -167 132 -214 7 -27
21 -55 29 -61 49 -39 105 -70 180 -100 47 -18 94 -39 105 -47 12 -7 57 -29
101 -48 44 -20 118 -57 165 -83 104 -58 158 -86 230 -117 57 -25 246 -136 290
-170 14 -11 53 -47 88 -80 46 -44 62 -67 60 -83 -2 -16 13 -36 54 -74 75 -68
96 -104 113 -193 8 -40 17 -85 21 -100 4 -17 2 -28 -4 -28 -5 0 -13 15 -16 33
-3 17 -18 46 -32 62 -19 23 -24 25 -20 10 33 -132 33 -155 -5 -135 -26 14 -53
5 -45 -15 4 -11 -2 -15 -24 -15 -17 0 -30 5 -30 13 0 8 -3 8 -9 -2 -8 -12 -11
-12 -24 0 -8 8 -29 25 -46 39 -17 14 -31 30 -31 37 0 7 -4 13 -10 13 -5 0 -10
7 -10 15 0 18 -56 23 -117 9 -16 -3 -23 0 -23 10 0 14 -35 32 -52 28 -4 -1
-12 7 -18 19 -7 12 -20 20 -33 19 -39 -4 -46 0 -63 25 -16 24 -15 27 21 80 21
30 42 55 47 55 4 0 8 6 8 14 0 8 21 32 48 54 26 22 45 42 42 45 -3 3 -17 8
-31 12 -21 5 -27 2 -32 -14 -3 -12 -13 -24 -23 -28 -10 -3 -26 -15 -36 -25
-10 -10 -25 -18 -34 -18 -10 0 -14 -6 -11 -14 4 -10 1 -13 -9 -9 -8 3 -14 2
-13 -3 4 -24 -5 -35 -52 -58 -61 -31 -79 -32 -86 -7 -3 12 -17 23 -34 26 -24
6 -28 9 -18 21 9 11 7 15 -7 21 -11 4 -25 13 -32 20 -18 18 -72 17 -72 -1 0
-8 -15 -16 -37 -19 -60 -8 -98 -4 -98 12 0 23 -22 24 -38 1 -11 -16 -17 -18
-23 -9 -4 7 -2 15 4 17 21 7 13 31 -13 38 -18 4 -32 1 -46 -12 -16 -14 -20
-15 -17 -4 3 16 -29 22 -106 20 -22 0 -43 5 -48 12 -6 8 -7 4 -3 -11 7 -24
-10 -45 -29 -34 -5 4 -28 7 -50 7 -35 1 -41 4 -38 21 2 11 5 30 5 43 1 12 6
22 10 22 5 0 5 5 1 11 -3 6 -1 15 6 19 25 15 2 40 -37 40 -28 0 -34 3 -25 12
8 8 9 15 1 25 -9 10 -4 13 25 13 20 0 36 5 36 10 0 6 0 13 0 17 0 3 -17 6 -37
6 -21 0 -46 4 -55 9 -14 7 -16 5 -11 -9 3 -10 13 -26 20 -35 18 -20 8 -57 -15
-59 -9 -1 -35 -1 -57 1 l-40 2 22 -21 c12 -12 29 -21 36 -21 23 0 30 -43 9
-58 -21 -16 -61 -9 -122 21 -33 16 -62 22 -108 21 l-63 -1 6 28 c8 37 -13 69
-46 69 -15 0 -29 -7 -33 -15 -3 -8 -10 -15 -16 -15 -6 0 -8 5 -4 11 4 8 -1 9
-17 4 -20 -6 -22 -5 -11 6 18 19 16 50 -4 42 -9 -3 -20 0 -24 8 -7 11 -13 11
-33 0 -25 -13 -52 -7 -42 9 3 4 21 11 40 14 30 6 35 10 30 27 -4 13 -1 21 12
25 10 3 25 9 33 12 8 3 35 6 60 7 25 1 53 5 62 9 10 5 76 6 148 4 71 -2 130
-1 130 3 0 4 10 11 23 15 19 6 14 10 -33 25 -67 22 -70 23 -70 5 0 -32 -67
-35 -80 -3 -6 15 -9 17 -9 6 -1 -21 -31 -33 -45 -19 -7 7 -6 10 2 10 7 0 12 5
12 11 0 5 -5 7 -10 4 -6 -4 -19 -1 -28 7 -15 12 -16 11 -3 -5 15 -19 9 -33 -9
-22 -7 4 -10 20 -8 36 4 23 1 28 -11 24 -9 -2 -38 -9 -66 -14 -44 -8 -48 -8
-30 5 10 8 27 12 37 8 10 -3 18 -1 18 5 0 10 -33 16 -72 13 -10 -1 -18 3 -18
8 0 6 5 10 11 10 5 0 7 4 4 10 -3 6 -15 1 -28 -11 -12 -11 -23 -15 -25 -9 -2
5 -15 10 -28 10 -15 0 -24 6 -24 15 0 8 -6 15 -14 15 -15 0 -15 -25 -1 -53 4
-6 -1 -3 -9 7 -19 24 -21 56 -3 57 6 0 2 4 -11 10 -23 9 -22 29 1 29 7 0 20 9
30 20 14 17 14 20 2 20 -8 0 -15 4 -15 9 0 16 20 23 34 12 16 -13 26 -4 26 22
0 25 37 55 80 63 19 4 40 13 48 20 7 7 29 16 50 20 20 3 73 15 117 26 73 18
190 25 269 16 47 -5 41 18 -11 42 -37 17 -51 20 -65 11 -28 -17 -98 -14 -98 4
0 11 7 14 28 10 l27 -5 -28 12 c-15 7 -30 21 -33 33 -6 23 -35 38 -114 55 -30
7 -59 15 -65 18 -5 4 -25 5 -43 3 -18 -1 -39 3 -47 9 -11 9 -16 7 -25 -9 -15
-29 -27 -26 -27 5 0 37 -21 54 -38 30 -8 -10 -19 -15 -25 -11 -6 4 -17 1 -25
-5 -12 -10 -22 -4 -55 31 -45 49 -43 44 -30 69 9 16 5 22 -25 36 -22 10 -45
14 -63 10 -15 -4 -33 -7 -39 -8 -8 -1 -13 -16 -13 -37 0 -49 -12 -66 -36 -53
-11 6 -27 13 -36 16 -21 6 -24 26 -4 26 19 0 30 32 14 42 -8 5 -19 0 -31 -13
-30 -37 -27 -16 5 34 25 38 33 45 45 36 19 -16 27 -5 13 20 -6 12 -7 21 -2 21
6 0 24 29 42 64 17 35 39 66 50 69 10 2 21 18 25 35 3 16 15 38 26 48 11 10
19 30 19 50 0 18 5 36 10 39 6 4 8 11 5 16 -14 21 7 48 41 55 44 8 54 24 16
24 -32 0 -58 22 -47 40 4 6 13 9 21 6 17 -7 18 16 2 32 -9 9 -8 12 8 12 12 0
26 14 36 36 16 30 16 35 3 40 -10 4 -13 14 -9 30 4 14 2 24 -4 24 -6 0 -12 10
-14 23 -2 17 -9 22 -31 20 -20 -1 -27 2 -24 11 7 18 -12 36 -37 36 -30 1 -57
25 -50 43 6 17 -15 30 -68 41 -19 4 -28 13 -28 25 0 29 -24 47 -71 55 -49 8
-58 3 -37 -21 18 -21 58 -148 58 -185 0 -14 -6 -31 -14 -37 -7 -6 -17 -30 -20
-53 -4 -23 -12 -49 -19 -57 -10 -12 -9 -14 6 -8 21 8 21 3 2 -31 -14 -26 -60
-161 -86 -253 -7 -27 -18 -45 -24 -43 -6 3 -20 -4 -30 -16 -10 -11 -24 -20
-32 -20 -7 0 -13 -5 -13 -11 0 -8 12 -10 34 -6 27 4 40 1 60 -18 16 -14 28
-19 34 -13 6 6 12 6 17 -1 9 -15 -24 -26 -38 -12 -12 12 -46 15 -71 5 -22 -9
-10 -23 14 -17 36 9 20 -24 -53 -111 -27 -33 -54 -70 -59 -82 -6 -13 -15 -21
-19 -18 -5 3 -6 -1 -4 -8 6 -16 -71 -178 -85 -178 -6 0 -6 9 0 24 5 13 6 26 4
29 -3 3 -1 13 4 24 46 89 60 114 86 153 17 25 39 62 49 83 17 38 17 40 -4 76
l-21 37 23 45 c13 24 28 47 35 51 6 4 15 19 18 34 4 14 15 35 25 46 11 11 21
32 24 46 3 15 20 68 38 117 44 123 50 166 33 250 -7 39 -16 81 -20 94 -6 21
-4 22 16 16 16 -5 21 -4 18 6 -3 8 -14 15 -26 17 -11 2 -26 10 -32 18 -15 17
-40 19 -40 2 1 -7 7 -40 15 -73 8 -33 14 -78 14 -100 l-1 -40 -12 45 c-18 64
-41 55 -86 -34 -14 -27 -43 -69 -66 -93 -22 -24 -36 -43 -30 -43 14 -1 -46
-50 -60 -50 -6 0 -19 -10 -27 -22 -11 -16 -16 -18 -16 -8 0 17 12 37 80 137
26 37 56 89 67 115 39 90 52 255 27 336 -9 26 9 30 40 9z m-3324 -330 c-5 -12
-18 -43 -29 -67 -10 -25 -25 -58 -32 -75 -7 -16 -12 -38 -11 -47 1 -9 -6 -21
-17 -27 -23 -12 -91 -8 -120 8 -29 16 -45 6 -32 -19 8 -16 21 -19 70 -17 35 1
65 -4 72 -11 14 -14 10 -19 -16 -24 -11 -1 -30 -13 -43 -26 -16 -16 -30 -21
-43 -17 -11 4 -20 2 -20 -4 0 -6 19 -11 41 -11 36 0 40 -2 29 -15 -11 -13 -8
-21 20 -50 19 -19 41 -37 51 -40 21 -7 34 -54 20 -68 -19 -19 -12 -46 13 -53
17 -4 26 -14 28 -32 2 -16 12 -31 26 -37 12 -5 22 -17 22 -26 0 -9 7 -22 15
-29 12 -10 13 -16 5 -24 -7 -7 -13 -7 -18 -1 -4 6 -14 15 -23 20 -39 24 -138
111 -138 122 -1 19 -22 27 -32 12 -5 -8 -9 -27 -9 -42 0 -23 -3 -27 -19 -22
-14 4 -25 -2 -39 -22 -10 -15 -17 -33 -15 -40 5 -13 34 -6 44 10 4 5 12 8 18
6 7 -3 -4 -21 -24 -42 -40 -43 -42 -51 -16 -94 l20 -31 -25 -6 c-14 -4 -22
-11 -19 -16 9 -15 -21 -12 -34 4 -19 22 -82 28 -103 9 -22 -19 -31 -13 -32 24
-1 21 -7 29 -24 31 -13 2 -26 10 -29 18 -3 8 -11 14 -17 14 -7 0 -26 13 -42
30 -36 36 -52 38 -64 5 -9 -24 -40 -36 -40 -15 0 6 -6 10 -14 10 -17 0 -27 24
-19 48 11 31 36 52 62 52 37 0 95 74 86 109 -5 20 -4 22 8 13 10 -9 18 -8 34
3 34 24 177 95 191 95 8 0 12 6 9 13 -2 6 -11 10 -18 8 -86 -24 -149 -25 -149
-1 0 16 41 22 70 10 27 -11 31 -10 55 16 16 19 23 36 19 49 -3 11 -8 41 -11
66 -5 42 -3 48 23 68 24 19 39 22 89 19 51 -3 61 0 70 17 53 101 153 214 126
142z m3469 -77 c0 -5 -4 -10 -10 -10 -5 0 -10 5 -10 10 0 6 5 10 10 10 6 0 10
-4 10 -10z m-309 -37 c-12 -20 -14 -14 -5 12 4 9 9 14 11 11 3 -2 0 -13 -6
-23z m-106 -172 c-3 -6 -14 -11 -23 -11 -13 0 -13 2 4 14 21 15 30 14 19 -3z
m-41 -56 c-4 -8 -10 -15 -15 -15 -5 0 -9 7 -9 15 0 8 7 15 15 15 9 0 12 -6 9
-15z m46 -4 c0 -5 -7 -12 -16 -15 -14 -5 -15 -4 -4 9 14 17 20 19 20 6z m-81
-24 c15 -19 2 -29 -15 -12 -8 7 -14 16 -14 19 0 11 17 6 29 -7z m-31 -36 c3
-8 -1 -12 -9 -9 -7 2 -15 10 -17 17 -3 8 1 12 9 9 7 -2 15 -10 17 -17z m-3532
-17 c25 -20 34 -34 34 -56 0 -30 -1 -30 -40 -24 -36 6 -40 4 -40 -14 0 -17 -3
-19 -19 -10 -40 21 -76 9 -51 -16 16 -16 0 -46 -20 -41 -20 5 -50 -9 -50 -24
0 -6 10 -20 23 -31 15 -13 18 -21 10 -24 -7 -3 -13 -17 -13 -32 0 -14 -8 -34
-17 -45 -18 -20 -17 -20 34 -13 56 7 74 -4 52 -31 -12 -14 -10 -15 18 -9 27 6
37 3 59 -19 22 -22 34 -26 63 -23 55 7 98 -9 127 -47 17 -23 35 -35 50 -35 13
0 41 -9 61 -20 21 -11 45 -20 54 -20 10 0 36 -16 59 -35 40 -33 67 -48 42 -23
-16 16 -15 28 1 28 7 0 30 -22 52 -50 22 -27 42 -50 45 -50 3 0 19 -11 35 -24
l30 -24 -27 -13 c-16 -7 -28 -18 -28 -25 0 -27 -48 -26 -114 0 -35 14 -72 26
-80 26 -9 0 -16 3 -16 8 0 9 -45 32 -125 62 -33 13 -100 42 -150 65 -49 24
-108 48 -130 55 -22 7 -48 16 -57 21 -10 5 -32 9 -49 9 -45 0 -88 24 -140 77
-55 56 -71 103 -58 163 23 100 79 162 201 220 37 18 74 40 84 51 23 26 49 24
90 -7z m3509 -4 c4 -6 11 -8 16 -5 24 15 5 -20 -27 -50 -20 -19 -33 -38 -30
-43 3 -6 -1 -15 -9 -22 -8 -7 -15 -19 -15 -26 0 -8 -4 -14 -8 -14 -5 0 -14
-11 -20 -24 -19 -43 -45 -66 -67 -60 -14 3 -28 -3 -45 -20 -28 -31 -72 -36
-65 -8 3 9 -2 2 -10 -15 -8 -18 -18 -34 -23 -34 -39 -7 -52 -5 -52 9 0 24 -21
0 -23 -27 -1 -24 -8 -26 -25 -9 -8 8 -15 8 -27 -2 -10 -8 -15 -9 -15 -1 0 6
11 13 25 17 35 9 52 32 29 41 -16 6 -16 7 2 13 10 4 22 2 26 -4 5 -7 8 -4 8 7
0 9 -6 17 -12 18 -10 0 -10 2 0 6 6 2 12 9 12 15 0 10 54 68 65 68 10 0 115
82 115 90 0 4 17 11 38 15 20 4 47 16 60 28 19 18 22 18 22 4 0 -9 -7 -17 -15
-17 -8 0 -15 -4 -15 -9 0 -11 53 -1 62 13 15 22 8 36 -18 36 -14 0 -23 4 -19
10 8 13 52 13 60 0z m-25 -170 c0 -5 -4 -10 -10 -10 -5 0 -10 5 -10 10 0 6 5
10 10 10 6 0 10 -4 10 -10z m-2997 -180 c5 -4 1 -10 -7 -13 -8 -3 -18 -2 -21
3 -4 6 -23 10 -43 11 -29 0 -33 2 -17 9 21 8 74 2 88 -10z m2827 0 c0 -5 -7
-10 -16 -10 -8 0 -12 5 -9 10 3 6 10 10 16 10 5 0 9 -4 9 -10z m-2780 -80 c-6
-12 -14 -19 -17 -16 -4 3 0 18 8 32 7 14 15 21 17 15 2 -5 -2 -20 -8 -31z
m3760 15 c0 -7 7 -18 15 -22 14 -8 14 -11 0 -28 -15 -20 -15 -20 -30 -1 -8 11
-15 30 -15 43 0 14 6 23 15 23 8 0 15 -7 15 -15z m-3625 -16 c-3 -5 1 -6 9 -3
19 7 21 -7 4 -24 -20 -20 -28 -14 -28 19 0 18 4 28 10 24 6 -4 8 -11 5 -16z
m2715 17 c0 -3 -4 -8 -10 -11 -5 -3 -10 -1 -10 4 0 6 5 11 10 11 6 0 10 -2 10
-4z m-120 -26 c0 -5 -4 -10 -10 -10 -5 0 -10 5 -10 10 0 6 5 10 10 10 6 0 10
-4 10 -10z m870 -30 c0 -5 -4 -10 -10 -10 -20 0 -9 -21 16 -30 14 -6 23 -14
19 -19 -3 -6 -16 -4 -32 4 -47 25 -59 65 -18 65 14 0 25 -4 25 -10z m-805 -10
c3 -5 1 -10 -4 -10 -6 0 -11 5 -11 10 0 6 2 10 4 10 3 0 8 -4 11 -10z m1046 0
c10 -6 19 -20 19 -31 0 -16 -5 -20 -27 -17 -21 2 -27 9 -28 31 -1 29 6 33 36
17z m-1095 -59 c-4 -6 -16 -11 -27 -11 -15 0 -19 -5 -14 -19 3 -11 -1 -26 -10
-35 -9 -9 -14 -20 -11 -25 10 -15 -22 -33 -45 -26 -19 6 -21 4 -16 -14 6 -24
-8 -29 -17 -6 -3 8 -17 15 -31 15 -14 0 -28 7 -32 15 -7 21 0 27 34 29 15 1
33 5 40 9 6 4 13 2 15 -5 3 -7 12 -9 24 -4 17 7 17 8 2 17 -13 7 -14 13 -5 34
7 14 18 23 24 20 7 -2 21 7 30 20 15 20 20 21 32 10 7 -7 10 -18 7 -24z m804
-18 c-23 -16 -65 0 -54 20 21 36 27 38 50 16 23 -22 23 -22 4 -36z m401 -5
c17 -32 5 -30 -19 2 -16 21 -18 28 -7 24 9 -4 20 -15 26 -26z m-4766 -9 c5
-14 0 -28 -16 -45 l-22 -24 21 0 c12 0 22 -4 22 -10 0 -5 16 -10 35 -10 42 0
47 -15 8 -23 -16 -3 -39 -16 -53 -29 -13 -13 -28 -22 -32 -20 -5 1 -8 -2 -8
-7 0 -5 -11 -8 -24 -8 -22 0 -23 2 -13 19 7 10 25 22 41 26 31 8 48 32 23 32
-27 0 -157 -72 -157 -87 0 -10 -7 -14 -20 -10 -13 3 -20 0 -20 -9 0 -8 -9 -14
-21 -14 -39 0 -13 -25 29 -28 39 -3 42 -1 42 22 0 14 5 26 11 26 5 0 9 -10 7
-22 -3 -20 2 -23 49 -29 108 -14 121 -26 136 -122 5 -31 3 -36 -7 -28 -19 16
-59 -42 -50 -72 9 -28 8 -30 -13 -33 -31 -5 -63 7 -63 24 0 8 -2 13 -5 10 -10
-9 8 -68 20 -68 7 0 19 -7 26 -16 12 -15 14 -14 19 7 3 13 12 24 20 25 16 0
30 6 95 34 59 26 90 31 121 20 21 -8 29 -7 39 6 7 10 19 15 28 11 9 -3 18 -1
20 6 3 9 7 9 17 0 9 -8 20 -9 39 -1 14 6 43 11 64 13 35 2 40 -1 49 -26 9 -25
14 -28 51 -26 23 1 54 -2 70 -7 23 -7 27 -5 27 13 0 27 8 27 36 -4 13 -14 30
-25 39 -25 8 0 15 -9 15 -19 0 -26 30 -35 45 -14 11 15 15 15 49 -7 23 -14 35
-28 32 -36 -3 -8 -1 -14 4 -14 6 0 10 5 10 10 0 6 8 10 17 10 13 0 14 -3 6
-11 -6 -6 -9 -18 -6 -25 3 -10 -3 -14 -19 -14 -13 0 -28 -4 -33 -9 -6 -4 -22
-11 -37 -15 -22 -5 -28 -3 -28 10 0 14 -3 14 -16 4 -8 -8 -36 -15 -62 -16 -26
-2 -72 -7 -102 -11 -53 -8 -55 -9 -58 -40 -4 -39 -17 -43 -26 -9 -4 17 -15 25
-40 30 -32 6 -44 5 -83 -11 -10 -3 -29 -8 -42 -9 -13 -2 -32 -11 -42 -20 -12
-11 -19 -13 -19 -5 0 9 -5 9 -20 1 -11 -6 -47 -12 -80 -14 -36 -2 -67 -9 -78
-18 -9 -9 -38 -19 -64 -22 -45 -7 -48 -6 -62 23 -18 35 -20 45 -6 36 6 -3 10
4 10 16 0 18 -2 19 -15 9 -13 -10 -15 -9 -15 10 0 20 -3 22 -37 15 -20 -3 -53
-20 -72 -36 -36 -29 -61 -37 -61 -19 0 6 6 10 13 10 13 1 83 90 79 103 -1 4 2
17 8 27 8 15 8 20 -2 20 -14 0 -78 -73 -78 -88 0 -14 -33 -8 -38 6 -2 7 -11
12 -19 12 -15 0 -14 -14 3 -72 4 -14 0 -18 -18 -17 -21 0 -21 1 -4 8 18 7 18
8 2 14 -10 4 -14 12 -10 18 4 7 3 9 -4 5 -5 -3 -12 0 -15 6 -2 7 -8 9 -13 5
-5 -4 -4 -11 2 -15 13 -9 12 -61 -1 -56 -6 3 -15 14 -20 27 -12 26 -55 37 -55
13 0 -9 -8 -16 -20 -16 -13 0 -20 7 -20 20 0 22 -10 26 -27 9 -21 -21 -62 -1
-78 37 -8 19 -19 33 -24 29 -6 -3 -8 -11 -6 -18 14 -40 -97 -94 -123 -59 -12
15 -13 15 -18 -6 -7 -26 -21 -28 -46 -5 -17 15 -19 15 -33 -3 -8 -10 -15 -14
-15 -7 0 7 11 25 24 40 24 27 25 27 19 4 -5 -18 -3 -22 8 -17 8 3 22 9 32 12
11 4 17 17 17 38 0 17 4 38 9 46 21 32 -2 26 -41 -11 -23 -21 -45 -39 -49 -39
-13 0 -102 -63 -126 -88 -15 -16 -28 -22 -42 -17 -10 3 -22 1 -26 -5 -13 -21
-25 -9 -19 17 11 43 114 211 140 228 13 8 43 41 66 73 55 74 55 74 173 133
103 52 273 149 361 206 69 45 235 123 261 123 13 0 24 -8 28 -21z m4318 -31
c-13 -6 -23 -17 -23 -24 0 -7 -9 -18 -20 -24 -11 -6 -20 -17 -20 -25 0 -16 -9
-18 -35 -8 -15 5 -10 13 26 49 29 28 53 43 69 43 l25 0 -22 -11z m-954 -88 c6
-22 16 -40 21 -40 6 0 10 -4 10 -10 0 -5 -9 -10 -19 -10 -23 0 -39 -49 -19
-61 10 -7 9 -9 -3 -9 -9 0 -24 -9 -35 -21 -13 -14 -25 -18 -43 -14 -21 5 -23
4 -12 -9 10 -12 8 -15 -11 -18 -17 -2 -22 -9 -21 -26 2 -12 -2 -22 -7 -22 -6
0 -10 9 -10 21 0 14 -5 19 -17 17 -10 -2 -17 -10 -15 -16 1 -7 -2 -12 -8 -12
-14 0 -12 42 4 63 7 9 21 17 30 17 9 0 16 5 16 10 0 6 10 10 21 10 19 0 20 2
8 16 -11 14 -10 18 5 30 10 7 16 20 13 28 -3 8 -3 17 0 20 10 10 33 -15 33
-35 0 -10 4 -20 10 -24 14 -9 7 58 -8 70 -10 8 -10 15 0 37 19 40 43 35 57
-12z m636 -50 c-3 -5 -21 -10 -38 -9 -27 0 -29 2 -12 9 28 12 57 12 50 0z
m195 6 c0 -9 -30 -14 -35 -6 -4 6 3 10 14 10 12 0 21 -2 21 -4z m-4084 -91
c-11 -43 -76 -55 -76 -14 0 18 10 23 36 20 6 -1 17 6 24 14 17 21 24 12 16
-20z m3814 27 c0 -16 -25 -32 -51 -32 -15 0 -29 -7 -33 -15 -9 -23 -28 -18
-24 8 2 14 11 23 26 25 12 2 22 8 22 13 0 5 14 9 30 9 17 0 30 -4 30 -8z m168
1 c-10 -2 -26 -2 -35 0 -10 3 -2 5 17 5 19 0 27 -2 18 -5z m-948 -13 c0 -5 -5
-10 -11 -10 -5 0 -7 5 -4 10 3 6 8 10 11 10 2 0 4 -4 4 -10z m878 -55 c9 -20
9 -25 -3 -25 -8 0 -19 -9 -25 -20 -12 -22 -58 -25 -72 -5 -5 6 -8 4 -8 -4 0
-8 8 -23 18 -34 16 -20 16 -20 -8 -14 -14 4 -30 7 -37 7 -14 0 -43 28 -43 41
0 5 5 8 12 7 7 -2 12 2 13 7 0 6 9 22 19 38 16 24 25 27 71 27 46 0 53 -3 63
-25z m622 -25 c0 -5 -2 -10 -4 -10 -3 0 -8 5 -11 10 -3 6 -1 10 4 10 6 0 11
-4 11 -10z m-1500 -10 c0 -5 -2 -10 -4 -10 -3 0 -8 5 -11 10 -3 6 -1 10 4 10
6 0 11 -4 11 -10z m-163 -34 c-4 -13 -47 -21 -47 -9 0 5 5 14 11 20 14 14 41
5 36 -11z m1653 -6 c0 -5 -9 -10 -20 -10 -11 0 -20 5 -20 10 0 6 9 10 20 10
11 0 20 -4 20 -10z m-25 -30 c3 -5 1 -10 -4 -10 -6 0 -11 5 -11 10 0 6 2 10 4
10 3 0 8 -4 11 -10z m-740 -20 c-27 -12 -35 -12 -35 0 0 6 12 10 28 9 24 0 25
-1 7 -9z m695 -10 c0 -5 -2 -10 -4 -10 -3 0 -8 5 -11 10 -3 6 -1 10 4 10 6 0
11 -4 11 -10z m-4073 -36 c-9 -9 -28 6 -21 18 4 6 10 6 17 -1 6 -6 8 -13 4
-17z m68 -4 c8 -13 -5 -13 -25 0 -13 8 -13 10 2 10 9 0 20 -4 23 -10z m4195
-10 c0 -5 -7 -7 -15 -4 -8 4 -15 8 -15 10 0 2 7 4 15 4 8 0 15 -4 15 -10z
m-2008 -14 c7 4 8 2 4 -4 -11 -18 -26 -14 -25 6 0 10 3 12 6 4 2 -6 10 -9 15
-6z m-2012 -16 c0 -5 -4 -10 -9 -10 -6 0 -13 5 -16 10 -3 6 1 10 9 10 9 0 16
-4 16 -10z m4111 -17 c27 -14 30 -18 15 -21 -10 -2 -28 5 -39 17 -26 25 -21
26 24 4z m305 -30 c-11 -11 -19 6 -11 24 8 17 8 17 12 0 3 -10 2 -21 -1 -24z
m-226 17 c0 -5 -2 -10 -4 -10 -3 0 -8 5 -11 10 -3 6 -1 10 4 10 6 0 11 -4 11
-10z m-4070 -10 c0 -5 -7 -10 -15 -10 -8 0 -15 5 -15 10 0 6 7 10 15 10 8 0
15 -4 15 -10z m3875 -61 c11 -17 0 -20 -21 -4 -17 13 -17 14 -2 15 9 0 20 -5
23 -11z m-15 -29 c0 -5 -7 -10 -15 -10 -8 0 -15 5 -15 10 0 6 7 10 15 10 8 0
15 -4 15 -10z m-55 -50 c-6 -9 -9 -9 -16 1 -10 17 0 34 13 21 6 -6 7 -16 3
-22z m-165 -40 c0 -5 -4 -10 -10 -10 -5 0 -10 5 -10 10 0 6 5 10 10 10 6 0 10
-4 10 -10z m-4200 -4 c0 -3 -4 -8 -10 -11 -5 -3 -10 -1 -10 4 0 6 5 11 10 11
6 0 10 -2 10 -4z m-1140 -16 c0 -5 -4 -10 -10 -10 -5 0 -10 5 -10 10 0 6 5 10
10 10 6 0 10 -4 10 -10z m5611 -20 c-7 -3 -9 -14 -5 -23 8 -21 -13 -22 -39 -3
-18 14 -10 27 23 38 19 7 36 -2 21 -12z m-336 0 c3 -5 -1 -10 -9 -10 -9 0 -16
5 -16 10 0 6 4 10 9 10 6 0 13 -4 16 -10z m-5302 -34 c5 -11 25 -14 92 -13 48
1 89 -1 91 -4 5 -9 111 -23 149 -20 45 3 198 -26 239 -45 49 -24 46 -37 -7
-29 -39 6 -45 4 -75 -27 -17 -18 -38 -41 -44 -50 -22 -28 -134 -29 -140 0 -3
14 -8 11 -32 -15 -16 -18 -35 -33 -42 -33 -7 0 -17 -7 -22 -16 -7 -12 -11 -13
-16 -5 -4 7 -3 18 3 25 6 7 8 16 5 19 -4 3 3 18 15 32 13 17 19 38 17 56 -2
16 0 26 4 24 4 -3 10 2 14 10 3 8 0 15 -7 15 -21 0 -35 -14 -42 -40 -3 -14
-22 -43 -41 -65 -30 -35 -34 -37 -34 -17 0 12 -4 22 -10 22 -5 0 -10 -9 -10
-20 0 -28 -61 -56 -73 -34 -5 8 -6 24 -3 37 3 12 3 16 0 10 -3 -7 -11 -13 -18
-13 -15 0 -79 -30 -86 -41 -3 -4 -17 -10 -31 -14 l-26 -6 10 56 c7 35 13 51
19 43 4 -8 8 -8 8 -2 0 6 -3 14 -7 18 -12 12 -10 134 3 129 6 -2 24 3 40 12
36 19 50 19 57 1z m4307 -20 c0 -3 -4 -8 -10 -11 -5 -3 -10 -1 -10 4 0 6 5 11
10 11 6 0 10 -2 10 -4z m-3453 -55 c23 -49 26 -109 9 -172 -11 -38 15 -43 47
-9 15 16 37 28 51 28 14 0 41 9 60 20 42 25 49 18 34 -32 -8 -25 -14 -32 -20
-24 -6 10 -8 10 -8 1 0 -7 -5 -13 -12 -13 -7 0 -25 -12 -40 -27 -23 -22 -31
-25 -37 -14 -7 11 -11 10 -19 -6 -16 -30 18 -47 55 -28 15 8 35 15 43 15 9 0
27 8 40 17 l25 17 -20 -23 c-11 -13 -51 -44 -89 -69 -38 -25 -83 -65 -99 -89
-32 -45 -51 -48 -41 -7 4 14 2 24 -5 24 -6 0 -11 -11 -11 -24 0 -14 -6 -31
-13 -38 -6 -7 -11 -29 -10 -48 6 -85 10 -116 18 -133 11 -27 -2 -64 -27 -70
-36 -10 -51 29 -23 57 17 16 20 42 6 50 -4 3 -15 -2 -24 -12 -16 -17 -17 -21
-17 -46 0 -9 -7 -12 -20 -9 -24 6 -27 23 -4 23 9 0 14 6 12 13 -3 6 -11 12
-19 12 -23 0 -23 45 0 66 18 17 21 17 29 3 5 -9 12 -12 15 -7 8 12 -2 24 -43
55 l-35 26 -26 -22 c-14 -12 -28 -30 -32 -39 -12 -30 -24 -18 -23 23 0 22 6
42 13 45 7 2 13 11 13 18 0 8 9 22 20 32 21 19 26 50 10 60 -5 3 -10 13 -10
20 0 11 8 13 33 8 17 -3 38 -10 45 -16 8 -6 12 -6 12 1 0 5 -11 17 -25 26 -14
9 -26 26 -26 39 -1 16 -3 17 -6 5 -5 -20 -70 -88 -84 -88 -5 0 -9 -7 -9 -15 0
-8 -5 -15 -11 -15 -6 0 -8 -9 -4 -22 6 -17 4 -20 -10 -14 -11 4 -22 0 -31 -11
-12 -16 -13 -12 -14 29 0 44 5 54 64 127 36 44 94 121 131 171 37 50 80 97 96
106 17 8 29 23 29 34 0 33 14 23 37 -29z m4993 39 c11 -7 7 -10 -17 -10 -18 0
-33 5 -33 10 0 13 30 13 50 0z m-1480 -8 c0 -13 -12 -22 -22 -16 -10 6 -1 24
13 24 5 0 9 -4 9 -8z m-290 -12 c0 -6 6 -10 13 -9 26 3 37 -2 48 -23 12 -22
11 -22 -8 -5 -24 21 -43 22 -43 1 0 -9 10 -18 21 -21 19 -5 21 -11 16 -53 -6
-48 4 -70 31 -70 7 0 12 6 9 13 -2 6 -11 11 -21 9 -23 -4 -20 13 6 30 20 13
21 18 9 32 -14 17 -9 46 9 46 6 0 13 -14 17 -30 7 -38 20 -47 28 -19 7 20 7
20 19 2 7 -10 16 -37 19 -61 6 -52 10 -57 34 -44 17 10 17 11 1 17 -22 9 -23
22 -3 41 8 9 15 11 15 5 0 -6 6 -11 14 -11 8 0 16 -7 20 -15 9 -26 27 -16 24
13 -2 19 -9 28 -25 30 -13 2 -23 10 -23 17 0 17 17 29 22 15 1 -5 13 -7 25 -4
13 4 20 11 16 20 -4 10 0 12 11 8 9 -3 16 -14 16 -24 0 -13 9 -20 28 -22 25
-3 27 -6 24 -39 -2 -21 1 -40 6 -43 6 -3 8 2 5 14 -4 14 0 20 11 20 9 0 16 7
16 15 0 18 9 19 33 1 19 -14 23 -36 7 -36 -5 0 -10 -9 -10 -20 0 -11 5 -20 10
-20 23 0 8 -25 -16 -27 -44 -2 -52 -21 -16 -34 18 -6 32 -15 32 -20 0 -5 -12
-4 -26 1 -32 13 -34 12 -34 -1 0 -12 -38 -49 -51 -49 -4 0 -10 14 -14 30 -4
17 -13 30 -21 30 -12 0 -12 -5 0 -35 14 -32 13 -35 -5 -40 -10 -4 -24 -15 -30
-26 -6 -11 -16 -18 -22 -16 -7 2 -17 -3 -24 -12 -10 -13 -14 -14 -25 -3 -11
11 -10 14 2 22 18 11 6 25 -15 17 -8 -4 -15 -18 -15 -34 0 -21 -7 -31 -27 -40
-31 -15 -46 -7 -21 11 16 11 16 15 2 34 -8 12 -23 22 -33 22 -9 0 -22 5 -28
11 -8 8 -13 5 -18 -11 -8 -26 2 -40 15 -20 7 11 10 5 10 -22 0 -34 -3 -38 -24
-38 -35 0 -56 -10 -56 -26 0 -17 17 -19 22 -2 2 6 10 9 16 7 24 -8 -28 -51
-54 -46 -14 2 -27 0 -30 -4 -8 -14 -24 -10 -24 5 0 12 -6 12 -32 -2 l-33 -17
33 -3 c40 -4 42 -18 4 -27 -37 -8 -86 10 -79 29 3 8 -1 20 -9 27 -11 9 -18 8
-34 -6 -24 -21 -26 -51 -6 -71 21 -21 32 3 12 25 -18 20 -20 31 -6 31 6 0 10
-7 10 -16 0 -9 9 -18 20 -21 11 -3 20 -12 20 -20 0 -20 -27 -46 -35 -33 -11
18 -26 10 -20 -10 5 -16 2 -20 -14 -20 -12 0 -21 5 -21 10 0 6 5 10 10 10 6 0
10 5 10 10 0 6 -7 10 -15 10 -15 0 -20 16 -16 58 2 27 -10 28 -33 3 -15 -16
-15 -22 -4 -40 9 -15 10 -23 1 -32 -20 -20 -43 -2 -43 31 0 20 -4 29 -11 25
-18 -12 -27 -49 -15 -64 9 -12 8 -13 -7 -8 -10 4 -23 7 -29 7 -6 0 -8 7 -4 15
9 24 -5 46 -28 44 -11 -2 -31 3 -44 9 -20 12 -23 10 -32 -14 -8 -20 -7 -30 1
-38 8 -8 13 -7 16 2 4 10 8 10 19 1 24 -20 17 -40 -11 -33 -20 5 -24 3 -19
-10 8 -22 51 -20 66 3 11 18 13 18 39 -10 26 -28 30 -59 7 -59 -5 0 -20 -11
-34 -24 -15 -13 -45 -29 -68 -37 -22 -7 -48 -21 -57 -31 -9 -10 -19 -18 -23
-18 -10 0 -143 -88 -151 -99 -3 -6 -15 -11 -26 -11 -10 0 -19 -4 -19 -10 0
-13 -34 -44 -68 -61 -15 -8 -32 -21 -39 -29 -10 -13 -13 -11 -22 10 -6 16 -10
19 -10 8 -1 -24 -40 -34 -59 -14 -14 13 -14 20 -4 36 16 26 15 33 -4 26 -8 -3
-24 -1 -35 5 -20 10 -20 10 -4 -15 9 -13 15 -36 13 -51 l-3 -25 -27 25 c-16
14 -28 21 -28 15 0 -5 -6 -10 -14 -10 -9 0 -12 7 -9 20 4 14 0 20 -11 20 -9 0
-16 5 -16 10 0 6 -9 10 -21 10 -11 0 -17 5 -14 10 4 6 11 8 16 4 5 -3 16 0 24
6 12 10 15 9 15 -9 0 -11 5 -21 10 -21 11 0 13 20 4 44 -3 9 -10 13 -15 10 -5
-3 -9 -1 -9 4 0 21 34 22 55 2 12 -11 30 -20 42 -20 16 0 19 5 15 25 -5 30 8
32 32 6 11 -12 25 -16 41 -13 19 3 27 -1 33 -17 7 -20 9 -20 27 -6 12 9 14 13
5 10 -10 -3 -22 6 -34 25 -10 18 -24 29 -31 26 -16 -6 -25 15 -25 55 0 31 9
36 28 17 9 -9 12 -7 12 10 0 13 6 22 15 22 8 0 15 5 15 10 0 6 -11 10 -25 10
-29 0 -75 20 -75 33 0 5 8 6 18 2 9 -4 30 -8 46 -10 16 -1 35 -10 42 -19 11
-16 13 -16 21 -1 9 15 11 15 22 1 11 -13 15 -13 27 -2 7 8 11 23 9 35 -3 14 1
21 12 21 9 0 13 -3 10 -7 -10 -9 34 -54 45 -47 5 3 18 -5 29 -18 17 -19 20
-19 15 -4 -5 13 -2 17 9 13 13 -6 48 28 58 56 3 8 10 7 24 -6 21 -18 53 -23
53 -7 0 5 -7 7 -15 4 -9 -4 -15 0 -15 10 0 9 -7 16 -15 16 -8 0 -15 5 -15 10
0 6 6 10 14 10 8 0 18 -4 21 -10 9 -15 45 -12 45 4 0 8 -5 18 -10 21 -6 4 -8
15 -5 25 7 22 -12 37 -28 21 -7 -7 -14 -7 -23 0 -8 7 -13 3 -18 -16 -4 -14
-11 -25 -17 -25 -7 0 -8 7 -4 18 5 9 8 25 9 34 0 9 3 16 6 16 40 -3 70 4 70
18 0 9 9 18 20 21 25 7 16 23 -12 23 -20 0 -20 1 -3 26 20 31 15 40 -14 22
-12 -7 -24 -29 -29 -53 -7 -39 -29 -52 -25 -15 3 27 -23 46 -42 30 -8 -7 -22
-10 -30 -6 -8 3 -15 1 -15 -4 0 -10 21 -14 54 -11 16 1 15 -2 -7 -20 -17 -13
-34 -18 -47 -14 -25 8 -50 -15 -50 -47 0 -13 -4 -29 -9 -36 -12 -20 -23 26
-11 49 14 26 -14 46 -43 30 -34 -18 -87 -22 -87 -6 0 7 -11 16 -25 19 -14 4
-23 11 -20 17 4 6 19 2 41 -10 35 -21 51 -14 39 16 -5 15 -3 14 14 -1 11 -10
26 -16 33 -13 10 4 9 6 -2 7 -24 1 -83 57 -75 70 4 7 11 8 19 1 7 -6 17 -6 26
-1 12 7 12 11 -1 27 -13 17 -13 17 6 3 11 -7 26 -21 34 -30 11 -13 12 -12 7 7
-6 18 -4 21 15 16 12 -4 25 0 30 8 6 10 9 10 9 2 0 -7 4 -13 8 -13 13 0 8 53
-5 58 -7 2 -13 -1 -13 -6 0 -6 -9 -8 -20 -5 -20 5 -29 33 -10 33 6 0 10 -4 10
-10 0 -5 5 -10 10 -10 6 0 10 7 10 15 0 17 2 18 24 9 9 -3 16 -17 16 -29 0
-20 23 -55 35 -55 3 0 2 14 -1 30 -4 19 -2 30 5 30 6 0 11 -7 11 -15 0 -8 5
-15 10 -15 6 0 10 -7 10 -15 0 -18 21 -20 38 -3 18 18 15 28 -9 28 -15 0 -19
4 -15 16 3 9 6 20 6 25 0 12 53 -1 62 -15 5 -6 5 -23 2 -38 -6 -31 2 -34 30
-13 16 12 17 17 6 30 -10 12 -10 15 3 15 8 0 17 -7 21 -15 8 -22 37 -19 29 3
-9 26 -32 41 -54 35 -11 -3 -19 -2 -18 3 1 5 -1 17 -6 27 -4 10 -5 21 -1 24 6
6 10 3 79 -61 22 -21 43 -33 52 -30 18 7 19 26 3 42 -8 8 -3 11 23 9 19 -1 39
-6 46 -10 6 -4 14 -3 17 2 4 5 2 12 -3 16 -6 3 -8 12 -5 19 6 16 -15 33 -25
19 -14 -20 -59 -13 -76 13 -9 14 -14 29 -10 32 4 4 10 0 15 -9 6 -10 21 -15
42 -14 24 2 42 -6 67 -27 20 -18 36 -26 40 -19 4 6 12 6 20 2 7 -5 10 -14 7
-20 -4 -6 -12 -9 -17 -5 -6 3 -19 -4 -29 -16 -11 -13 -28 -20 -42 -19 -29 4
-48 -8 -47 -29 0 -11 3 -12 6 -4 7 17 43 15 65 -5 21 -19 88 -28 88 -13 0 17
31 -2 39 -23 6 -17 9 -18 14 -4 3 9 -4 26 -20 41 -27 27 -43 33 -43 16 0 -14
-47 -13 -56 2 -10 15 22 37 46 31 29 -8 37 23 13 50 -11 12 -19 27 -16 34 5
15 -14 26 -22 13 -10 -16 -43 -12 -53 6 -5 9 -7 27 -4 40 5 27 4 26 26 18 13
-5 14 -9 5 -20 -9 -11 -7 -14 9 -14 11 0 28 -3 37 -6 14 -6 16 -1 14 36 -3 35
0 45 16 51 11 4 14 8 8 8 -7 1 -13 8 -13 16 0 8 -7 15 -15 15 -9 0 -15 -6 -13
-12 1 -7 -4 -24 -11 -38 -13 -23 -15 -24 -21 -5 -8 20 22 65 43 65 5 0 16 8
23 18 10 13 17 15 30 6 27 -16 28 -34 2 -35 -22 0 -22 -1 -3 -9 29 -13 35 -12
35 5 0 8 2 15 4 15 2 0 12 3 22 7 15 5 16 0 12 -45 -4 -46 -3 -52 13 -52 11 0
18 -6 17 -12 -2 -8 11 -14 36 -16 25 -2 36 0 31 7 -3 6 -15 11 -26 11 -10 0
-19 5 -19 11 0 6 9 9 20 6 11 -3 20 -1 20 4 0 5 -9 9 -20 9 -22 0 -29 35 -8
42 17 6 2 38 -17 38 -15 0 -45 22 -45 34 0 2 14 1 31 -4 17 -5 39 -5 52 0 l22
9 -22 7 c-17 5 -22 12 -19 30 6 32 15 44 32 44 8 0 14 5 14 10 0 6 5 10 10 10
6 0 10 -5 10 -10z m930 0 c0 -5 -4 -10 -10 -10 -5 0 -10 5 -10 10 0 6 5 10 10
10 6 0 10 -4 10 -10z m-600 -21 c0 -6 -4 -7 -10 -4 -5 3 -10 11 -10 16 0 6 5
7 10 4 6 -3 10 -11 10 -16z m50 -26 c0 -7 -4 -13 -9 -13 -5 0 -8 12 -8 26 0
18 2 22 8 13 5 -8 9 -20 9 -26z m-90 12 c0 -8 -9 -15 -20 -15 -11 0 -20 -4
-20 -10 0 -5 -7 -10 -15 -10 -18 0 -18 5 -5 31 13 23 60 26 60 4z m175 -25
c-9 -18 -13 -36 -8 -41 11 -11 55 0 47 12 -3 5 -1 9 4 9 6 0 9 -11 8 -25 -1
-17 -5 -23 -15 -20 -12 5 -12 3 -1 -11 12 -13 11 -17 -1 -25 -22 -14 -29 -11
-29 15 0 18 -6 25 -22 28 -30 4 -29 27 2 66 30 38 37 35 15 -8z m1440 30 c64
-1 84 -4 68 -10 -28 -11 -29 -18 -5 -37 15 -12 9 -13 -44 -12 -33 2 -65 -1
-71 -4 -6 -4 -22 4 -34 18 -13 13 -34 25 -46 25 -25 0 -31 15 -10 24 6 3 21 3
32 1 11 -3 61 -5 110 -5z m-1999 -15 c-10 -7 -15 -18 -11 -24 4 -7 -5 -10 -26
-7 -18 2 -35 9 -37 16 -3 7 1 11 9 8 8 -3 28 1 44 8 39 17 44 17 21 -1z m254
11 c0 -3 -4 -8 -10 -11 -5 -3 -10 -1 -10 4 0 6 5 11 10 11 6 0 10 -2 10 -4z
m1515 -6 c-28 -12 -37 -12 -30 0 3 6 16 10 28 9 21 0 21 -1 2 -9z m-1155 -8
c0 -13 -12 -22 -22 -16 -10 6 -1 24 13 24 5 0 9 -4 9 -8z m-4739 -14 c-1 -5
-1 -24 -1 -43 0 -19 -5 -35 -11 -35 -7 0 -9 10 -7 25 3 14 1 28 -3 31 -15 9
-10 36 7 32 8 -2 15 -6 15 -10z m4579 -30 c0 -15 -19 -8 -29 11 -14 25 0 37
16 15 7 -10 13 -21 13 -26z m2350 22 c0 -5 -5 -10 -10 -10 -6 0 -3 -11 5 -24
11 -16 13 -26 6 -31 -6 -3 -11 1 -11 11 0 13 -6 15 -35 10 -41 -8 -42 -6 -12
28 22 25 57 35 57 16z m-3000 -10 c0 -5 -4 -10 -10 -10 -5 0 -10 5 -10 10 0 6
5 10 10 10 6 0 10 -4 10 -10z m1055 0 c3 -5 1 -10 -4 -10 -6 0 -11 5 -11 10 0
6 2 10 4 10 3 0 8 -4 11 -10z m-949 -9 c-3 -5 4 -11 15 -14 12 -3 18 -10 14
-16 -4 -8 -12 -8 -26 -1 -20 11 -26 40 -8 40 5 0 8 -4 5 -9z m574 -1 c0 -5 -4
-10 -10 -10 -5 0 -10 5 -10 10 0 6 5 10 10 10 6 0 10 -4 10 -10z m-190 -10 c0
-5 -2 -10 -4 -10 -3 0 -8 5 -11 10 -3 6 -1 10 4 10 6 0 11 -4 11 -10z m-3383
-22 c-3 -8 -6 -5 -6 6 -1 11 2 17 5 13 3 -3 4 -12 1 -19z m4748 2 c3 -5 2 -10
-4 -10 -5 0 -13 5 -16 10 -3 6 -2 10 4 10 5 0 13 -4 16 -10z m808 -5 c-50 -12
-166 -29 -130 -18 10 2 16 11 13 18 -4 10 14 13 82 13 l87 0 -52 -13z m-6678
-25 c3 -10 1 -29 -5 -40 -14 -26 -5 -38 17 -24 22 13 53 -12 53 -42 0 -18 -8
-22 -46 -28 -49 -6 -104 13 -104 38 0 17 29 87 42 104 15 18 36 15 43 -8z
m3995 10 c0 -5 -2 -10 -4 -10 -3 0 -8 5 -11 10 -3 6 -1 10 4 10 6 0 11 -4 11
-10z m911 -20 c6 -16 15 -27 20 -24 5 3 9 3 9 0 0 -2 3 -11 6 -19 6 -16 -28
-29 -52 -20 -11 4 -11 9 2 28 10 15 12 25 5 30 -6 3 -11 -1 -11 -9 0 -9 -9
-16 -20 -16 -26 0 -28 46 -2 53 31 8 33 7 43 -23z m161 18 c-9 -9 -15 -9 -24
0 -9 9 -7 12 12 12 19 0 21 -3 12 -12z m1168 -7 c0 -3 -13 -6 -29 -7 -19 -1
-28 3 -25 11 5 12 54 9 54 -4z m-690 -12 c0 -5 -4 -9 -10 -9 -5 0 -10 7 -10
16 0 8 5 12 10 9 6 -3 10 -10 10 -16z m1440 6 c-7 -8 -17 -15 -22 -15 -6 0 -5
7 2 15 7 8 17 15 22 15 6 0 5 -7 -2 -15z m-3110 -5 c0 -5 -2 -10 -4 -10 -3 0
-8 5 -11 10 -3 6 -1 10 4 10 6 0 11 -4 11 -10z m-3792 -29 c3 -8 -1 -12 -9 -9
-7 2 -15 10 -17 17 -3 8 1 12 9 9 7 -2 15 -10 17 -17z m3817 9 c3 -5 1 -10 -4
-10 -6 0 -11 5 -11 10 0 6 2 10 4 10 3 0 8 -4 11 -10z m302 -22 c-3 -7 -5 -2
-5 12 0 14 2 19 5 13 2 -7 2 -19 0 -25z m2743 28 c0 -9 -89 -65 -124 -77 -20
-7 -36 -17 -36 -21 0 -4 -4 -8 -10 -8 -5 0 -10 5 -10 11 0 19 26 37 71 50 24
7 52 21 62 31 16 16 47 25 47 14z m-3084 -18 c5 -8 2 -9 -10 -5 -11 4 -19 1
-23 -10 -4 -9 -1 -19 5 -21 7 -2 12 -8 12 -13 0 -4 -7 -6 -15 -3 -18 7 -20 50
-2 57 20 9 25 8 33 -5z m2354 -8 c0 -5 -9 -10 -21 -10 -11 0 -17 5 -14 10 3 6
13 10 21 10 8 0 14 -4 14 -10z m47 4 c-3 -3 -12 -4 -19 -1 -8 3 -5 6 6 6 11 1
17 -2 13 -5z m-5994 -19 c-3 -9 -8 -14 -10 -11 -3 3 -2 9 2 15 9 16 15 13 8
-4z m4552 -4 c7 -12 -12 -24 -25 -16 -11 7 -4 25 10 25 5 0 11 -4 15 -9z
m-895 -22 c0 -6 -4 -7 -10 -4 -5 3 -10 11 -10 16 0 6 5 7 10 4 6 -3 10 -11 10
-16z m-2451 -3 c8 -10 9 -16 1 -21 -5 -3 -10 -24 -10 -46 0 -32 3 -39 20 -39
10 0 24 9 30 20 8 14 20 20 40 18 33 -2 39 -18 15 -38 -8 -7 -15 -21 -15 -31
0 -10 -8 -22 -17 -28 -10 -5 -15 -13 -11 -17 10 -9 -100 -47 -112 -39 -6 4
-10 -3 -10 -14 0 -17 -6 -21 -33 -21 -18 0 -51 -9 -72 -20 -33 -17 -41 -18
-43 -6 -2 9 -10 12 -19 9 -11 -4 -14 -2 -9 5 4 7 16 12 27 12 41 0 11 25 -42
36 -30 7 -47 13 -39 14 12 1 11 3 -3 8 -15 6 -11 14 28 57 36 39 48 46 58 36
9 -10 9 -15 -5 -25 -9 -7 -14 -17 -10 -22 6 -9 14 -10 50 -6 6 1 12 13 12 25
0 27 33 62 49 52 6 -3 11 2 11 13 0 10 11 28 25 40 14 12 25 26 25 32 0 15 46
12 59 -4z m2321 -11 c17 -20 11 -25 -18 -14 -13 5 -20 13 -17 19 9 14 21 12
35 -5z m3175 5 c3 -5 1 -10 -4 -10 -6 0 -11 5 -11 10 0 6 2 10 4 10 3 0 8 -4
11 -10z m202 4 c-3 -3 -12 -4 -19 -1 -8 3 -5 6 6 6 11 1 17 -2 13 -5z m83 -4
c0 -5 -2 -10 -4 -10 -3 0 -8 5 -11 10 -3 6 -1 10 4 10 6 0 11 -4 11 -10z
m-6900 -10 c0 -14 -38 -32 -58 -28 -13 3 -10 8 13 21 35 19 45 21 45 7z m3380
-24 c-5 -5 -10 -23 -10 -39 0 -24 -3 -27 -14 -18 -15 12 -10 51 6 51 5 0 6 10
2 22 -6 21 -5 21 10 9 12 -10 14 -17 6 -25z m1045 -4 c-8 -8 -25 10 -19 20 4
6 9 5 15 -3 4 -7 6 -15 4 -17z m-4587 -14 l2 -33 -13 25 c-14 25 -13 40 1 40
4 0 9 -15 10 -32z m3709 16 c-3 -3 -12 -4 -19 -1 -8 3 -5 6 6 6 11 1 17 -2 13
-5z m3432 -10 c2 -2 -3 -19 -10 -38 l-14 -35 -33 16 c-30 15 -34 14 -52 -2
-29 -26 -34 -14 -14 32 l17 40 51 -5 c28 -2 53 -6 55 -8z m28 -66 c-3 -8 -6
-5 -6 6 -1 11 2 17 5 13 3 -3 4 -12 1 -19z m-3498 -4 c3 -3 0 -9 -5 -14 -7 -7
-17 -3 -30 11 -19 22 -19 22 6 14 14 -4 27 -9 29 -11z m-2262 -34 c-1 -37 -2
-38 -13 -18 -9 16 -9 26 0 40 6 10 12 18 13 18 1 0 1 -18 0 -40z m-769 -24 c3
-12 -1 -17 -10 -14 -7 3 -15 13 -16 22 -3 12 1 17 10 14 7 -3 15 -13 16 -22z
m2621 -7 c-16 -10 -23 -4 -14 10 3 6 11 8 17 5 6 -4 5 -9 -3 -15z m3031 1 c0
-5 -8 -10 -17 -10 -15 0 -16 2 -3 10 19 12 20 12 20 0z m175 0 c-4 -6 2 -10
12 -11 10 0 51 -2 91 -3 81 -3 108 -17 76 -41 -19 -15 -19 -15 2 -32 12 -10
31 -36 43 -58 12 -22 28 -50 37 -62 15 -21 15 -23 0 -29 -10 -4 -25 1 -36 11
-11 10 -26 15 -34 12 -8 -3 -17 -3 -20 1 -14 13 -54 12 -66 -3 -7 -8 -25 -15
-41 -15 -16 0 -29 -4 -29 -10 0 -5 -4 -10 -10 -10 -5 0 -10 7 -10 15 0 8 -4
15 -10 15 -5 0 -10 -4 -10 -10 0 -18 -22 -10 -27 10 -3 11 -12 20 -21 20 -9 0
-29 12 -44 27 -37 35 -38 9 -1 -29 18 -19 22 -28 12 -28 -8 0 -20 5 -26 11 -8
8 -17 8 -31 0 -11 -6 -27 -9 -34 -8 -7 2 -10 2 -5 0 10 -6 9 -45 -2 -62 -5 -7
-13 -11 -19 -7 -6 3 -13 2 -17 -4 -10 -16 -38 -12 -32 4 3 8 3 17 -1 21 -4 4
-7 10 -7 13 -1 14 -30 52 -40 52 -13 0 -51 58 -47 71 1 6 -2 7 -9 4 -7 -5 -9
3 -6 24 3 17 1 31 -4 31 -5 0 -9 5 -9 10 0 6 10 8 24 4 17 -4 28 0 38 15 10
14 21 19 32 15 12 -4 16 0 16 15 0 12 4 21 9 21 5 0 7 -14 5 -30 -4 -25 -1
-32 18 -39 18 -7 25 -5 30 10 5 12 17 19 33 19 15 0 28 7 32 18 4 9 10 19 14
22 15 10 130 9 124 0z m-3318 -16 c-3 -3 -12 -4 -19 -1 -8 3 -5 6 6 6 11 1 17
-2 13 -5z m2913 -4 c0 -5 -2 -10 -4 -10 -3 0 -8 5 -11 10 -3 6 -1 10 4 10 6 0
11 -4 11 -10z m691 -22 c14 -26 -3 -47 -23 -30 -20 16 -22 63 -3 55 9 -3 20
-14 26 -25z m81 -8 c-12 -11 -27 -20 -35 -20 -7 0 -19 -6 -27 -12 -12 -11 -12
-10 -2 4 10 12 10 18 1 23 -17 11 10 25 50 25 l35 0 -22 -20z m-6346 -27 c-11
-11 -19 6 -11 24 8 17 8 17 12 0 3 -10 2 -21 -1 -24z m892 6 c-10 -6 -18 -17
-18 -26 0 -13 -3 -13 -15 -3 -23 19 -19 48 8 52 30 5 47 -10 25 -23z m1820 14
c-2 -10 -12 -19 -23 -22 -16 -3 -17 -1 -7 11 6 8 9 18 5 21 -3 4 1 7 11 7 11
0 16 -6 14 -17z m-2649 -67 c18 -21 7 -21 -19 1 -11 10 -20 29 -19 43 l1 25
11 -26 c7 -14 18 -33 26 -43z m2491 42 c0 -16 -3 -19 -11 -11 -6 6 -8 16 -5
22 11 17 16 13 16 -11z m2830 2 c0 -5 -5 -10 -11 -10 -5 0 -7 5 -4 10 3 6 8
10 11 10 2 0 4 -4 4 -10z m222 -28 c-7 -2 -10 -8 -6 -13 11 -18 -13 -8 -34 14
-29 30 -19 39 21 19 17 -9 26 -17 19 -20z m728 18 c0 -5 -4 -10 -9 -10 -6 0
-13 5 -16 10 -3 6 1 10 9 10 9 0 16 -4 16 -10z m-1510 -10 c0 -5 -5 -10 -11
-10 -5 0 -7 -5 -4 -10 4 -6 11 -8 16 -5 15 10 10 -5 -8 -23 -15 -15 -16 -15
-11 -1 4 11 -2 21 -18 29 -33 18 -30 30 6 30 17 0 30 -4 30 -10z m-4840 -15
c0 -8 -2 -15 -4 -15 -2 0 -6 7 -10 15 -3 8 -1 15 4 15 6 0 10 -7 10 -15z
m2563 -10 c-3 -9 -8 -14 -10 -11 -3 3 -2 9 2 15 9 16 15 13 8 -4z m2533 -41
c-6 -6 -17 -9 -25 -6 -10 4 -11 7 -3 10 8 2 10 13 5 30 l-6 27 20 -24 c15 -18
17 -28 9 -37z m311 21 c30 -56 33 -65 33 -85 0 -19 -2 -19 -24 7 -22 26 -27
27 -56 16 -17 -6 -42 -10 -55 -7 -14 2 -25 0 -25 -6 0 -5 -4 -10 -10 -10 -5 0
-10 7 -10 15 0 8 -9 19 -20 25 -11 6 -18 15 -15 21 4 5 2 9 -4 9 -6 0 -8 7 -5
15 4 8 12 15 19 15 19 0 61 -23 63 -35 1 -5 10 -10 20 -10 9 0 16 6 15 13 -2
6 6 12 17 12 18 0 19 3 10 21 -10 18 -9 20 10 17 12 -2 29 -16 37 -33z m1870
-52 c22 -46 29 -72 24 -87 -13 -34 -25 -19 -23 27 l3 42 -33 -35 c-18 -19 -35
-34 -38 -32 -3 1 -12 -4 -20 -11 -28 -23 -52 -28 -81 -15 -16 7 -29 21 -29 30
0 19 -16 24 -92 31 -31 3 -51 0 -58 -8 -6 -7 -27 -15 -47 -17 -32 -4 -37 -1
-47 24 -7 19 -15 26 -27 23 -9 -3 -22 1 -28 9 -11 12 -6 16 26 21 21 3 95 19
164 35 69 17 141 30 160 31 19 0 43 4 54 8 34 14 60 -8 92 -76z m-4597 51 c0
-8 -4 -12 -10 -9 -5 3 -10 10 -10 16 0 5 5 9 10 9 6 0 10 -7 10 -16z m-40 -16
c0 -16 -3 -19 -11 -11 -6 6 -8 16 -5 22 11 17 16 13 16 -11z m2430 -29 c0 -4
-7 -6 -15 -3 -8 4 -15 10 -15 15 0 4 7 6 15 3 8 -4 15 -10 15 -15z m457 6 c7
0 13 -4 12 -10 0 -5 -7 -9 -15 -7 -17 3 -17 1 -4 -33 7 -18 15 -25 25 -21 8 3
15 1 15 -4 0 -6 9 -10 20 -10 13 0 25 -11 33 -27 14 -33 34 -56 62 -71 19 -11
19 -11 -2 -12 -16 0 -23 -6 -23 -20 0 -35 -21 -25 -62 32 -32 42 -86 74 -101
59 -7 -7 -15 -1 -24 17 -12 23 -12 28 1 38 9 6 16 21 16 33 0 13 6 21 16 21
14 0 15 2 3 17 -12 15 -12 16 1 8 8 -5 21 -10 27 -10z m-2672 -4 c3 -6 -4 -15
-15 -21 -16 -8 -20 -8 -20 3 0 25 23 36 35 18z m145 -1 c0 -5 -4 -10 -10 -10
-5 0 -10 5 -10 10 0 6 5 10 10 10 6 0 10 -4 10 -10z m2030 6 c0 -3 -4 -8 -10
-11 -5 -3 -10 -1 -10 4 0 6 5 11 10 11 6 0 10 -2 10 -4z m118 -14 c2 -7 -3
-12 -12 -12 -9 0 -16 7 -16 16 0 17 22 14 28 -4z m-371 -14 c-3 -8 -6 -5 -6 6
-1 11 2 17 5 13 3 -3 4 -12 1 -19z m403 1 c0 -6 -4 -7 -10 -4 -5 3 -10 11 -10
16 0 6 5 7 10 4 6 -3 10 -11 10 -16z m-446 -14 c4 -10 -1 -15 -14 -15 -20 0
-26 11 -13 23 10 11 20 8 27 -8z m-4467 -62 c9 -7 14 -15 11 -18 -3 -3 -17 4
-32 17 -20 18 -24 29 -19 48 l7 25 8 -30 c4 -17 15 -36 25 -42z m2358 57 c4
-6 15 -8 26 -5 21 7 25 -5 7 -23 -17 -17 -45 -15 -52 5 -6 15 -8 15 -16 3 -5
-8 -12 -11 -16 -7 -4 4 1 14 12 22 23 17 31 18 39 5z m2953 -8 c2 -7 -2 -10
-12 -6 -9 3 -16 11 -16 16 0 13 23 5 28 -10z m-2873 -23 c-4 -13 -2 -19 9 -19
9 0 16 8 16 18 0 10 3 13 8 6 4 -6 22 -17 40 -25 17 -8 32 -17 32 -21 0 -10
-14 -10 -24 -1 -4 4 -32 8 -63 8 -36 0 -58 5 -60 13 -3 6 3 12 12 12 11 0 15
5 12 14 -7 17 2 28 15 20 5 -3 6 -14 3 -25z m285 21 c0 -5 -4 -10 -10 -10 -5
0 -10 5 -10 10 0 6 5 10 10 10 6 0 10 -4 10 -10z m340 -15 c0 -8 -4 -15 -10
-15 -5 0 -10 7 -10 15 0 8 5 15 10 15 6 0 10 -7 10 -15z m3103 1 c4 -10 1 -13
-9 -9 -7 3 -14 9 -14 14 0 14 17 10 23 -5z m187 4 c0 -4 -8 -14 -17 -23 -19
-16 -89 -15 -135 2 -21 8 -18 10 21 17 57 12 131 14 131 4z m-756 -15 c-4 -8
-12 -15 -20 -15 -17 0 -18 17 -1 23 22 9 27 7 21 -8z m-2914 -5 c0 -5 -4 -10
-10 -10 -5 0 -10 5 -10 10 0 6 5 10 10 10 6 0 10 -4 10 -10z m3030 -21 c6 -10
7 -19 2 -19 -5 0 -14 12 -20 26 -14 29 2 24 18 -7z m-5959 -6 c-12 -20 -14
-14 -5 12 4 9 9 14 11 11 3 -2 0 -13 -6 -23z m2874 18 c3 -5 1 -12 -5 -16 -5
-3 -10 1 -10 9 0 18 6 21 15 7z m-365 -23 c0 -19 -2 -20 -10 -8 -13 19 -13 30
0 30 6 0 10 -10 10 -22z m3370 12 c0 -5 -5 -10 -11 -10 -5 0 -7 5 -4 10 3 6 8
10 11 10 2 0 4 -4 4 -10z m204 -22 c6 -4 8 -10 4 -13 -9 -10 -39 26 -31 38 4
7 8 6 11 -3 3 -8 10 -18 16 -22z m-3499 -1 c13 -3 9 -5 -12 -6 -24 -1 -33 3
-33 15 0 12 3 14 13 6 6 -5 21 -12 32 -15z m-2260 -7 c3 -5 1 -10 -4 -10 -6 0
-11 5 -11 10 0 6 2 10 4 10 3 0 8 -4 11 -10z m5800 1 c3 -5 1 -12 -5 -16 -5
-3 -10 1 -10 9 0 18 6 21 15 7z m-6940 -11 c3 -5 -1 -10 -10 -10 -9 0 -13 5
-10 10 3 6 8 10 10 10 2 0 7 -4 10 -10z m3315 -22 c0 -16 -3 -19 -11 -11 -6 6
-8 16 -5 22 11 17 16 13 16 -11z m-3270 -9 c0 -5 -4 -9 -10 -9 -5 0 -10 7 -10
16 0 8 5 12 10 9 6 -3 10 -10 10 -16z m1124 12 c3 -5 -1 -11 -9 -15 -9 -3 -15
0 -15 9 0 16 16 20 24 6z m4486 -23 c0 -5 -7 -3 -15 6 -8 8 -15 18 -15 22 0 3
7 1 15 -6 8 -7 15 -17 15 -22z m-2185 12 c-3 -5 -12 -10 -18 -10 -7 0 -6 4 3
10 19 12 23 12 15 0z m3445 -11 c0 -6 -4 -7 -10 -4 -5 3 -10 11 -10 16 0 6 5
7 10 4 6 -3 10 -11 10 -16z m-3532 -7 c2 -7 -2 -10 -12 -6 -9 3 -16 11 -16 16
0 13 23 5 28 -10z m-68 -23 c0 -5 -4 -9 -10 -9 -5 0 -10 7 -10 16 0 8 5 12 10
9 6 -3 10 -10 10 -16z m150 -6 c-1 -25 -19 -33 -58 -27 -23 4 -42 11 -42 16 0
5 12 7 28 4 15 -3 34 -2 42 4 18 12 30 13 30 3z m-3390 -23 c0 -5 -5 -10 -11
-10 -5 0 -7 5 -4 10 3 6 8 10 11 10 2 0 4 -4 4 -10z m-71 -14 c17 -20 31 -75
21 -81 -5 -3 -10 7 -12 22 -2 21 -8 28 -25 28 -27 1 -48 19 -39 34 10 15 41
14 55 -3z m977 1 c16 6 38 -43 27 -60 -4 -7 -6 -22 -5 -34 2 -12 -6 -31 -18
-43 -14 -14 -19 -28 -15 -41 13 -39 48 -13 69 52 20 60 96 62 96 2 0 -23 3
-25 43 -23 74 4 93 1 131 -25 21 -14 42 -22 48 -19 6 4 23 -8 38 -26 18 -22
34 -31 44 -27 28 11 46 -4 47 -37 0 -26 2 -28 8 -11 5 11 7 23 4 27 -2 4 2 5
10 2 11 -4 12 -14 7 -42 -8 -40 -40 -113 -54 -123 -5 -4 -6 -11 -3 -16 3 -4
-4 -25 -16 -44 -19 -31 -26 -35 -44 -28 -18 6 -22 15 -20 42 2 26 0 34 -10 30
-7 -3 -13 -9 -13 -13 0 -5 -14 -8 -31 -8 -17 1 -35 -5 -40 -13 -7 -11 -9 -8
-9 9 0 21 -2 22 -27 9 -16 -7 -57 -12 -93 -12 -59 2 -67 -1 -91 -27 -15 -15
-32 -28 -38 -28 -20 0 -11 24 20 56 17 18 28 37 24 43 -3 6 -11 9 -16 6 -5 -4
-9 -2 -9 4 0 11 19 25 35 26 23 3 75 28 75 36 0 6 8 6 19 0 10 -6 21 -8 24 -4
4 3 18 -2 31 -11 32 -20 37 -20 29 0 -5 14 -1 15 25 9 19 -4 32 -3 32 3 0 5
11 13 25 16 24 6 37 46 15 46 -5 0 -10 -4 -10 -9 0 -6 -16 -7 -35 -4 -23 4
-35 2 -35 -6 0 -10 14 -15 33 -12 5 1 6 -2 3 -7 -9 -15 -75 10 -68 26 3 10 -1
13 -14 10 -13 -3 -18 -11 -17 -26 3 -23 -11 -30 -22 -12 -4 6 -10 8 -15 5 -5
-3 -21 -3 -35 1 -18 5 -23 9 -14 14 7 5 18 6 25 3 6 -2 15 0 19 6 3 6 0 11 -8
11 -20 0 -38 25 -32 42 3 8 26 25 49 37 41 20 64 47 51 59 -3 3 -5 1 -5 -4 0
-6 -25 -9 -60 -6 -56 4 -60 3 -60 -17 0 -12 -7 -24 -15 -27 -8 -4 -15 -12 -15
-18 0 -7 -12 -18 -27 -25 -16 -7 -28 -12 -28 -10 0 1 -9 -2 -20 -8 -15 -9 -25
-8 -40 3 -10 8 -34 14 -52 14 -36 0 -39 6 -18 34 8 11 15 28 15 38 0 10 6 18
14 18 8 0 18 5 22 12 4 7 3 8 -5 4 -32 -20 -68 22 -62 74 3 28 72 93 85 80 5
-5 15 -6 22 -3z m2324 3 c0 -5 -4 -10 -10 -10 -5 0 -10 5 -10 10 0 6 5 10 10
10 6 0 10 -4 10 -10z m2880 -10 c0 -5 -2 -10 -4 -10 -3 0 -8 5 -11 10 -3 6 -1
10 4 10 6 0 11 -4 11 -10z m1953 -70 c4 -17 2 -18 -14 -9 -20 10 -24 21 -13
32 10 10 21 0 27 -23z m-1183 -5 c11 -13 10 -14 -4 -9 -9 3 -16 10 -16 15 0
13 6 11 20 -6z m1168 -46 c13 -16 19 -29 13 -29 -5 0 -13 5 -16 10 -4 6 -10 8
-15 5 -5 -3 -21 2 -35 11 -23 15 -24 18 -8 29 21 16 32 11 61 -26z m-8178 21
c0 -5 14 -17 32 -26 17 -9 36 -20 42 -25 6 -5 34 -27 61 -48 49 -39 96 -101
76 -101 -6 0 -11 -7 -11 -15 0 -8 5 -15 10 -15 6 0 10 5 10 11 0 5 4 8 9 5 5
-3 7 -15 4 -27 -4 -15 -2 -20 10 -17 8 2 27 -10 41 -27 21 -24 25 -37 20 -62
-7 -36 10 -46 21 -13 8 24 23 26 31 5 4 -10 13 -13 25 -10 15 5 19 1 19 -19 0
-32 -38 -56 -54 -35 -6 8 -22 19 -36 25 -21 9 -26 8 -35 -9 -13 -26 -41 -37
-31 -12 5 14 2 17 -19 13 -14 -3 -25 -1 -25 3 0 5 -4 9 -10 9 -5 0 -10 -7 -10
-15 0 -8 -4 -15 -10 -15 -5 0 -12 -11 -16 -25 -10 -41 -61 -88 -97 -91 -18 -2
-68 -10 -111 -19 -111 -23 -113 -20 -93 116 8 57 27 142 42 189 15 47 34 119
43 160 8 41 16 81 18 88 4 14 44 17 44 2z m8230 -81 c0 -20 -15 -26 -25 -9 -9
15 3 43 15 35 5 -3 10 -15 10 -26z m-7533 -15 c18 -5 21 -10 13 -25 -6 -10 -8
-30 -4 -43 4 -18 1 -27 -14 -35 -23 -12 -36 -3 -21 16 18 21 -8 16 -33 -7 -12
-11 -32 -20 -46 -20 -19 0 -22 -4 -17 -20 4 -11 2 -20 -4 -20 -6 0 -11 4 -11
8 0 8 -43 32 -55 32 -3 0 -5 -6 -5 -14 0 -7 -10 -16 -22 -20 -32 -8 -33 -8
-33 12 -1 9 -5 23 -10 31 -6 11 -4 13 8 8 9 -3 19 -2 22 3 3 4 24 11 46 15 23
4 49 15 58 24 53 53 85 66 128 55z m49 -42 c-10 -10 -29 15 -21 28 6 9 10 8
17 -4 6 -10 7 -20 4 -24z m54 13 c0 -9 -6 -12 -15 -9 -8 4 -12 10 -9 15 8 14
24 10 24 -6z m2600 0 c13 -16 3 -20 -24 -9 -9 3 -13 10 -10 15 8 13 20 11 34
-6z m-2550 -50 c0 -8 -2 -15 -4 -15 -2 0 -6 7 -10 15 -3 8 -1 15 4 15 6 0 10
-7 10 -15z m6120 -75 c0 -5 -4 -10 -10 -10 -5 0 -10 5 -10 10 0 6 5 10 10 10
6 0 10 -4 10 -10z m5 -30 c-3 -5 -11 -10 -16 -10 -6 0 -7 5 -4 10 3 6 11 10
16 10 6 0 7 -4 4 -10z m-6640 -20 c3 -5 1 -10 -4 -10 -6 0 -11 5 -11 10 0 6 2
10 4 10 3 0 8 -4 11 -10z m6330 -37 c5 -14 8 -14 21 3 11 14 17 16 21 6 4 -10
9 -10 23 3 15 13 23 14 40 5 32 -17 72 -25 148 -28 33 -2 33 -3 26 -34 -4 -18
-8 -41 -8 -50 0 -11 -11 -20 -29 -24 -23 -5 -27 -9 -21 -27 4 -12 11 -23 15
-25 16 -6 10 -42 -7 -42 -36 0 -135 60 -206 126 -20 19 -44 34 -51 34 -16 0
-31 16 -40 43 -5 13 0 20 16 26 27 10 43 5 52 -16z m295 17 c0 -5 -7 -10 -16
-10 -8 0 -12 5 -9 10 3 6 10 10 16 10 5 0 9 -4 9 -10z m-380 -10 c0 -5 -7 -10
-15 -10 -8 0 -15 5 -15 10 0 6 7 10 15 10 8 0 15 -4 15 -10z m-67 -14 c12 -31
-27 -36 -43 -6 -9 17 -8 20 14 20 13 0 26 -6 29 -14z m-53 -26 c0 -5 -4 -10
-10 -10 -5 0 -10 5 -10 10 0 6 5 10 10 10 6 0 10 -4 10 -10z m-124 -27 c-7 -7
-26 7 -26 19 0 6 6 6 15 -2 9 -7 13 -15 11 -17z m102 10 c2 -8 -5 -13 -17 -13
-12 0 -21 6 -21 16 0 18 31 15 38 -3z m-5391 -32 l3 -32 -28 26 c-23 21 -25
27 -12 35 23 15 34 6 37 -29z m5168 9 c10 -11 14 -20 9 -20 -12 1 -44 25 -44
34 0 12 17 6 35 -14z m-4770 -12 c29 -13 30 -41 1 -46 -14 -3 -17 0 -12 13 5
14 4 16 -8 6 -14 -12 -46 -5 -46 10 0 5 7 9 15 9 8 0 15 5 15 10 0 13 3 13 35
-2z m-1134 -10 c1 -7 3 -28 5 -46 2 -33 2 -33 -15 -15 -10 10 -14 19 -10 21 5
2 6 15 3 28 -4 15 -2 24 5 24 6 0 12 -6 12 -12z m999 -9 c0 -5 -7 -9 -15 -9
-15 0 -20 12 -9 23 8 8 24 -1 24 -14z m5000 11 c0 -5 -4 -10 -10 -10 -5 0 -10
5 -10 10 0 6 5 10 10 10 6 0 10 -4 10 -10z m737 4 c-3 -3 -12 -4 -19 -1 -8 3
-5 6 6 6 11 1 17 -2 13 -5z m-787 -19 c7 -9 8 -15 2 -15 -5 0 -12 7 -16 15 -3
8 -4 15 -2 15 2 0 9 -7 16 -15z m-5016 -14 c4 -5 -3 -7 -14 -4 -23 6 -26 13
-6 13 8 0 17 -4 20 -9z m71 -31 c-6 -9 -9 -9 -16 1 -10 17 0 34 13 21 6 -6 7
-16 3 -22z m69 11 c17 -19 17 -19 -3 -14 -12 3 -21 12 -21 19 0 18 4 18 24 -5z
m5148 -11 c-3 -21 -2 -22 11 -12 10 9 17 10 22 2 3 -5 1 -10 -5 -10 -6 0 -8
-4 -5 -10 11 -18 -14 -11 -35 10 -11 11 -17 26 -14 35 10 24 29 11 26 -15z
m-5325 14 c-3 -3 -12 -4 -19 -1 -8 3 -5 6 6 6 11 1 17 -2 13 -5z m5128 -15
c10 -15 -1 -22 -24 -14 -12 3 -19 11 -16 16 8 12 32 11 40 -2z m-815 -9 c0 -5
-5 -10 -11 -10 -5 0 -7 5 -4 10 3 6 8 10 11 10 2 0 4 -4 4 -10z m270 -10 c0
-5 -7 -10 -15 -10 -8 0 -15 5 -15 10 0 6 7 10 15 10 8 0 15 -4 15 -10z m623
-17 c4 -7 17 -13 27 -13 13 0 18 -6 15 -20 -2 -11 0 -20 6 -20 5 0 9 -4 9 -10
0 -5 -9 -10 -20 -10 -22 0 -26 10 -9 27 14 14 -38 33 -74 26 -16 -3 -27 -1
-27 6 0 6 7 11 16 11 10 0 14 6 11 14 -7 18 35 9 46 -11z m1841 20 c4 -5 12
-9 17 -9 5 -1 13 -2 18 -3 24 -3 57 -125 95 -356 31 -182 22 -315 -21 -315 -8
0 -13 -12 -13 -30 0 -16 -4 -30 -10 -30 -15 0 -26 32 -24 77 1 33 -3 44 -18
49 -10 3 -18 14 -18 25 0 23 -15 25 -24 4 -3 -10 -19 -15 -42 -15 -29 0 -34 3
-25 13 11 14 9 96 -3 116 -4 6 -12 8 -18 5 -6 -4 -17 1 -25 11 -7 11 -14 16
-14 12 -1 -4 -2 -11 -3 -17 -3 -23 -21 -13 -27 15 l-6 30 -4 -34 c-2 -19 -9
-36 -15 -38 -7 -2 -10 6 -9 21 3 25 -26 48 -33 27 -4 -12 -32 -15 -32 -4 0 14
34 43 50 43 13 0 16 6 12 25 -6 32 -44 34 -65 3 -8 -13 -18 -20 -22 -16 -4 4
2 18 13 32 26 34 19 76 -14 76 -31 0 -31 23 1 40 14 7 25 17 25 22 0 5 10 13
23 18 12 6 29 14 37 19 8 5 49 25 90 45 88 42 136 78 126 94 -5 9 -12 9 -29 0
-12 -7 -51 -15 -87 -19 -36 -4 -83 -13 -105 -22 -59 -22 -130 -26 -130 -7 0
10 16 18 50 23 28 5 75 18 105 29 30 11 72 21 93 21 27 1 36 5 33 14 -6 14 35
19 48 6z m-2404 -34 c0 -11 -4 -17 -10 -14 -5 3 -10 13 -10 21 0 8 5 14 10 14
6 0 10 -9 10 -21z m-4730 7 c0 -2 -7 -6 -15 -10 -8 -3 -15 -1 -15 4 0 6 7 10
15 10 8 0 15 -2 15 -4z m270 -12 c0 -8 -4 -12 -10 -9 -5 3 -10 10 -10 16 0 5
5 9 10 9 6 0 10 -7 10 -16z m3390 2 c0 -3 -4 -8 -10 -11 -5 -3 -10 -1 -10 4 0
6 5 11 10 11 6 0 10 -2 10 -4z m950 -5 c0 -5 -4 -21 -10 -36 -7 -20 -16 -25
-35 -22 -13 1 -27 6 -31 10 -4 4 -14 1 -22 -5 -12 -10 -14 -9 -11 6 3 13 13
20 32 21 16 0 33 8 38 18 10 18 39 24 39 8z m-410 -21 c0 -5 -4 -10 -9 -10 -6
0 -13 5 -16 10 -3 6 1 10 9 10 9 0 16 -4 16 -10z m60 0 c0 -5 -7 -10 -16 -10
-8 0 -12 5 -9 10 3 6 10 10 16 10 5 0 9 -4 9 -10z m561 -52 c15 -30 -13 -20
-39 13 -19 23 -20 29 -8 29 9 0 16 6 17 13 0 6 5 1 11 -13 5 -14 14 -33 19
-42z m719 30 c0 -10 -36 7 -45 22 -4 6 5 5 19 -2 14 -6 26 -15 26 -20z m-1200
3 c0 -5 -7 -12 -16 -15 -22 -9 -24 -8 -24 9 0 8 9 15 20 15 11 0 20 -4 20 -9z
m-4505 -21 c3 -5 2 -10 -4 -10 -5 0 -13 5 -16 10 -3 6 -2 10 4 10 5 0 13 -4
16 -10z m4235 0 c0 -5 -4 -10 -10 -10 -5 0 -10 5 -10 10 0 6 5 10 10 10 6 0
10 -4 10 -10z m1419 -26 c24 -22 -20 -6 -49 17 l-25 20 30 -13 c17 -6 36 -17
44 -24z m-1189 6 c0 -5 -7 -10 -15 -10 -8 0 -15 5 -15 10 0 6 7 10 15 10 8 0
15 -4 15 -10z m76 -49 c4 -36 3 -41 -16 -41 -22 0 -22 0 -25 45 -2 34 13 61
27 47 5 -5 12 -28 14 -51z m-4596 38 c0 -18 -13 -38 -21 -33 -15 9 -10 41 6
41 8 0 15 -4 15 -8z m3800 1 c0 -5 -5 -10 -11 -10 -5 0 -7 5 -4 10 3 6 8 10
11 10 2 0 4 -4 4 -10z m568 -8 c3 -9 -2 -13 -14 -10 -9 1 -19 9 -22 16 -3 9 2
13 14 10 9 -1 19 -9 22 -16z m-143 -2 c3 -5 -1 -10 -9 -10 -9 0 -16 5 -16 10
0 6 4 10 9 10 6 0 13 -4 16 -10z m90 -40 c20 0 19 -16 0 -24 -19 -7 -81 46
-71 62 5 8 15 4 32 -13 14 -14 31 -25 39 -25z m1255 35 c0 -8 -7 -15 -15 -15
-16 0 -20 12 -8 23 11 12 23 8 23 -8z m-1538 -31 c-3 -25 -7 -33 -15 -25 -18
18 -18 49 1 54 9 3 17 5 17 6 1 0 -1 -15 -3 -35z m-4068 -5 c-9 -15 -20 -10
-20 10 0 15 3 17 13 9 7 -6 10 -14 7 -19z m4270 -20 c-2 -4 10 -22 27 -40 37
-40 54 -69 39 -69 -5 0 -10 6 -10 13 0 8 -3 7 -9 -3 -6 -8 -7 -18 -4 -24 4 -6
-1 -6 -13 -2 -34 13 -39 11 -39 -14 0 -18 -5 -25 -21 -26 -21 -2 -94 -69 -94
-87 0 -23 -44 -57 -74 -57 -31 0 -76 33 -76 56 0 24 -35 74 -50 72 -8 -2 -17
-18 -21 -35 -9 -45 -26 -63 -61 -63 -30 0 -67 32 -68 59 0 19 -40 83 -62 99
-29 21 -22 54 16 80 49 33 97 28 110 -13 6 -16 12 -32 13 -34 2 -3 18 11 36
31 37 40 67 58 96 58 28 0 57 -30 53 -56 -2 -11 2 -34 8 -50 l11 -29 27 32
c36 42 99 83 128 83 13 0 24 5 24 10 0 6 -12 10 -26 10 -21 0 -24 3 -15 14 9
11 17 11 35 3 14 -7 22 -15 20 -18z m2351 21 c-3 -5 -15 -10 -26 -10 -10 0
-19 5 -19 10 0 6 12 10 26 10 14 0 23 -4 19 -10z m-1305 -10 c0 -5 -4 -10 -10
-10 -5 0 -10 5 -10 10 0 6 5 10 10 10 6 0 10 -4 10 -10z m-1150 -16 c0 -9 -5
-14 -12 -12 -18 6 -21 28 -4 28 9 0 16 -7 16 -16z m2404 7 c3 -4 17 -6 31 -3
29 5 34 -13 7 -27 -12 -6 -23 -5 -36 5 -13 9 -24 10 -38 3 -19 -10 -38 -5 -38
11 0 5 12 11 28 13 15 2 30 5 34 6 4 0 9 -3 12 -8z m-2757 -7 c-3 -3 -12 -4
-19 -1 -8 3 -5 6 6 6 11 1 17 -2 13 -5z m591 -13 c3 -8 -1 -12 -9 -9 -7 2 -15
10 -17 17 -3 8 1 12 9 9 7 -2 15 -10 17 -17z m-521 -17 c-9 -9 -28 6 -21 18 4
6 10 6 17 -1 6 -6 8 -13 4 -17z m787 -23 c3 -5 -1 -12 -10 -15 -20 -8 -29 -1
-19 13 8 13 22 14 29 2z m-578 -28 c-10 -11 -19 -7 -22 10 -2 15 0 16 12 6 8
-6 12 -14 10 -16z m2349 17 c-3 -5 -10 -10 -16 -10 -5 0 -9 5 -9 10 0 6 7 10
16 10 8 0 12 -4 9 -10z m145 -15 c0 -9 -6 -12 -16 -8 -13 5 -13 7 -2 14 17 11
18 11 18 -6z m490 5 c0 -5 -7 -10 -15 -10 -8 0 -15 5 -15 10 0 6 7 10 15 10 8
0 15 -4 15 -10z m-72 -12 c20 -20 14 -26 -20 -23 -45 4 -45 4 -24 20 24 18 29
18 44 3z m-669 -26 c-5 -2 -17 -1 -27 3 -15 6 -15 8 3 15 12 4 23 3 27 -4 4
-6 3 -13 -3 -14z m56 18 c-3 -5 -10 -10 -16 -10 -5 0 -9 5 -9 10 0 6 7 10 16
10 8 0 12 -4 9 -10z m730 -20 c3 -6 -5 -14 -18 -19 -14 -6 -28 -15 -32 -20 -9
-16 -25 -13 -25 4 0 35 58 62 75 35z m-200 -10 c3 -5 1 -10 -4 -10 -6 0 -11
-7 -11 -15 0 -8 -5 -15 -11 -15 -6 0 -8 7 -5 16 3 9 6 20 6 25 0 12 17 12 25
-1z m65 -15 c0 -8 -4 -15 -10 -15 -5 0 -7 7 -4 15 4 8 8 15 10 15 2 0 4 -7 4
-15z m-30 -35 c8 -5 11 -12 7 -17 -5 -4 -11 -3 -15 3 -4 6 -14 14 -22 17 -13
5 -13 5 0 6 8 0 22 -3 30 -9z m-7814 -37 c13 -12 28 -23 34 -23 5 0 10 -4 10
-8 0 -17 -148 -53 -190 -46 -22 4 -40 10 -40 14 0 4 18 15 39 23 21 9 50 27
65 40 32 30 52 30 82 0z m6784 7 c0 -5 -4 -10 -10 -10 -5 0 -10 5 -10 10 0 6
5 10 10 10 6 0 10 -4 10 -10z m-5805 -40 c-3 -5 -11 -10 -16 -10 -6 0 -7 5 -4
10 3 6 11 10 16 10 6 0 7 -4 4 -10z m5888 -24 c4 -10 1 -13 -9 -9 -7 3 -14 9
-14 14 0 14 17 10 23 -5z m84 -13 c-1 -16 -9 -33 -17 -40 -24 -20 -35 -15 -16
6 10 11 15 25 11 30 -7 12 2 31 15 31 5 0 8 -12 7 -27z m-6007 2 c-7 -8 -17
-15 -22 -15 -6 0 -5 7 2 15 7 8 17 15 22 15 6 0 5 -7 -2 -15z m130 11 c0 -2
-7 -6 -15 -10 -8 -3 -15 -1 -15 4 0 6 7 10 15 10 8 0 15 -2 15 -4z m7080 -50
c-13 -13 -45 17 -35 34 5 8 12 6 26 -6 13 -12 16 -21 9 -28z m-260 13 c0 -5
-4 -9 -10 -9 -5 0 -10 7 -10 16 0 8 5 12 10 9 6 -3 10 -10 10 -16z m123 14 c2
-5 -2 -19 -8 -31 -9 -18 -15 -20 -21 -11 -4 7 -3 14 4 17 6 2 8 10 5 18 -5 14
12 20 20 7z m-7110 -19 c7 -7 -28 -37 -55 -47 -23 -8 -23 11 -1 35 16 18 44
24 56 12z m6082 -4 c-3 -5 -10 -10 -16 -10 -5 0 -9 5 -9 10 0 6 7 10 16 10 8
0 12 -4 9 -10z m-5860 -10 c3 -5 1 -10 -4 -10 -6 0 -11 5 -11 10 0 6 2 10 4
10 3 0 8 -4 11 -10z m6935 -29 c-6 -12 -18 -21 -27 -21 -13 0 -11 5 8 23 28
27 35 27 19 -2z m100 -1 c0 -5 -7 -10 -16 -10 -8 0 -12 5 -9 10 3 6 10 10 16
10 5 0 9 -4 9 -10z m-1150 -4 c0 -7 -62 -36 -78 -36 -11 0 -13 -8 -7 -37 l7
-38 -21 24 c-12 13 -21 28 -21 34 0 5 -7 7 -15 4 -8 -4 -17 -2 -20 3 -3 5 12
13 34 16 22 4 49 13 58 20 17 12 63 20 63 10z m1080 0 c0 -3 -4 -8 -10 -11 -5
-3 -10 -1 -10 4 0 6 5 11 10 11 6 0 10 -2 10 -4z m-1020 -16 c0 -5 -7 -10 -15
-10 -8 0 -15 5 -15 10 0 6 7 10 15 10 8 0 15 -4 15 -10z m-370 -14 c0 -8 6
-17 13 -19 6 -3 0 -6 -15 -6 -22 -1 -28 4 -28 19 0 11 7 20 15 20 8 0 15 -6
15 -14z m63 2 c-6 -11 -41 -10 -48 2 -3 5 7 8 24 7 16 -1 27 -5 24 -9z m-213
-19 c0 -5 -4 -9 -10 -9 -5 0 -10 7 -10 16 0 8 5 12 10 9 6 -3 10 -10 10 -16z
m80 17 c0 -3 -4 -8 -10 -11 -5 -3 -10 -1 -10 4 0 6 5 11 10 11 6 0 10 -2 10
-4z m207 -32 c-3 -3 -12 -4 -19 -1 -8 3 -5 6 6 6 11 1 17 -2 13 -5z m303 -6
c0 -10 2 -10 8 0 10 15 51 3 71 -22 11 -13 11 -17 -4 -22 -11 -5 -21 -1 -27 9
-10 18 -48 23 -48 7 0 -20 -39 -50 -57 -43 -16 6 -16 5 -4 -11 13 -16 12 -17
-12 -11 -23 6 -27 4 -27 -14 0 -19 -3 -20 -20 -11 -12 6 -30 8 -40 5 -28 -9
-25 4 4 15 16 6 26 19 30 44 6 32 26 52 26 26 0 -5 20 -10 45 -10 32 0 43 4
39 13 -3 8 -19 12 -42 10 -20 -1 -28 0 -17 3 11 3 24 10 30 15 14 13 45 11 45
-3z m-178 -30 c-9 -9 -12 -7 -12 12 0 19 3 21 12 12 9 -9 9 -15 0 -24z m1308
18 c0 -8 3 -21 6 -30 5 -13 -1 -16 -27 -16 -30 1 -32 2 -17 14 10 7 15 16 12
19 -8 7 4 27 17 27 5 0 9 -6 9 -14z m-1290 -56 c0 -5 -2 -10 -4 -10 -2 0 -12
-3 -22 -7 -16 -6 -17 -5 -4 10 17 19 30 22 30 7z m-231 -19 c9 -6 10 -10 2
-16 -16 -9 -44 2 -36 15 8 12 16 12 34 1z m1639 -23 c-2 -15 -11 -24 -25 -26
-27 -4 -29 5 -6 30 22 24 35 23 31 -4z m-1093 1 c4 -5 18 -14 31 -19 13 -5 24
-17 24 -25 0 -9 5 -13 10 -10 6 3 13 -1 16 -9 3 -9 12 -16 19 -16 8 0 17 -5
21 -12 5 -7 0 -9 -14 -6 -21 6 -21 5 -4 -18 20 -28 39 -31 45 -6 4 14 6 14 12
-5 4 -13 11 -23 15 -23 4 0 8 -6 7 -12 0 -7 1 -22 2 -33 2 -19 2 -19 15 -2 13
17 15 17 41 -8 l28 -25 -30 6 c-27 5 -31 3 -37 -20 -8 -33 -24 -33 -32 -1 -3
14 -13 25 -20 25 -12 0 -11 -5 2 -25 21 -31 12 -42 -21 -27 -14 6 -32 9 -40 6
-8 -4 -17 1 -21 10 -4 11 -13 14 -28 10 -14 -3 -27 1 -35 10 -8 9 -21 16 -31
16 -14 0 -17 5 -12 22 4 17 2 20 -12 15 -10 -4 -19 -1 -22 7 -3 7 -16 14 -30
14 -14 0 -23 -3 -20 -5 6 -6 -31 -43 -43 -43 -4 0 -24 -13 -42 -30 -19 -16
-38 -30 -44 -30 -5 0 8 -18 29 -39 26 -26 37 -45 32 -56 -3 -9 -11 -13 -18 -9
-6 4 -28 6 -50 6 -24 -1 -38 3 -39 11 -6 73 -4 97 8 97 14 0 17 12 6 23 -3 4
-15 0 -25 -10 -22 -20 -36 -10 -15 12 9 8 26 14 39 13 17 -2 24 3 26 19 3 19
7 21 28 13 33 -13 34 -13 34 6 0 11 6 14 21 9 23 -8 56 17 70 53 11 28 44 31
36 2 -4 -15 0 -20 16 -20 18 0 19 2 7 10 -12 8 -12 10 4 16 11 4 21 2 27 -7 6
-10 9 -10 9 -1 0 6 7 12 15 12 16 0 40 38 30 48 -4 4 -13 -1 -20 -12 -16 -21
-45 -15 -45 9 0 8 -4 15 -10 15 -5 0 -10 -6 -10 -14 0 -8 -6 -13 -12 -12 -35
6 -58 19 -58 32 0 12 4 12 19 2 16 -10 23 -9 40 6 11 10 20 21 19 25 -2 23 25
31 37 10z m-319 -32 c15 1 24 -9 32 -31 15 -42 15 -46 -2 -46 -10 0 -14 9 -13
28 2 24 -1 27 -28 24 -19 -2 -34 3 -42 15 -13 17 -14 16 -19 -5 -9 -30 -24
-28 -24 4 0 25 2 26 38 18 20 -4 46 -7 58 -7z m167 6 c-7 -2 -19 -2 -25 0 -7
3 -2 5 12 5 14 0 19 -2 13 -5z m-403 -24 c0 -5 -8 -9 -19 -9 -12 0 -18 -7 -17
-17 1 -13 -5 -17 -21 -15 -12 2 -24 -2 -28 -8 -11 -19 -45 -11 -45 10 0 11 -4
20 -9 20 -16 0 -18 -24 -3 -39 12 -12 12 -16 1 -20 -7 -2 -19 6 -27 18 -8 11
-22 21 -31 21 -9 0 -27 9 -40 19 l-24 19 67 -2 c38 0 70 2 72 6 6 10 124 7
124 -3z m-965 -55 c14 -6 10 -10 -16 -21 -33 -14 -58 -5 -45 16 8 12 36 14 61
5z m2600 -5 c4 -5 4 -22 0 -36 -4 -19 -11 -24 -26 -20 -12 3 -22 0 -26 -9 -3
-8 -12 -14 -19 -14 -12 0 -11 5 3 28 36 59 55 73 68 51z m-2793 -16 c-6 -3
-10 -8 -7 -13 3 -4 -2 -13 -10 -20 -10 -9 -15 -9 -15 -1 0 6 -7 11 -15 11 -8
0 -15 -7 -15 -15 0 -22 -13 -18 -38 10 -21 24 -15 42 12 32 7 -3 18 -2 25 2 6
4 26 5 44 3 17 -3 26 -7 19 -9z m252 2 c3 -8 1 -15 -4 -15 -6 0 -10 7 -10 15
0 8 2 15 4 15 2 0 6 -7 10 -15z m60 -17 c-3 -5 -12 -4 -20 3 -19 16 -18 18 6
12 11 -3 17 -9 14 -15z m1246 7 c0 -8 -4 -15 -10 -15 -5 0 -10 7 -10 15 0 8 5
15 10 15 6 0 10 -7 10 -15z m-1700 -5 c0 -6 7 -10 16 -10 11 0 14 -5 10 -16
-3 -9 -6 -19 -6 -24 0 -11 -58 -40 -81 -40 -10 0 -21 5 -24 10 -12 19 -44 10
-65 -20 -25 -35 -59 -44 -38 -10 7 11 18 20 25 20 7 0 13 6 13 13 0 9 -13 13
-37 13 -46 -1 -63 -11 -63 -37 0 -27 -19 -24 -30 5 -5 14 -18 30 -30 36 -22
12 -17 35 5 26 7 -2 16 2 19 10 4 11 26 14 95 14 49 0 92 4 95 8 7 11 96 13
96 2z m1620 -20 c0 -5 -4 -10 -9 -10 -6 0 -13 5 -16 10 -3 6 1 10 9 10 9 0 16
-4 16 -10z m-1235 -10 c3 -5 -1 -10 -9 -10 -8 0 -18 5 -21 10 -3 6 1 10 9 10
8 0 18 -4 21 -10z m1145 0 c0 -5 -4 -10 -10 -10 -5 0 -10 5 -10 10 0 6 5 10
10 10 6 0 10 -4 10 -10z m-1380 -25 c0 -14 -29 -35 -48 -35 -6 0 -13 7 -16 16
-5 13 -2 15 14 11 13 -3 20 0 20 9 0 8 7 14 15 14 8 0 15 -7 15 -15z m370 -5
c0 -13 -20 -13 -40 0 -12 8 -9 10 13 10 15 0 27 -4 27 -10z m1270 -10 c0 -5
-4 -10 -10 -10 -5 0 -10 5 -10 10 0 6 5 10 10 10 6 0 10 -4 10 -10z m-7 -24
c15 -3 27 -11 27 -16 0 -6 9 -10 19 -10 11 0 23 -5 26 -10 4 -6 21 -8 41 -4
27 5 34 3 34 -10 0 -9 7 -16 15 -16 8 0 15 -4 15 -10 0 -7 -44 -8 -102 -1 -5
1 -7 7 -5 14 1 6 -7 12 -18 12 -15 0 -20 -7 -20 -27 0 -15 -4 -27 -10 -25 -5
1 -9 8 -8 15 0 8 -5 11 -13 8 -49 -20 -49 -20 -27 3 18 19 20 27 11 47 -13 27
-38 32 -38 8 0 -9 5 -12 11 -8 7 4 9 2 5 -7 -3 -8 -9 -22 -12 -31 -8 -22 -24
-24 -24 -3 0 8 -4 15 -10 15 -5 0 -10 -7 -10 -15 0 -8 -4 -15 -10 -15 -5 0 -9
11 -8 24 2 16 7 22 17 18 11 -4 13 -1 8 12 -8 21 32 59 48 47 6 -5 22 -11 38
-15z m-2510 -21 c-3 -9 -8 -14 -10 -11 -3 3 -2 9 2 15 9 16 15 13 8 -4z m2867
-20 c0 -3 -10 -16 -22 -30 -20 -24 -23 -24 -29 -8 -8 22 7 43 32 43 11 0 19
-2 19 -5z m-2225 -11 c13 -5 14 -8 3 -15 -19 -13 -28 -11 -28 6 0 17 2 18 25
9z m2861 -19 c-3 -9 0 -15 9 -15 8 0 14 4 13 9 -4 14 8 12 58 -9 25 -11 50
-20 55 -20 5 0 9 -4 9 -10 0 -12 -26 -13 -48 -1 -29 16 -161 24 -176 11 -10
-8 -25 -7 -55 2 -23 7 -41 16 -41 20 0 5 33 8 73 8 39 0 79 5 87 10 20 13 23
12 16 -5z m-722 -17 c-3 -5 -12 -4 -20 3 -19 16 -18 18 6 12 11 -3 17 -9 14
-15z m-570 6 c9 -3 16 -11 16 -16 0 -6 -6 -8 -14 -5 -7 3 -19 0 -25 -6 -16
-16 -25 -1 -10 17 17 18 14 17 33 10z m506 -29 c-6 -15 -13 -26 -16 -23 -2 3
0 18 6 33 6 15 13 26 16 23 2 -3 0 -18 -6 -33z m-2080 15 c0 -5 -7 -7 -15 -4
-8 4 -15 8 -15 10 0 2 7 4 15 4 8 0 15 -4 15 -10z m61 -7 c12 -15 12 -16 -4
-10 -10 4 -23 7 -28 7 -6 0 -7 5 -4 10 9 15 21 12 36 -7z m616 11 c-3 -3 -12
-4 -19 -1 -8 3 -5 6 6 6 11 1 17 -2 13 -5z m8 -44 c3 -5 1 -10 -4 -10 -6 0
-11 5 -11 10 0 6 2 10 4 10 3 0 8 -4 11 -10z m1340 -10 c21 -23 4 -27 -19 -4
-18 17 -20 24 -8 24 5 0 17 -9 27 -20z m152 -12 c-4 -12 -3 -27 1 -33 4 -6 -1
-2 -10 8 -22 24 -23 47 -2 47 12 0 15 -6 11 -22z m83 12 c0 -5 -7 -10 -15 -10
-8 0 -15 5 -15 10 0 6 7 10 15 10 8 0 15 -4 15 -10z m-2040 -10 c0 -5 -4 -10
-10 -10 -5 0 -10 5 -10 10 0 6 5 10 10 10 6 0 10 -4 10 -10z m1760 -9 c13 -25
-9 -31 -65 -17 -49 11 -53 15 -35 26 28 18 88 12 100 -9z m-7590 -31 c0 -15
-46 -12 -60 5 -20 24 -2 37 31 20 16 -9 29 -20 29 -25z"/>
<path d="M3110 6899 c0 -5 5 -7 10 -4 6 3 10 8 10 11 0 2 -4 4 -10 4 -5 0 -10
-5 -10 -11z"/>
<path d="M4497 6373 c-12 -12 -7 -22 8 -17 8 4 15 10 15 15 0 11 -14 12 -23 2z"/>
<path d="M4630 6060 c0 -5 5 -10 10 -10 6 0 10 5 10 10 0 6 -4 10 -10 10 -5 0
-10 -4 -10 -10z"/>
<path d="M4645 6010 c-16 -6 -17 -9 -5 -14 8 -3 24 -4 35 -2 11 3 27 5 35 5
13 1 13 2 0 11 -18 11 -38 12 -65 0z"/>
<path d="M4505 6001 c-3 -5 -1 -12 5 -16 12 -7 30 2 30 16 0 12 -27 12 -35 0z"/>
<path d="M4200 5800 c0 -5 6 -10 14 -10 8 0 18 5 21 10 3 6 -3 10 -14 10 -12
0 -21 -4 -21 -10z"/>
<path d="M6090 6170 c0 -5 -5 -10 -10 -10 -16 0 -79 -44 -85 -59 -9 -23 17
-31 48 -14 55 28 98 93 62 93 -8 0 -15 -4 -15 -10z"/>
<path d="M6485 4750 c-3 -5 -1 -10 4 -10 6 0 11 5 11 10 0 6 -2 10 -4 10 -3 0
-8 -4 -11 -10z"/>
<path d="M7027 4306 c-4 -10 -1 -13 9 -9 7 3 14 9 14 14 0 14 -17 10 -23 -5z"/>
<path d="M7022 4248 c5 -15 28 -23 28 -10 0 5 -7 13 -16 16 -10 4 -14 1 -12
-6z"/>
<path d="M7286 3961 c-7 -10 70 -20 85 -10 6 3 0 9 -13 12 -33 9 -66 8 -72 -2z"/>
<path d="M7210 3950 c-12 -8 -11 -10 7 -10 12 0 25 5 28 10 8 13 -15 13 -35 0z"/>
<path d="M6830 3920 c0 -5 4 -10 9 -10 6 0 13 5 16 10 3 6 -1 10 -9 10 -9 0
-16 -4 -16 -10z"/>
<path d="M7125 3881 c13 -14 17 -13 32 2 17 17 16 18 -15 15 -28 -2 -30 -4
-17 -17z"/>
<path d="M7063 3827 c-8 -12 0 -16 38 -19 24 -2 34 1 34 11 0 15 -63 22 -72 8z"/>
<path d="M6776 3794 c-4 -9 -4 -19 -1 -22 3 -3 5 0 5 6 0 7 9 12 20 12 11 0
20 5 20 10 0 17 -37 11 -44 -6z"/>
<path d="M7010 3791 c0 -5 5 -13 10 -16 6 -3 10 -2 10 4 0 5 -4 13 -10 16 -5
3 -10 2 -10 -4z"/>
<path d="M6685 3771 c-6 -11 9 -23 19 -14 9 9 7 23 -3 23 -6 0 -12 -4 -16 -9z"/>
<path d="M7447 3386 c13 -23 74 -66 94 -66 10 0 21 -4 24 -10 10 -16 35 -12
35 6 0 9 -6 14 -12 11 -7 -2 -24 4 -37 14 -13 11 -32 19 -42 19 -10 0 -21 4
-24 10 -3 5 -15 15 -27 21 -17 9 -19 8 -11 -5z"/>
<path d="M7679 3270 c24 -11 49 -19 55 -17 16 5 -23 24 -64 31 -34 6 -34 6 9
-14z"/>
<path d="M7000 3155 c0 -9 6 -12 15 -9 8 4 15 7 15 9 0 2 -7 5 -15 9 -9 3 -15
0 -15 -9z"/>
<path d="M7531 3136 c-27 -29 -37 -80 -28 -150 1 -14 -7 -22 -30 -28 -18 -5
-40 -19 -48 -32 -9 -13 -25 -26 -35 -29 -11 -3 -24 -16 -29 -29 -5 -12 -17
-42 -27 -66 -15 -37 -16 -45 -4 -52 16 -10 50 20 50 44 0 8 11 28 25 44 14 17
25 34 25 40 0 5 16 26 36 46 39 39 57 38 89 -7 16 -21 16 -21 30 -3 8 10 16
23 17 28 5 14 198 12 323 -4 6 -1 23 2 38 6 16 4 27 2 27 -4 0 -5 24 -10 55
-10 40 0 55 4 55 14 0 15 30 26 74 26 62 0 7 22 -75 31 -71 7 -89 5 -125 -10
-41 -18 -41 -18 -37 0 6 21 2 22 -89 21 -32 0 -64 5 -75 13 -17 13 -17 14 1
34 11 12 17 23 15 25 -2 2 -31 -5 -64 -15 -80 -25 -112 -25 -120 2 -6 18 -13
20 -41 16 -45 -7 -44 10 2 29 19 8 34 20 31 27 -7 22 -42 18 -66 -7z m141
-138 c-6 -6 -15 -8 -19 -4 -4 4 -1 11 7 16 8 5 17 7 19 4 3 -2 -1 -10 -7 -16z
m53 12 c3 -5 1 -10 -4 -10 -6 0 -11 5 -11 10 0 6 2 10 4 10 3 0 8 -4 11 -10z
m355 -50 c-8 -5 -28 -10 -45 -10 -23 0 -27 3 -15 10 8 5 29 10 45 10 23 0 27
-3 15 -10z"/>
<path d="M7465 3080 c3 -5 8 -10 11 -10 2 0 4 5 4 10 0 6 -5 10 -11 10 -5 0
-7 -4 -4 -10z"/>
<path d="M7235 3070 c-3 -6 1 -7 9 -4 18 7 21 14 7 14 -6 0 -13 -4 -16 -10z"/>
<path d="M7310 3026 c0 -2 7 -6 15 -10 8 -3 15 -1 15 4 0 6 -7 10 -15 10 -8 0
-15 -2 -15 -4z"/>
<path d="M8362 2902 c44 -38 62 -44 85 -27 17 13 15 14 -15 15 -19 0 -45 9
-59 20 -39 31 -48 24 -11 -8z"/>
<path d="M7083 2896 c-23 -11 -31 -26 -14 -26 5 0 17 -3 27 -7 14 -5 16 -3 11
11 -4 10 -3 15 3 11 5 -3 18 -1 27 5 15 9 15 11 2 7 -9 -3 -20 -2 -25 2 -5 4
-19 3 -31 -3z"/>
<path d="M8470 2843 c1 -5 23 -19 50 -32 45 -22 80 -65 80 -99 0 -20 18 -22
54 -7 38 16 96 20 96 7 0 -5 11 -14 25 -20 37 -17 31 -4 -21 45 -32 31 -51 42
-62 38 -10 -4 -24 -8 -32 -9 -8 0 -18 -5 -21 -10 -4 -5 -12 1 -18 13 -7 11
-18 21 -26 21 -8 0 -15 7 -15 15 0 9 -12 18 -30 22 -17 3 -33 10 -36 14 -6 11
-44 12 -44 2z"/>
<path d="M7210 2770 c0 -5 4 -10 9 -10 6 0 13 5 16 10 3 6 -1 10 -9 10 -9 0
-16 -4 -16 -10z"/>
<path d="M8710 2676 c0 -7 7 -16 15 -20 8 -3 15 -12 15 -19 0 -8 15 -28 34
-45 19 -17 42 -45 52 -61 10 -17 24 -31 31 -31 7 0 13 -6 13 -14 0 -7 11 -21
25 -30 20 -13 25 -14 25 -3 0 28 -22 77 -35 77 -7 0 -16 11 -19 24 -6 26 -83
99 -128 122 -24 13 -28 13 -28 0z"/>
<path d="M2885 4270 c-4 -6 -3 -16 3 -22 6 -6 12 -6 17 2 4 6 3 16 -3 22 -6 6
-12 6 -17 -2z"/>
<path d="M2920 4155 c0 -8 7 -15 15 -15 9 0 12 6 9 15 -4 8 -10 15 -15 15 -5
0 -9 -7 -9 -15z"/>
<path d="M2862 4023 c-13 -27 -30 -61 -38 -76 -8 -16 -14 -35 -14 -43 0 -8
-14 -39 -31 -70 -17 -30 -29 -58 -25 -61 16 -16 65 41 106 125 30 63 50 92 62
92 20 0 32 16 23 30 -4 7 -13 7 -26 0 -17 -10 -19 -7 -19 20 0 43 -11 37 -38
-17z"/>
<path d="M2716 3971 c-3 -5 5 -11 19 -13 17 -4 25 -1 25 8 0 15 -36 19 -44 5z"/>
<path d="M2505 3860 c-15 -17 -16 -20 -3 -20 9 0 19 7 22 16 10 25 1 27 -19 4z"/>
<path d="M5850 3966 c0 -2 7 -6 15 -10 8 -3 15 -1 15 4 0 6 -7 10 -15 10 -8 0
-15 -2 -15 -4z"/>
<path d="M5725 3890 c3 -5 16 -10 28 -10 18 0 19 2 7 10 -20 13 -43 13 -35 0z"/>
<path d="M5700 3846 c0 -8 5 -18 10 -21 6 -3 10 3 10 14 0 12 -4 21 -10 21 -5
0 -10 -6 -10 -14z"/>
<path d="M2691 3024 c0 -11 3 -14 6 -6 3 7 2 16 -1 19 -3 4 -6 -2 -5 -13z"/>
<path d="M2845 2990 c3 -5 8 -10 11 -10 2 0 4 5 4 10 0 6 -5 10 -11 10 -5 0
-7 -4 -4 -10z"/>
<path d="M1860 2880 c0 -5 5 -10 10 -10 6 0 10 5 10 10 0 6 -4 10 -10 10 -5 0
-10 -4 -10 -10z"/>
<path d="M2070 2409 c0 -5 5 -7 10 -4 6 4 10 -6 10 -24 0 -16 5 -33 11 -36 16
-11 19 -2 12 38 -4 27 -11 37 -24 37 -11 0 -19 -5 -19 -11z"/>
<path d="M2229 2401 c-27 -22 -23 -33 7 -25 11 3 20 14 21 25 2 24 1 24 -28 0z"/>
<path d="M1935 2331 c-6 -11 9 -23 19 -14 9 9 7 23 -3 23 -6 0 -12 -4 -16 -9z"/>
<path d="M2196 2331 c-4 -5 -2 -19 2 -32 6 -16 11 -19 17 -10 5 9 10 10 14 2
4 -6 14 1 25 19 l17 30 -35 0 c-19 0 -37 -4 -40 -9z"/>
<path d="M2141 2104 c0 -11 3 -14 6 -6 3 7 2 16 -1 19 -3 4 -6 -2 -5 -13z"/>
<path d="M5417 2625 c-5 -10 0 -15 14 -15 12 0 19 5 17 12 -6 18 -25 20 -31 3z"/>
<path d="M5430 2590 c0 -13 20 -13 40 0 12 8 9 10 -12 10 -16 0 -28 -4 -28
-10z"/>
<path d="M5415 2540 c3 -5 8 -10 11 -10 2 0 4 5 4 10 0 6 -5 10 -11 10 -5 0
-7 -4 -4 -10z"/>
<path d="M5570 2510 c6 -11 15 -20 20 -20 14 0 1 28 -16 34 -12 4 -12 2 -4
-14z"/>
<path d="M5870 2519 c0 -5 5 -7 10 -4 6 3 10 8 10 11 0 2 -4 4 -10 4 -5 0 -10
-5 -10 -11z"/>
<path d="M5716 2474 c-3 -9 -13 -14 -20 -11 -8 3 -17 0 -19 -8 -7 -17 28 -26
42 -12 8 8 11 7 11 -5 0 -13 19 -28 34 -28 11 0 -4 41 -21 59 -18 19 -21 20
-27 5z"/>
<path d="M5270 2470 c0 -5 5 -10 10 -10 6 0 10 5 10 10 0 6 -4 10 -10 10 -5 0
-10 -4 -10 -10z"/>
<path d="M5490 2460 c-9 -17 -9 -25 -1 -33 8 -8 14 -9 19 -1 4 6 15 13 25 17
18 7 24 27 8 27 -5 0 -16 3 -24 6 -10 3 -20 -3 -27 -16z"/>
<path d="M5235 2460 c-3 -5 -2 -10 4 -10 5 0 13 5 16 10 3 6 2 10 -4 10 -5 0
-13 -4 -16 -10z"/>
<path d="M5815 2460 c-8 -13 4 -32 16 -25 12 8 12 35 0 35 -6 0 -13 -4 -16
-10z"/>
<path d="M5452 2440 c0 -14 2 -19 5 -12 2 6 2 18 0 25 -3 6 -5 1 -5 -13z"/>
<path d="M5246 2425 c4 -8 11 -15 18 -15 6 0 4 -5 -4 -10 -13 -8 -13 -10 1
-10 9 0 19 9 22 19 6 24 0 31 -24 31 -12 0 -16 -5 -13 -15z"/>
<path d="M5645 2420 c3 -5 12 -7 20 -3 21 7 19 13 -6 13 -11 0 -18 -4 -14 -10z"/>
<path d="M5566 2405 c-9 -26 -7 -32 5 -12 6 10 9 21 6 23 -2 3 -7 -2 -11 -11z"/>
<path d="M5220 2396 c0 -9 5 -16 10 -16 6 0 10 4 10 9 0 6 -4 13 -10 16 -5 3
-10 -1 -10 -9z"/>
<path d="M5344 2391 c8 -7 19 -10 25 -7 18 12 12 21 -14 21 -20 0 -22 -2 -11
-14z"/>
<path d="M5515 2400 c-3 -5 1 -10 9 -10 8 0 18 5 21 10 3 6 -1 10 -9 10 -8 0
-18 -4 -21 -10z"/>
<path d="M5793 2395 c-10 -11 -10 -16 -1 -21 7 -4 14 -2 16 4 2 7 10 12 18 12
9 0 12 5 9 10 -9 14 -28 12 -42 -5z"/>
<path d="M5475 2390 c-3 -5 -1 -10 4 -10 6 0 11 -9 11 -21 0 -11 4 -17 10 -14
6 4 18 1 26 -6 22 -18 28 -3 7 18 -38 37 -51 44 -58 33z"/>
<path d="M5650 2390 c-12 -8 -11 -10 8 -10 12 0 22 5 22 10 0 13 -11 13 -30 0z"/>
<path d="M5720 2365 c7 -9 15 -13 17 -11 7 7 -7 26 -19 26 -6 0 -6 -6 2 -15z"/>
<path d="M5210 2362 c0 -5 7 -16 16 -23 14 -12 16 -11 13 5 -4 20 -29 35 -29
18z"/>
<path d="M5283 2363 c-19 -7 -17 -63 2 -63 11 0 12 5 5 25 -8 22 -7 27 13 35
12 5 15 9 7 9 -8 -1 -21 -3 -27 -6z"/>
<path d="M5580 2336 c0 -13 8 -30 17 -37 13 -11 15 -11 9 -1 -5 8 -1 19 10 28
18 14 18 14 0 7 -15 -5 -18 -3 -13 10 4 11 1 17 -8 17 -9 0 -15 -10 -15 -24z"/>
<path d="M5355 2340 c-3 -5 -1 -10 4 -10 6 0 11 5 11 10 0 6 -2 10 -4 10 -3 0
-8 -4 -11 -10z"/>
<path d="M5425 2320 c-3 -5 1 -10 9 -10 9 0 16 5 16 10 0 6 -4 10 -9 10 -6 0
-13 -4 -16 -10z"/>
<path d="M5371 2302 c-11 -11 -9 -14 9 -19 17 -4 19 -8 8 -15 -10 -7 -10 -11
0 -15 24 -9 12 -25 -14 -19 -19 5 -25 3 -21 -6 2 -7 11 -12 20 -10 8 1 18 -2
22 -8 14 -23 25 -7 23 33 -4 51 -27 81 -47 59z"/>
<path d="M5320 2270 c0 -5 5 -10 11 -10 5 0 7 5 4 10 -3 6 -8 10 -11 10 -2 0
-4 -4 -4 -10z"/>
<path d="M5450 2240 c0 -5 5 -10 11 -10 5 0 7 5 4 10 -3 6 -8 10 -11 10 -2 0
-4 -4 -4 -10z"/>
<path d="M5490 2235 c0 -8 5 -15 10 -15 6 0 10 7 10 15 0 8 -4 15 -10 15 -5 0
-10 -7 -10 -15z"/>
<path d="M5020 2210 c0 -5 7 -10 15 -10 8 0 15 -4 15 -9 0 -14 53 -6 58 9 3 9
-4 11 -27 8 -18 -3 -34 -1 -37 4 -7 11 -24 10 -24 -2z"/>
<path d="M4680 2185 c0 -8 7 -15 15 -15 8 0 15 4 15 9 0 5 -7 11 -15 15 -9 3
-15 0 -15 -9z"/>
<path d="M4748 2183 c7 -3 16 -2 19 1 4 3 -2 6 -13 5 -11 0 -14 -3 -6 -6z"/>
<path d="M5340 2180 c0 -5 7 -10 16 -10 8 0 12 5 9 10 -3 6 -10 10 -16 10 -5
0 -9 -4 -9 -10z"/>
<path d="M4940 2150 c9 -16 13 -18 24 -8 12 11 11 14 -3 20 -27 11 -32 9 -21
-12z"/>
<path d="M4620 2150 c0 -5 7 -10 16 -10 8 0 12 5 9 10 -3 6 -10 10 -16 10 -5
0 -9 -4 -9 -10z"/>
<path d="M5082 2133 c-1 -15 4 -23 14 -23 8 0 13 4 9 9 -3 5 5 17 17 25 22 15
21 15 -8 13 -23 -1 -30 -7 -32 -24z"/>
<path d="M5028 2113 c7 -3 16 -2 19 1 4 3 -2 6 -13 5 -11 0 -14 -3 -6 -6z"/>
<path d="M4930 1951 c0 -6 5 -13 10 -16 6 -3 10 1 10 9 0 9 -4 16 -10 16 -5 0
-10 -4 -10 -9z"/>
<path d="M4820 1900 c0 -5 5 -10 10 -10 6 0 10 5 10 10 0 6 -4 10 -10 10 -5 0
-10 -4 -10 -10z"/>
<path d="M4850 1880 c0 -5 5 -10 11 -10 5 0 7 5 4 10 -3 6 -8 10 -11 10 -2 0
-4 -4 -4 -10z"/>
<path d="M4636 1865 c4 -8 12 -15 20 -15 20 0 17 7 -6 20 -16 9 -18 8 -14 -5z"/>
<path d="M4575 1850 c-3 -5 -1 -10 4 -10 6 0 11 5 11 10 0 6 -2 10 -4 10 -3 0
-8 -4 -11 -10z"/>
<path d="M4817 1849 c7 -7 15 -10 18 -7 3 3 -2 9 -12 12 -14 6 -15 5 -6 -5z"/>
<path d="M4660 1800 c0 -5 5 -10 10 -10 6 0 10 5 10 10 0 6 -4 10 -10 10 -5 0
-10 -4 -10 -10z"/>
<path d="M4620 1780 c6 -11 15 -18 20 -15 13 8 0 35 -16 35 -12 0 -12 -4 -4
-20z"/>
<path d="M2550 2256 c0 -9 7 -16 16 -16 17 0 14 22 -4 28 -7 2 -12 -3 -12 -12z"/>
<path d="M7905 2180 c-3 -5 -1 -10 4 -10 6 0 11 5 11 10 0 6 -2 10 -4 10 -3 0
-8 -4 -11 -10z"/>
<path d="M7640 2110 c0 -5 5 -10 10 -10 6 0 10 5 10 10 0 6 -4 10 -10 10 -5 0
-10 -4 -10 -10z"/>
<path d="M7910 2110 c0 -5 7 -10 15 -10 8 0 15 5 15 10 0 6 -7 10 -15 10 -8 0
-15 -4 -15 -10z"/>
<path d="M7600 2070 c0 -5 5 -10 10 -10 6 0 10 5 10 10 0 6 -4 10 -10 10 -5 0
-10 -4 -10 -10z"/>
<path d="M7577 2004 c-8 -8 1 -24 14 -24 5 0 9 7 9 15 0 15 -12 20 -23 9z"/>
<path d="M1966 1601 c-4 -5 -2 -12 3 -15 5 -4 12 -2 15 3 4 5 2 12 -3 15 -5 4
-12 2 -15 -3z"/>
<path d="M2270 1401 c0 -5 5 -13 10 -16 6 -3 10 -2 10 4 0 5 -4 13 -10 16 -5
3 -10 2 -10 -4z"/>
<path d="M1120 1360 c0 -8 -9 -26 -20 -40 -24 -30 -25 -40 -5 -40 8 0 15 7 15
15 0 8 4 15 9 15 13 0 22 43 11 54 -7 7 -10 5 -10 -4z"/>
<path d="M7713 1338 c2 -36 12 -48 40 -48 28 0 20 36 -13 60 l-29 21 2 -33z"/>
<path d="M7793 1314 c-18 -18 -16 -24 9 -45 28 -25 55 -24 68 1 9 16 8 20 -5
20 -8 0 -15 -8 -16 -17 0 -11 -3 -13 -6 -5 -2 6 -11 12 -20 12 -10 0 -12 6 -8
19 7 24 -6 33 -22 15z"/>
<path d="M8980 885 c7 -9 15 -13 17 -11 7 7 -7 26 -19 26 -6 0 -6 -6 2 -15z"/>
<path d="M9060 841 c0 -6 5 -13 10 -16 6 -3 10 1 10 9 0 9 -4 16 -10 16 -5 0
-10 -4 -10 -9z"/>
<path d="M9118 799 c-10 -5 -18 -18 -17 -27 0 -10 3 -12 6 -4 2 6 11 12 19 12
8 0 14 7 14 15 0 17 0 17 -22 4z"/>
<path d="M9175 709 c-4 -6 -5 -13 -2 -16 7 -7 27 6 27 18 0 12 -17 12 -25 -2z"/>
<path d="M9280 651 c0 -5 5 -13 10 -16 6 -3 10 -2 10 4 0 5 -4 13 -10 16 -5 3
-10 2 -10 -4z"/>
<path d="M8315 339 c-4 -5 -4 -22 -1 -37 5 -22 4 -24 -4 -9 -13 21 -30 22 -30
2 0 -8 -7 -15 -15 -15 -24 0 -17 -18 8 -22 13 -2 21 -9 19 -18 -3 -10 3 -9 18
5 12 11 25 18 28 15 4 -3 7 10 8 28 1 17 -2 32 -7 32 -5 0 -6 7 -3 15 7 17
-11 21 -21 4z"/>
<path d="M8020 121 c0 -5 7 -12 16 -15 14 -5 15 -4 4 9 -14 17 -20 19 -20 6z"/>
<path d="M8000 100 c0 -5 5 -10 11 -10 5 0 7 5 4 10 -3 6 -8 10 -11 10 -2 0
-4 -4 -4 -10z"/>
<path d="M5370 9245 c0 -16 6 -25 15 -25 21 0 31 30 14 41 -23 14 -29 11 -29
-16z"/>
<path d="M8000 10 c0 -5 7 -10 16 -10 8 0 12 5 9 10 -3 6 -10 10 -16 10 -5 0
-9 -4 -9 -10z"/>
<path d="M9000 10 c0 -5 14 -10 32 -10 36 0 35 4 -4 14 -17 4 -28 2 -28 -4z"/>
</g>
</svg>
