<?xml version="1.0" standalone="no"?>
<!DOCTYPE svg PUBLIC "-//W3C//DTD SVG 20010904//EN"
 "http://www.w3.org/TR/2001/REC-SVG-20010904/DTD/svg10.dtd">
<svg version="1.0" xmlns="http://www.w3.org/2000/svg"
 width="960.000000pt" height="960.000000pt" viewBox="0 0 960.000000 960.000000"
 preserveAspectRatio="xMidYMid meet">

<g transform="translate(0.000000,960.000000) scale(0.100000,-0.100000)"
fill="#000000" stroke="none">
<path d="M3260 9005 c0 -10 40 -75 47 -75 2 0 -6 17 -18 38 -28 45 -29 47 -29
37z"/>
<path d="M3320 8862 c0 -5 9 -17 21 -28 21 -19 56 -92 51 -106 -1 -5 2 -8 8
-8 12 0 80 -68 80 -80 0 -6 6 -10 13 -10 12 -1 67 -44 67 -54 0 -3 -10 -4 -22
-3 -22 2 -85 62 -102 98 -10 22 -33 19 -27 -2 2 -8 4 -23 4 -35 -1 -17 4 -20
23 -16 17 3 26 -1 31 -14 3 -11 11 -22 17 -26 8 -5 7 -11 0 -18 -9 -9 -14 -9
-18 -1 -11 17 -26 13 -20 -4 4 -10 2 -13 -8 -10 -8 3 -21 -1 -28 -10 -8 -10
-9 -15 -1 -15 6 0 11 -5 11 -11 0 -6 -9 -8 -20 -4 -15 5 -20 2 -20 -12 -1 -17
-1 -17 -11 0 -18 31 -32 20 -26 -20 l6 -38 -19 25 c-17 21 -20 22 -20 6 0 -11
-5 -16 -14 -13 -7 3 -33 -12 -57 -34 -24 -21 -49 -39 -56 -39 -7 0 -13 -3 -13
-8 0 -7 -24 -22 -60 -38 -8 -3 -33 -28 -55 -54 -22 -26 -43 -46 -46 -44 -4 2
-14 -5 -24 -16 -10 -12 -13 -20 -7 -20 7 0 12 -7 12 -16 0 -13 3 -14 15 -4 9
7 26 9 47 5 32 -8 33 -8 9 -17 -14 -5 -34 -10 -45 -13 -12 -2 -23 -4 -25 -4
-2 -1 2 -7 8 -15 9 -10 9 -16 1 -21 -13 -8 -25 1 -25 18 0 7 -10 13 -22 15
-16 2 -26 -5 -37 -27 -18 -35 -20 -45 -6 -36 6 4 7 -1 3 -11 -7 -20 14 -15 92
21 93 42 165 62 165 45 0 -5 -7 -10 -15 -10 -25 0 -66 -31 -76 -57 -5 -13 -17
-23 -28 -23 -11 0 -35 -6 -53 -14 -18 -8 -48 -21 -65 -28 -18 -7 -33 -16 -33
-20 0 -5 -13 -8 -29 -8 -20 0 -35 -8 -46 -22 -13 -20 -17 -21 -25 -8 -5 8 -10
10 -10 4 0 -6 -14 -14 -31 -18 -20 -4 -28 -10 -23 -18 5 -7 2 -9 -9 -5 -9 3
-26 -4 -42 -19 -15 -14 -33 -23 -40 -20 -15 6 -55 -26 -55 -43 0 -7 -4 -9 -10
-6 -16 10 -63 -26 -51 -38 19 -19 12 -29 -16 -23 l-28 6 24 -13 24 -14 -32
-14 c-17 -8 -31 -20 -31 -26 0 -7 -4 -13 -8 -13 -5 0 -16 -18 -25 -39 -10 -22
-29 -56 -43 -76 -26 -38 -29 -75 -6 -83 6 -2 12 3 12 12 0 9 4 16 9 16 5 0 11
9 14 20 3 11 10 20 16 20 14 0 14 -27 1 -35 -5 -3 -10 -17 -10 -31 0 -13 -4
-24 -8 -24 -4 0 -7 -31 -7 -70 1 -38 -2 -70 -6 -70 -14 0 -11 -44 7 -107 26
-90 28 -136 8 -200 -26 -86 -26 -101 -1 -106 l22 -4 -22 -8 c-25 -8 -36 -50
-17 -66 8 -6 14 -22 14 -36 0 -13 9 -43 20 -66 l20 -42 -22 -17 -23 -17 39 -3
c29 -2 40 -8 42 -21 2 -12 -2 -17 -11 -13 -14 5 -25 -14 -25 -41 0 -11 7 -14
26 -9 29 8 29 6 8 -77 -4 -19 -1 -39 11 -61 16 -29 16 -40 7 -79 -7 -25 -12
-82 -12 -126 0 -65 5 -88 26 -131 26 -53 26 -73 -1 -50 -23 19 -18 -1 10 -42
14 -20 25 -40 25 -44 0 -4 8 -16 18 -27 16 -20 16 -20 -1 -14 -13 5 -6 -9 21
-40 21 -27 45 -59 52 -73 13 -24 14 -23 29 40 l16 65 5 -70 c6 -64 22 -114 97
-300 51 -126 94 -192 149 -225 18 -12 36 -30 39 -41 4 -10 10 -17 15 -14 4 3
10 -5 13 -17 9 -32 16 -19 10 16 -3 16 -14 31 -24 33 -17 5 -20 17 -19 58 0 3
-6 18 -15 35 -8 16 -15 31 -15 34 0 6 23 2 38 -7 8 -6 12 -2 12 11 0 25 28 51
33 31 2 -8 15 -50 29 -94 31 -99 50 -197 42 -219 -3 -9 -2 -16 3 -16 6 0 15
-53 22 -117 23 -227 52 -433 60 -433 4 0 8 -16 9 -37 2 -20 6 -41 10 -47 4 -6
12 -27 18 -46 6 -19 16 -34 22 -33 7 2 12 -2 12 -7 0 -6 5 -10 10 -10 6 0 10
7 10 15 0 21 22 19 42 -4 21 -25 26 -84 9 -105 -11 -14 -11 -16 4 -16 12 0 15
-5 11 -16 -17 -44 -18 -64 -2 -70 11 -4 14 -13 9 -32 -3 -14 -2 -23 3 -19 5 3
10 -23 11 -56 3 -121 41 -329 72 -403 l30 -71 0 -207 c1 -298 23 -456 67 -465
32 -5 51 -29 74 -94 13 -34 28 -70 35 -79 28 -41 99 -118 109 -118 6 0 5 5 -2
12 -18 18 -15 27 7 21 10 -2 25 3 34 11 8 9 29 16 46 16 34 0 41 19 16 44 -8
8 -15 24 -15 35 0 18 8 20 87 23 56 2 96 -1 111 -9 13 -7 53 -13 88 -13 84 0
138 -31 153 -89 7 -23 14 -27 68 -34 54 -8 62 -11 68 -34 7 -31 -12 -83 -31
-83 -10 0 -14 -13 -14 -40 0 -32 4 -40 18 -40 10 0 23 -5 30 -12 9 -9 12 -9
12 0 0 7 14 12 31 12 24 0 30 4 25 15 -3 8 -1 15 4 15 6 0 10 -4 10 -10 0 -21
18 -9 36 25 10 19 22 35 26 35 5 0 8 5 8 11 0 6 10 25 23 42 12 18 27 41 33
52 22 41 108 191 129 225 12 19 41 69 64 110 23 41 46 82 52 90 5 8 13 25 19
37 5 12 19 32 30 43 11 11 18 25 15 30 -4 6 -2 10 3 10 14 0 67 52 75 73 4 10
12 15 18 11 8 -4 9 0 4 15 -4 14 -2 21 7 21 18 0 67 56 74 86 3 13 10 24 15
24 5 0 9 6 9 13 0 8 9 22 20 32 11 10 20 26 20 35 0 9 9 25 19 34 11 10 25 41
32 69 14 58 29 98 65 171 13 28 24 56 24 63 0 7 4 13 10 13 5 0 19 17 30 38
23 39 76 120 109 163 11 14 23 37 26 51 4 14 15 35 25 46 11 11 26 35 34 53 8
19 27 53 41 77 14 23 25 49 25 57 0 8 7 18 16 23 9 5 18 26 21 48 5 40 29 77
44 68 5 -3 9 7 9 21 0 15 5 36 12 48 6 12 13 51 15 86 2 36 8 68 14 72 6 3 12
52 15 113 2 59 6 112 9 117 4 5 2 9 -3 9 -6 0 -13 11 -16 24 -3 13 -9 31 -12
40 -4 10 -1 16 8 16 11 0 13 13 11 58 -1 31 -5 68 -8 80 -4 16 -2 21 6 17 8
-5 9 -1 4 14 -4 15 -3 21 7 19 7 -2 14 7 16 20 2 13 9 25 17 28 7 3 11 13 8
23 -3 11 5 24 22 35 l26 17 -7 -28 c-4 -15 -11 -34 -17 -40 -6 -9 -6 -17 2
-26 7 -9 9 -49 5 -118 l-5 -104 26 60 c14 33 30 86 37 118 7 31 15 57 20 57 4
0 5 6 2 14 -3 7 1 16 8 19 8 3 20 24 27 48 7 24 19 60 27 79 8 19 16 72 18
118 4 91 16 114 73 138 24 10 30 18 26 34 -3 12 0 20 6 20 7 0 9 5 5 12 -5 8
5 9 34 5 49 -6 62 5 27 23 -44 23 -30 41 15 19 21 -10 44 -19 50 -19 24 0 38
27 34 68 -2 25 1 44 8 48 7 5 43 9 80 10 59 2 69 0 78 -17 10 -17 39 -21 70
-9 3 1 8 2 13 1 4 0 7 4 7 9 0 6 -9 10 -19 10 -10 0 -21 7 -24 14 -7 19 27 31
50 18 29 -17 45 11 39 65 -7 55 9 85 46 87 13 1 22 7 21 14 -2 6 6 16 17 22
18 10 20 8 20 -19 0 -39 10 -62 23 -54 7 4 8 -19 5 -73 -6 -95 -1 -117 18 -83
l14 24 -6 -26 c-8 -37 13 -46 28 -14 11 24 13 25 19 8 7 -17 8 -17 9 2 1 18 2
17 11 -4 13 -32 26 -17 33 37 3 23 7 46 11 51 3 5 1 12 -5 16 -6 4 -7 13 -1
23 4 9 6 23 4 30 -3 6 0 12 6 12 6 0 11 -7 11 -15 0 -8 4 -15 8 -15 5 0 7 14
4 30 -2 17 0 30 6 30 12 0 19 -31 27 -125 3 -38 14 -162 26 -275 11 -113 26
-279 34 -370 13 -150 29 -305 55 -525 5 -44 12 -125 15 -180 9 -149 14 -214
19 -270 13 -128 15 -175 7 -175 -5 0 -12 8 -14 18 -3 9 -4 2 -4 -16 2 -32 -1
-35 -48 -53 -27 -11 -55 -27 -61 -35 -13 -16 -40 -19 -49 -4 -3 6 -30 10 -60
10 -40 0 -54 4 -59 17 -8 21 -30 194 -51 398 -9 88 -27 266 -41 395 -13 129
-29 298 -34 375 -6 77 -14 169 -19 205 -4 36 -9 96 -10 134 -1 39 -4 72 -6 76
-2 3 -6 57 -10 120 -4 63 -9 117 -11 119 -18 19 -15 -32 20 -409 9 -85 18
-189 21 -230 3 -41 15 -172 26 -290 10 -118 22 -242 25 -275 3 -33 9 -98 14
-145 5 -47 12 -132 15 -190 3 -58 10 -136 14 -175 11 -94 5 -303 -9 -320 -9
-11 -5 -17 19 -30 19 -9 31 -23 31 -35 0 -11 5 -20 10 -20 6 0 10 9 10 19 0
24 24 32 87 31 26 0 57 0 68 1 48 4 165 -4 165 -11 0 -4 -7 -13 -15 -20 -19
-16 -19 -30 -1 -30 15 0 26 -25 35 -80 5 -30 13 -39 55 -60 37 -17 64 -23 100
-22 28 2 87 4 131 5 60 1 82 6 87 17 11 25 9 3008 -2 3015 -5 3 -10 11 -10 16
0 6 5 7 10 4 7 -4 9 174 8 537 l-3 543 -85 -3 c-47 -2 -90 -8 -96 -13 -5 -4
-26 -6 -45 -3 -26 4 -40 1 -52 -11 -10 -10 -17 -12 -17 -5 0 9 -16 10 -57 5
-32 -4 -101 -7 -153 -6 -103 1 -134 -5 -124 -21 9 -14 -15 -28 -46 -28 -20 0
-22 2 -10 10 12 8 11 10 -7 10 -55 0 -65 -22 -38 -88 12 -27 18 -33 25 -23 4
8 6 19 4 25 -2 6 4 21 14 33 15 20 20 21 42 10 28 -14 26 -3 50 -272 7 -77 17
-146 23 -153 5 -7 7 -16 3 -19 -12 -12 -79 -8 -84 5 -2 7 -11 12 -20 12 -8 0
-12 3 -9 7 4 3 2 12 -3 18 -8 9 -6 14 4 18 9 4 18 2 21 -4 4 -5 11 -6 17 -3 5
4 6 9 1 13 -18 13 -43 61 -43 83 0 18 -2 20 -9 8 -6 -8 -8 -17 -6 -21 3 -3 -7
-4 -22 -1 -30 6 -29 -15 3 -32 21 -12 35 -28 29 -34 -2 -2 -20 9 -40 24 -21
15 -47 30 -58 31 -31 5 -56 32 -69 75 -6 22 -19 45 -28 51 -9 7 -20 25 -24 41
-5 21 -10 26 -15 17 -6 -8 -10 -2 -15 19 -3 18 -3 37 1 44 4 6 0 6 -9 -2 -14
-11 -18 -8 -32 18 -8 17 -13 36 -10 43 6 16 -62 91 -75 82 -7 -3 -11 2 -11 14
0 11 -16 32 -35 47 -20 15 -34 33 -31 40 3 7 1 16 -4 19 -6 4 -10 -2 -10 -11
0 -29 -48 23 -56 60 -3 17 -11 36 -16 43 -5 7 -7 21 -3 33 5 15 2 20 -12 20
-17 1 -17 1 0 11 14 8 23 7 38 -7 26 -23 24 -12 -6 42 -13 24 -20 44 -14 44 6
0 -6 15 -25 34 -20 18 -36 39 -36 45 0 6 -23 44 -52 84 -50 70 -79 106 -64 80
11 -21 -1 -15 -28 12 -25 25 -46 32 -46 16 0 -5 9 -11 20 -14 11 -3 20 -12 20
-21 0 -9 4 -16 10 -16 5 0 16 -13 25 -30 13 -26 13 -30 1 -30 -8 0 -16 4 -18
9 -1 5 -15 13 -31 16 -22 6 -26 4 -21 -9 6 -16 -11 -23 -20 -7 -3 4 -22 6 -42
4 -29 -3 -35 -1 -31 11 4 9 -1 17 -14 21 -30 10 -22 25 10 19 16 -4 32 -1 35
5 5 8 -12 11 -61 9 -65 -3 -68 -2 -81 25 -7 15 -14 36 -15 46 -1 11 -4 18 -7
16 -8 -5 -40 31 -40 44 0 5 -7 15 -16 22 -15 12 -16 11 -10 -9 11 -35 -11 -26
-29 12 -20 42 -97 124 -144 153 -53 32 -123 64 -129 58 -3 -3 -11 0 -19 6 -19
16 -86 16 -116 0 -18 -9 -23 -19 -19 -34 3 -12 1 -18 -5 -14 -6 4 -13 1 -16
-7 -5 -12 -12 -11 -42 4 -20 10 -43 16 -51 13 -8 -3 -20 -1 -27 5 -6 6 -29 13
-49 17 l-38 7 -1 -43 c-1 -34 -3 -38 -8 -20 -3 13 -14 29 -24 35 -20 13 -34
-2 -44 -46 -8 -38 -23 -35 -23 3 0 26 -2 29 -14 20 -19 -16 -29 0 -20 33 5 21
0 27 -27 41 -31 16 -33 16 -46 -1 -12 -16 -10 -20 12 -31 31 -17 31 -25 3 -38
-13 -6 -22 -18 -22 -28 2 -24 -23 -22 -31 3 -3 11 -11 19 -17 17 -7 -1 -18 11
-26 26 -11 23 -16 26 -28 16 -8 -6 -14 -8 -14 -3 -1 21 -20 -23 -20 -45 0 -13
-2 -22 -5 -20 -4 4 -7 16 -14 59 -1 3 -6 -2 -11 -10 -8 -13 -13 -10 -33 13
-13 17 -31 28 -42 26 -22 -2 -46 5 -87 27 -14 8 -38 14 -52 14 -16 0 -26 6
-26 14 0 19 -15 28 -52 32 -16 2 -41 10 -55 18 -24 12 -29 12 -40 -3 -9 -13
-14 -14 -24 -3 -24 23 -31 13 -24 -34 8 -57 -10 -52 -20 6 -7 41 -28 57 -64
45 -11 -3 -22 -1 -26 5 -8 13 -45 13 -45 0 0 -5 7 -10 15 -10 8 0 15 -4 15 -8
0 -20 -14 -20 -38 -2 -14 11 -27 18 -29 16 -8 -8 21 -45 44 -55 13 -6 23 -14
23 -19 0 -4 21 -25 48 -47 26 -22 40 -30 32 -20 -8 11 -22 25 -30 32 -12 10
-12 12 -1 13 20 0 -6 30 -28 31 -12 0 -11 2 4 8 12 5 22 4 24 -3 2 -6 19 -26
37 -45 26 -28 31 -39 22 -54 -5 -10 -8 -20 -6 -21 2 -1 15 -8 30 -16 16 -7 26
-15 23 -18 -7 -7 20 -29 41 -34 10 -2 18 -11 18 -21 -1 -11 6 -17 21 -17 16 0
24 -7 27 -25 3 -14 2 -27 -2 -30 -4 -2 -33 5 -65 16 -42 15 -60 17 -65 9 -5
-8 -12 -6 -25 6 -9 10 -24 19 -34 20 -39 5 -60 17 -65 37 -7 28 1 35 17 15 6
-9 23 -19 37 -22 l25 -7 -22 17 c-23 17 -33 52 -11 38 7 -4 8 -3 4 4 -4 7 -16
12 -26 12 -23 0 -105 77 -105 99 0 9 -8 17 -19 19 -10 2 -16 0 -13 -5 4 -5 0
-10 -8 -10 -8 0 -15 4 -15 9 0 10 -44 11 -54 1 -10 -10 -47 -11 -80 -2 -27 8
-27 7 -13 -9 10 -11 13 -23 8 -31 -6 -9 -11 -10 -15 -2 -9 14 -46 15 -46 1 0
-5 8 -10 18 -10 27 0 102 -39 102 -52 0 -9 3 -9 11 -1 7 7 17 7 35 -1 33 -15
30 -26 -3 -17 -16 4 -34 6 -41 3 -7 -2 -31 8 -54 23 -51 34 -99 49 -109 34 -4
-7 -20 -2 -45 14 -22 14 -54 28 -71 32 -18 4 -33 11 -33 16 0 5 -6 9 -14 9 -7
0 -19 6 -26 14 -6 8 -17 13 -23 10 -19 -7 -77 34 -77 53 0 13 -3 14 -8 6 -6
-10 -14 -9 -35 2 -20 10 -27 11 -28 2 0 -7 -4 -2 -9 10 -9 22 -50 51 -50 35z
m80 -62 c0 -5 -2 -10 -4 -10 -3 0 -8 5 -11 10 -3 6 -1 10 4 10 6 0 11 -4 11
-10z m970 -80 c0 -5 -2 -10 -4 -10 -3 0 -8 5 -11 10 -3 6 -1 10 4 10 6 0 11
-4 11 -10z m-431 -44 c8 -9 8 -16 2 -20 -6 -4 -15 3 -21 14 -12 23 2 27 19 6z
m-369 -74 c0 -3 -13 7 -30 23 -16 16 -30 33 -30 38 0 5 14 -5 30 -23 17 -18
30 -35 30 -38z m705 30 c-6 -7 -35 18 -35 31 0 5 9 2 20 -8 11 -10 18 -20 15
-23z m202 32 c-3 -3 -12 -4 -19 -1 -8 3 -5 6 6 6 11 1 17 -2 13 -5z m-66 -21
c13 -16 12 -17 -3 -4 -10 7 -18 15 -18 17 0 8 8 3 21 -13z m968 4 c9 17 11 17
45 0 20 -9 47 -17 59 -17 12 0 46 -16 74 -35 29 -19 56 -35 61 -35 15 0 73
-102 67 -118 -3 -9 0 -19 6 -23 9 -5 8 -12 -4 -24 -10 -9 -18 -12 -18 -6 -1 6
-2 17 -3 24 -1 6 -7 11 -14 10 -7 -2 -12 3 -12 11 0 8 -18 36 -40 61 -33 39
-40 43 -40 25 0 -34 29 -87 51 -93 10 -3 19 -11 19 -17 0 -7 -7 -10 -16 -6
-12 5 -15 2 -9 -11 17 -47 27 -114 21 -148 l-7 -38 -34 33 c-25 24 -38 31 -52
25 -10 -5 -24 -7 -30 -6 -16 2 -17 -15 -2 -25 7 -4 7 -10 1 -16 -12 -12 -114
41 -105 55 3 5 -5 18 -18 29 l-24 20 35 -6 c27 -5 32 -4 22 6 -7 7 -12 18 -12
25 0 16 -44 60 -69 68 -25 8 -35 34 -16 41 8 4 15 15 15 25 0 10 5 19 10 19 6
0 10 -12 10 -28 0 -32 52 -84 75 -75 8 3 15 0 15 -6 0 -6 3 -10 8 -9 8 1 39
-9 65 -23 23 -12 35 -3 19 13 -7 7 -12 21 -12 31 0 13 -5 17 -15 13 -19 -7
-19 4 -1 29 13 18 14 17 21 -13 3 -18 11 -32 16 -32 5 0 9 -6 9 -14 0 -8 6
-16 13 -19 9 -3 9 -8 -2 -21 -12 -14 -11 -19 6 -39 12 -12 24 -32 28 -44 3
-13 10 -23 14 -23 11 0 -6 97 -24 137 -8 18 -22 48 -30 67 -9 18 -29 46 -45
61 -29 28 -30 28 -52 9 -18 -16 -20 -16 -15 -2 4 11 -6 24 -34 43 -21 15 -39
34 -39 41 0 8 -8 14 -18 14 -10 0 -27 7 -38 15 -16 13 -17 16 -4 24 10 7 22 6
37 -4 20 -13 23 -13 32 2z m-898 -24 c-12 -20 -14 -14 -5 12 4 9 9 14 11 11 3
-2 0 -13 -6 -23z m-735 -3 c0 -11 -3 -20 -7 -20 -4 0 -9 9 -12 20 -3 12 0 20
7 20 6 0 12 -9 12 -20z m311 5 c8 -9 13 -18 11 -21 -9 -9 -38 8 -38 22 0 18 8
18 27 -1z m-33 -29 c8 -14 26 -27 38 -29 23 -4 23 -4 1 -6 -19 -1 -73 40 -73
54 0 14 20 2 34 -19z m1141 14 c3 -5 -1 -10 -9 -10 -9 0 -16 5 -16 10 0 6 4
10 9 10 6 0 13 -4 16 -10z m-790 -25 c18 -13 35 -22 38 -18 3 3 13 -1 21 -10
8 -8 12 -17 9 -21 -14 -13 -42 -4 -74 24 -19 16 -38 30 -42 30 -9 0 1 20 10
20 3 0 21 -11 38 -25z m833 -22 c0 -28 -18 -26 -29 4 -6 17 -4 21 10 20 12 -1
19 -9 19 -24z m-1646 -2 c2 7 18 2 43 -16 22 -14 54 -33 71 -41 18 -8 49 -31
70 -50 50 -45 82 -67 103 -70 36 -4 171 -58 171 -67 0 -7 -4 -7 -11 0 -7 7
-20 8 -34 3 -28 -11 -67 -2 -58 13 3 6 1 7 -6 3 -6 -4 -27 2 -46 14 -19 12
-35 18 -35 14 0 -4 -8 0 -19 10 -10 9 -24 14 -32 11 -22 -7 -247 154 -249 179
0 5 6 3 14 -3 11 -9 15 -9 18 0z m1058 -11 c0 -5 -4 -10 -10 -10 -5 0 -10 5
-10 10 0 6 5 10 10 10 6 0 10 -4 10 -10z m500 0 c8 -5 12 -11 10 -14 -3 -2
-14 2 -24 10 -22 15 -10 19 14 4z m-472 -35 c-3 -3 -9 2 -12 12 -6 14 -5 15 5
6 7 -7 10 -15 7 -18z m337 15 c3 -5 1 -10 -4 -10 -6 0 -11 5 -11 10 0 6 2 10
4 10 3 0 8 -4 11 -10z m-1250 -10 c3 -5 2 -10 -4 -10 -5 0 -13 5 -16 10 -3 6
-2 10 4 10 5 0 13 -4 16 -10z m1590 -10 c0 -7 -6 -15 -12 -17 -8 -3 -13 4 -13
17 0 13 5 20 13 18 6 -3 12 -11 12 -18z m-815 -22 c0 -12 -10 -9 -26 6 -20 21
-17 28 6 14 11 -7 20 -16 20 -20z m-996 -8 c7 -7 1 -10 -16 -10 -34 0 -58 9
-58 22 0 12 60 2 74 -12z m308 1 c7 -10 27 -21 44 -25 17 -4 41 -16 52 -26 12
-11 30 -20 41 -20 11 0 23 -4 26 -10 9 -15 77 -11 99 5 19 14 19 15 -5 15 -21
0 -28 7 -36 35 -6 19 -9 35 -7 35 5 0 34 -25 68 -58 14 -13 30 -20 40 -16 11
4 16 1 16 -10 0 -9 -8 -16 -20 -16 -19 0 -59 -18 -70 -31 -11 -13 -59 -16 -64
-4 -2 7 -42 31 -88 54 -78 38 -128 71 -128 85 0 13 20 5 32 -13z m658 -31 c0
-5 -9 -10 -20 -10 -11 0 -20 5 -20 10 0 6 9 10 20 10 11 0 20 -4 20 -10z m230
-5 c35 -7 69 -20 76 -29 6 -9 17 -16 25 -16 9 -1 8 -4 -4 -11 -14 -8 -23 -7
-38 7 -10 9 -19 14 -19 9 0 -4 -6 -2 -14 4 -8 7 -20 11 -28 10 -14 -3 -99 11
-111 18 -13 8 4 23 26 23 12 -1 51 -7 87 -15z m-360 -5 c13 -8 12 -10 -2 -10
-10 0 -21 0 -25 -1 -4 0 -9 4 -11 10 -5 14 18 14 38 1z m840 0 c0 -5 -2 -10
-4 -10 -3 0 -8 5 -11 10 -3 6 -1 10 4 10 6 0 11 -4 11 -10z m-910 -10 c0 -12
-28 -25 -36 -17 -9 9 6 27 22 27 8 0 14 -5 14 -10z m958 -8 c2 -7 -2 -10 -12
-6 -9 3 -16 11 -16 16 0 13 23 5 28 -10z m232 9 c0 -6 -4 -13 -10 -16 -5 -3
-10 1 -10 9 0 9 5 16 10 16 6 0 10 -4 10 -9z m-2030 -46 c0 -2 -14 -2 -30 0
-28 3 -30 1 -24 -18 4 -12 12 -25 18 -29 6 -4 7 -8 2 -8 -4 0 -1 -11 8 -25 9
-14 13 -25 8 -25 -5 0 -21 25 -37 55 -15 30 -31 55 -36 55 -5 0 -6 6 -3 14 5
12 12 12 50 -1 24 -8 44 -16 44 -18z m792 22 c55 -15 78 -33 31 -23 -81 15
-93 19 -93 27 0 11 4 11 62 -4z m1571 -111 c15 -49 13 -81 -4 -70 -5 3 -9 18
-9 34 0 16 -4 31 -9 34 -5 3 -12 23 -16 43 -4 21 -11 43 -17 50 -5 7 -7 17 -3
23 8 14 36 -41 58 -114z m-2157 69 c27 -25 44 -45 37 -45 -9 0 -56 36 -112 86
-2 2 3 4 11 4 9 0 38 -20 64 -45z m1419 35 c13 -6 15 -9 5 -9 -8 0 -22 4 -30
9 -18 12 -2 12 25 0z m71 -36 c62 -25 169 -110 199 -156 l27 -43 -53 53 c-65
65 -108 93 -66 43 35 -43 37 -78 2 -38 -15 17 -30 25 -38 21 -6 -4 -9 -4 -5 0
8 10 -82 97 -93 90 -5 -2 -17 1 -27 7 -15 10 -17 15 -8 25 14 17 16 17 62 -2z
m-1011 -4 c3 -5 -1 -10 -9 -10 -9 0 -16 5 -16 10 0 6 4 10 9 10 6 0 13 -4 16
-10z m1594 -27 c17 -19 19 -24 7 -20 -13 5 -15 2 -10 -18 4 -15 2 -25 -5 -25
-6 0 -14 12 -17 26 -4 16 -11 23 -21 20 -8 -3 -12 -2 -10 2 2 4 7 15 10 25 9
24 19 21 46 -10z m-1639 -17 c44 -14 44 -15 12 -15 -18 -1 -40 6 -48 14 -19
18 -20 18 36 1z m503 7 c3 -5 -13 -9 -34 -9 -21 -1 -36 2 -33 7 6 11 61 12 67
2z m227 -3 c0 -5 -2 -10 -4 -10 -3 0 -8 5 -11 10 -3 6 -1 10 4 10 6 0 11 -4
11 -10z m-71 -21 c3 -9 -5 -10 -29 -6 -18 4 -41 7 -51 7 -11 0 -19 4 -19 9 0
14 94 5 99 -10z m-1004 0 c12 -19 -5 -23 -22 -6 -16 16 -16 17 -1 17 9 0 20
-5 23 -11z m270 1 c3 -6 -1 -7 -9 -4 -18 7 -21 14 -7 14 6 0 13 -4 16 -10z
m1747 -22 c-7 -7 -12 -8 -12 -2 0 14 12 26 19 19 2 -3 -1 -11 -7 -17z m123 -5
c5 -10 9 -24 11 -32 1 -7 7 -18 13 -24 6 -6 11 -19 11 -29 0 -13 8 -18 33 -19
l32 -1 -27 -11 c-31 -12 -35 -22 -13 -31 8 -3 15 -14 15 -25 0 -13 9 -21 30
-26 17 -4 30 -11 30 -17 0 -6 -11 -8 -26 -4 -21 6 -25 4 -21 -11 18 -63 18
-68 -1 -35 -10 18 -21 30 -25 26 -4 -4 -10 7 -13 24 -4 19 -13 32 -21 32 -9 0
-13 6 -9 15 10 27 -5 47 -30 41 -14 -4 -24 -2 -24 4 0 10 14 14 38 11 16 -2
16 29 -1 54 -7 11 -18 32 -25 48 -9 22 -9 27 2 27 8 0 17 -8 21 -17z m-1195
-13 c0 -6 -16 -8 -42 -4 -59 9 -60 14 -5 14 26 0 47 -5 47 -10z m84 1 c4 -5 0
-11 -6 -14 -19 -6 -49 4 -42 14 7 12 41 12 48 0z m-223 -24 c-13 -13 -26 -3
-16 12 3 6 11 8 17 5 6 -4 6 -10 -1 -17z m-1031 -37 c35 -8 34 -8 -12 -9 -35
-1 -48 3 -48 13 0 8 -3 23 -7 33 -5 13 -1 12 13 -5 11 -13 35 -27 54 -32z
m2297 0 c9 1 25 -111 17 -119 -3 -3 -12 2 -19 12 -13 18 -13 18 -18 0 -3 -13
-5 -11 -6 7 l-2 25 -15 -28 c-9 -16 -18 -27 -21 -24 -2 3 1 15 7 27 7 12 10
31 7 41 -3 10 -1 19 4 19 5 0 9 10 8 23 0 20 -1 20 -8 3 -12 -30 -24 -2 -15
36 l6 32 24 -27 c13 -15 27 -27 31 -27z m248 30 c3 -5 1 -10 -4 -10 -6 0 -11
5 -11 10 0 6 2 10 4 10 3 0 8 -4 11 -10z m-2086 -29 c7 -13 26 -21 59 -26 26
-3 54 -11 62 -17 13 -8 12 -9 -1 -5 -9 3 -38 9 -65 13 -31 4 -58 16 -73 30
-18 19 -20 24 -8 24 9 0 21 -9 26 -19z m-78 -1 c5 0 9 -4 9 -8 0 -10 -37 -12
-70 -5 l-25 6 25 7 c14 5 31 6 38 4 8 -2 18 -4 23 -4z m59 -21 c0 -4 -7 -6
-15 -3 -8 4 -15 10 -15 15 0 4 7 6 15 3 8 -4 15 -10 15 -15z m-727 -26 c-7 -2
-21 -2 -30 0 -10 3 -4 5 12 5 17 0 24 -2 18 -5z m955 1 c33 -9 27 -24 -9 -20
-36 4 -65 26 -33 26 10 0 29 -3 42 -6z m-143 -40 c38 -15 77 -33 85 -42 12
-12 13 -13 0 -7 -8 5 -53 23 -100 41 -47 18 -78 33 -70 34 8 0 46 -12 85 -26z
m2096 16 c10 -6 19 -18 19 -28 -1 -16 -2 -16 -14 1 -7 9 -21 17 -30 17 -10 0
-14 5 -11 10 8 13 12 12 36 0z m-11 -50 c0 -5 -2 -10 -4 -10 -3 0 -8 5 -11 10
-3 6 -1 10 4 10 6 0 11 -4 11 -10z m-2515 -10 c7 -12 -2 -12 -30 0 -19 8 -19
9 2 9 12 1 25 -3 28 -9z m425 0 c0 -5 -4 -10 -10 -10 -5 0 -10 5 -10 10 0 6 5
10 10 10 6 0 10 -4 10 -10z m1784 -38 c-4 -20 -12 -45 -19 -55 -11 -15 -13
-11 -19 30 -5 38 -3 50 10 60 25 19 35 6 28 -35z m83 11 c-3 -10 -5 -4 -5 12
0 17 2 24 5 18 2 -7 2 -21 0 -30z m-2164 -15 c15 -11 27 -21 27 -23 0 -8 -76
27 -90 42 -13 14 -12 14 10 8 14 -4 37 -16 53 -27z m2337 22 c0 -5 -2 -10 -4
-10 -3 0 -8 5 -11 10 -3 6 -1 10 4 10 6 0 11 -4 11 -10z m83 -33 c18 -21 24
-52 7 -42 -5 3 -10 13 -10 21 0 8 -3 14 -7 14 -5 0 -19 10 -33 21 l-25 20 25
-7 c14 -4 33 -16 43 -27z m-73 3 c0 -5 -2 -10 -4 -10 -3 0 -8 5 -11 10 -3 6
-1 10 4 10 6 0 11 -4 11 -10z m45 -20 c3 -5 2 -10 -4 -10 -5 0 -13 5 -16 10
-3 6 -2 10 4 10 5 0 13 -4 16 -10z m-3419 -166 c-11 -7 -22 -11 -25 -8 -3 3 3
12 13 20 11 7 22 11 25 8 3 -3 -3 -12 -13 -20z m901 -70 c-6 -6 -83 32 -91 44
-3 5 18 -2 45 -15 28 -14 49 -27 46 -29z m-818 -22 c-13 -21 -99 -63 -112 -55
-12 7 47 61 75 66 47 9 49 8 37 -11z m-123 -28 c-3 -9 -6 -18 -6 -20 0 -2 -7
-4 -15 -4 -18 0 -19 12 -3 28 17 17 31 15 24 -4z m4289 -4 c-3 -5 -10 -10 -16
-10 -5 0 -9 5 -9 10 0 6 7 10 16 10 8 0 12 -4 9 -10z m203 3 c-10 -2 -28 -2
-40 0 -13 2 -5 4 17 4 22 1 32 -1 23 -4z m-4526 -48 c0 -5 -5 -11 -11 -13 -6
-2 -11 4 -11 13 0 9 5 15 11 13 6 -2 11 -8 11 -13z m838 5 c0 -5 -2 -10 -4
-10 -3 0 -8 5 -11 10 -3 6 -1 10 4 10 6 0 11 -4 11 -10z m3027 -26 c-9 -9 -27
6 -27 22 0 13 2 13 16 -1 9 -9 14 -18 11 -21z m-3917 -3 c0 -13 -26 -32 -33
-24 -8 7 11 33 24 33 5 0 9 -4 9 -9z m4540 5 c0 -3 -4 -8 -10 -11 -5 -3 -10
-1 -10 4 0 6 5 11 10 11 6 0 10 -2 10 -4z m-3935 -23 c16 -37 14 -42 -11 -31
-13 6 -24 19 -24 30 0 23 25 24 35 1z m-455 -3 c0 -5 -4 -10 -10 -10 -5 0 -10
5 -10 10 0 6 5 10 10 10 6 0 10 -4 10 -10z m4378 -22 c16 -32 32 -98 32 -130
0 -16 4 -28 10 -28 5 0 7 -6 4 -14 -3 -8 1 -27 9 -43 8 -15 18 -49 21 -76 5
-33 11 -45 19 -40 7 4 7 0 -1 -10 -11 -13 -12 -30 -3 -84 6 -37 12 -88 13
-112 1 -27 11 -58 25 -78 22 -33 22 -34 3 -28 -24 7 -25 -1 -10 -89 5 -32 12
-95 16 -140 3 -45 9 -85 12 -90 3 -5 0 -6 -5 -3 -6 4 -13 -4 -16 -18 -3 -17 1
-29 12 -35 11 -6 17 -25 18 -67 1 -32 5 -123 7 -203 7 -201 15 -316 27 -379 5
-30 9 -80 8 -110 l-1 -56 -13 40 c-8 22 -14 56 -14 75 -1 40 -16 69 -28 56 -4
-5 -2 -11 5 -13 16 -6 15 -48 -2 -62 -16 -14 -20 -10 -39 46 -8 23 -11 47 -6
54 4 7 4 20 0 28 -8 16 -34 232 -29 248 4 14 -12 105 -28 162 -12 41 -13 56
-3 61 6 4 9 12 6 17 -8 13 -25 156 -32 268 -3 50 -10 137 -15 194 -5 58 -8
107 -5 109 3 3 -2 16 -11 30 -13 19 -13 26 -3 32 10 7 10 19 1 62 -10 46 -18
124 -37 391 -4 54 -3 57 19 57 13 0 27 -9 34 -22z m-4485 -18 c-10 -11 -25
-20 -35 -20 -17 0 -17 1 0 19 9 11 25 20 34 20 17 1 17 0 1 -19z m-3 -115 c-8
-10 -8 -15 0 -20 8 -5 5 -13 -9 -26 -26 -24 -31 -24 -31 1 0 11 4 20 10 20 5
0 7 7 3 16 -3 9 0 20 8 24 18 12 32 1 19 -15z m-53 -97 c-3 -12 -2 -30 4 -40
8 -14 4 -26 -16 -52 -14 -18 -25 -38 -25 -44 0 -7 -4 -12 -9 -12 -21 0 -22 22
-4 59 18 36 18 38 1 33 -27 -7 -22 17 10 49 33 34 46 37 39 7z m-96 -35 c-9
-16 -10 -14 -11 12 0 21 3 26 11 18 8 -8 8 -16 0 -30z m-26 -91 c-7 -35 -8
-36 -18 -14 -7 16 -7 30 3 50 16 34 25 14 15 -36z m4805 -44 c0 -7 7 -53 14
-103 7 -49 11 -96 9 -102 -11 -29 -21 2 -28 84 -3 49 -9 98 -12 111 -3 12 0
22 6 22 6 0 11 -6 11 -12z m-315 -14 c-16 -12 -20 -27 -20 -79 0 -36 -3 -65
-7 -65 -5 0 -8 11 -8 23 0 13 -9 32 -20 42 -11 10 -20 26 -20 35 0 10 -7 21
-16 24 -9 4 -14 9 -11 12 8 8 66 22 97 23 24 0 25 0 5 -15z m51 -4 c0 -11 -6
-20 -13 -20 -17 0 -17 27 0 33 6 3 12 6 12 6 1 1 1 -8 1 -19z m-226 -14 c0 -9
-30 -14 -35 -6 -4 6 3 10 14 10 12 0 21 -2 21 -4z m-498 -18 c-9 -9 -15 -9
-24 0 -9 9 -7 12 12 12 19 0 21 -3 12 -12z m-317 -8 c4 -6 -7 -10 -24 -10 -17
0 -31 5 -31 10 0 6 11 10 24 10 14 0 28 -4 31 -10z m82 -6 c-3 -3 -12 -4 -19
-1 -8 3 -5 6 6 6 11 1 17 -2 13 -5z m1028 -22 c-3 -3 -11 0 -18 7 -9 10 -8 11
6 5 10 -3 15 -9 12 -12z m-1105 -2 c12 -8 11 -10 -7 -10 -13 0 -23 5 -23 10 0
13 11 13 30 0z m535 0 c-3 -5 -12 -10 -18 -10 -7 0 -6 4 3 10 19 12 23 12 15
0z m-598 -36 c-3 -3 -12 -4 -19 -1 -8 3 -5 6 6 6 11 1 17 -2 13 -5z m-1164
-65 c32 -11 61 -18 64 -15 3 3 12 -1 20 -9 8 -8 27 -15 42 -15 16 0 40 -9 54
-20 14 -11 32 -20 41 -20 9 0 16 -4 16 -9 0 -5 11 -12 25 -15 14 -4 25 -11 25
-16 0 -6 11 -10 24 -10 14 0 28 -4 31 -10 6 -9 41 -26 103 -50 17 -7 32 -18
32 -24 0 -6 18 -22 40 -36 22 -14 40 -33 40 -42 0 -10 16 -26 40 -38 22 -11
40 -26 40 -33 0 -7 9 -18 20 -25 11 -7 20 -21 20 -32 0 -11 12 -24 28 -32 21
-11 27 -20 28 -48 1 -38 -20 -90 -36 -90 -6 0 -10 -7 -10 -15 0 -8 -12 -22
-26 -32 -14 -10 -47 -37 -72 -60 -26 -24 -51 -43 -55 -43 -5 0 -32 -11 -60
-23 -53 -25 -105 -31 -212 -28 -145 5 -198 0 -211 -16 -13 -17 -15 -17 -27 -1
-17 21 -108 42 -149 34 -20 -4 -35 -1 -45 9 -8 8 -24 15 -36 16 -12 0 -34 3
-49 5 -16 2 -38 6 -50 7 -13 2 -34 7 -48 12 -32 11 -71 14 -191 19 -53 2 -102
7 -109 11 -23 14 -222 16 -320 4 -173 -22 -242 -62 -179 -105 16 -10 31 -26
34 -34 5 -16 60 -35 133 -46 30 -5 48 -14 59 -31 11 -16 22 -22 34 -18 13 4
17 2 14 -7 -3 -7 -41 -26 -85 -43 -44 -16 -80 -33 -80 -38 0 -5 -5 -7 -12 -5
-6 2 -23 -7 -38 -21 -15 -15 -41 -37 -58 -50 -61 -49 -40 -94 50 -104 52 -7
89 -34 65 -49 -8 -5 -6 -8 6 -8 12 0 17 -8 17 -31 0 -34 38 -77 99 -110 40
-21 125 -81 156 -109 54 -48 155 -54 249 -14 70 30 179 84 186 93 10 12 50 31
67 31 26 0 92 34 93 48 0 6 4 12 8 12 5 0 33 25 63 55 60 61 85 67 148 39 46
-20 68 -66 81 -164 5 -41 12 -94 16 -116 4 -26 2 -44 -5 -48 -25 -16 -12 -105
30 -194 90 -194 103 -239 76 -272 -7 -8 -21 -16 -32 -17 -11 -1 -56 -11 -100
-22 -118 -31 -242 -44 -296 -32 -37 9 -50 7 -85 -9 -22 -11 -45 -20 -52 -20
-9 0 -76 -41 -90 -55 -2 -2 8 -28 23 -58 22 -46 25 -63 20 -101 -5 -29 -15
-52 -27 -60 -16 -11 -18 -21 -13 -50 8 -38 31 -49 42 -20 5 15 7 15 15 0 5 -9
18 -16 28 -16 40 0 27 -17 -25 -34 -40 -12 -60 -14 -72 -7 -10 6 -14 11 -10
11 4 0 3 9 -3 20 -6 10 -16 17 -24 14 -8 -3 -16 3 -19 16 -5 19 -12 21 -69 19
-34 -2 -72 1 -84 4 -14 5 -26 2 -34 -8 -7 -8 -20 -15 -29 -15 -25 0 -61 -29
-61 -49 0 -12 -22 -32 -61 -55 -33 -20 -65 -36 -70 -36 -5 0 -9 -9 -9 -19 0
-11 -4 -22 -10 -26 -5 -3 -7 -12 -4 -20 11 -28 -61 -95 -102 -95 -10 0 -14
-13 -14 -40 0 -29 -4 -40 -15 -40 -9 0 -15 -9 -15 -25 0 -14 -5 -25 -11 -25
-5 0 -7 5 -4 10 10 16 -14 40 -40 40 -13 0 -32 -11 -43 -24 -13 -18 -22 -22
-30 -14 -11 11 9 71 34 99 12 13 12 18 1 33 -11 15 -17 17 -36 7 -17 -10 -24
-9 -37 4 -8 8 -21 15 -27 15 -7 0 -25 29 -42 65 -25 55 -34 65 -56 65 -28 0
-49 32 -49 75 0 14 -3 25 -8 25 -9 0 -37 -31 -46 -51 -3 -8 -4 11 -1 41 4 40
2 60 -9 75 -9 11 -16 34 -16 50 0 36 -32 62 -49 41 -6 -7 -9 -22 -5 -32 5 -18
5 -18 -6 -1 -6 10 -15 55 -20 100 -5 45 -13 104 -19 130 -9 39 -9 54 4 81 11
24 14 50 10 102 -3 38 -6 80 -5 93 0 13 -4 29 -9 35 -5 6 -9 45 -10 86 0 41
-1 89 -2 105 -6 112 5 261 25 337 24 87 55 158 56 125 0 -29 17 -11 24 26 3
18 15 43 26 55 11 12 20 28 20 36 0 8 6 19 13 23 15 9 38 82 66 215 6 26 17
58 25 70 8 13 17 41 20 62 10 61 17 86 27 86 5 0 9 5 9 12 0 6 7 19 16 29 8 9
17 23 18 31 6 28 19 48 31 48 8 0 17 9 20 20 3 11 12 20 20 20 7 0 20 17 28
38 10 23 16 30 16 18 1 -39 23 1 28 50 2 27 9 53 14 58 5 6 9 20 9 33 0 13 5
23 10 23 6 0 10 6 10 14 0 28 62 48 175 57 94 6 113 5 128 -8 9 -9 17 -11 17
-6 0 27 134 85 222 96 51 7 142 -15 155 -37 11 -19 53 -27 76 -15 11 6 46 38
78 70 85 85 101 90 192 58z m2225 -100 c-8 -5 -7 -20 2 -50 7 -24 14 -67 15
-96 2 -28 6 -57 10 -64 5 -7 3 -10 -6 -7 -8 3 -14 12 -13 20 1 7 -8 15 -18 15
-15 2 -17 -1 -9 -11 6 -7 17 -41 26 -77 9 -35 18 -71 20 -79 11 -39 15 -64 8
-50 -5 8 -20 34 -35 57 -16 24 -28 48 -28 56 0 7 -6 21 -13 32 -7 11 -19 33
-26 50 l-13 30 23 -20 c22 -20 22 -20 14 0 -4 11 -9 71 -12 133 l-3 112 34
-22 c20 -13 30 -25 24 -29z m-1111 25 c-3 -3 -12 -4 -19 -1 -8 3 -5 6 6 6 11
1 17 -2 13 -5z m1510 -65 c21 -23 53 -65 73 -93 19 -28 38 -52 43 -54 4 -2 7
-11 7 -20 0 -11 -14 -2 -40 28 -22 25 -40 48 -40 52 0 5 -9 18 -19 30 -61 70
-71 84 -71 91 0 14 10 7 47 -34z m-311 -116 c-7 -7 -26 7 -26 19 0 6 6 6 15
-2 9 -7 13 -15 11 -17z m-19 -85 c-3 -7 -5 -2 -5 12 0 14 2 19 5 13 2 -7 2
-19 0 -25z m20 -40 c-3 -8 -6 -5 -6 6 -1 11 2 17 5 13 3 -3 4 -12 1 -19z m-98
-146 c33 -101 47 -217 31 -247 -7 -14 -10 -28 -7 -32 4 -3 7 -1 7 5 0 22 18
12 19 -10 0 -13 1 -60 2 -105 1 -46 5 -83 10 -83 5 0 4 -11 -1 -24 -11 -29 -7
-61 10 -99 12 -24 11 -30 -2 -44 -15 -14 -17 -13 -28 7 -6 12 -10 40 -9 63 2
23 -5 63 -15 89 -10 26 -16 57 -13 68 4 16 2 20 -9 16 -10 -4 -14 3 -14 24 0
17 4 30 9 30 14 0 24 39 13 53 -10 13 -22 84 -25 152 -1 29 2 39 12 37 9 -2
11 3 7 15 -4 10 -13 45 -20 78 -8 33 -17 69 -21 80 -7 18 -6 18 8 5 8 -8 25
-43 36 -78z m-65 -74 c3 -16 2 -28 -3 -28 -13 0 -24 37 -16 51 9 13 11 11 19
-23z m124 -33 c0 -16 -2 -15 -8 5 -11 34 -11 60 0 35 5 -11 8 -29 8 -40z
m-301 -167 c-3 -8 -6 -5 -6 6 -1 11 2 17 5 13 3 -3 4 -12 1 -19z m188 -38 c3
-5 1 -10 -4 -10 -6 0 -11 5 -11 10 0 6 2 10 4 10 3 0 8 -4 11 -10z m-325 -170
l0 -51 -30 16 c-34 18 -38 36 -12 64 30 34 42 25 42 -29z m-136 -22 c-3 -5
-11 -8 -18 -8 -17 0 -28 38 -12 43 13 4 37 -24 30 -35z m-69 -58 c8 -13 -5
-13 -25 0 -13 8 -13 10 2 10 9 0 20 -4 23 -10z m-138 -96 c-4 -4 -14 1 -22 12
-22 29 -18 41 7 17 12 -13 19 -26 15 -29z m1053 -3 c0 -26 -16 -35 -24 -15
-10 25 -7 34 9 34 8 0 15 -9 15 -19z m-3320 -31 c12 -8 9 -10 -12 -10 -15 0
-30 5 -33 10 -8 13 25 13 45 0z m3370 -75 c0 -59 -14 -59 -17 0 -1 25 3 45 8
45 5 0 9 -20 9 -45z m-4474 -71 c-3 -9 -6 -22 -6 -30 0 -8 -4 -14 -10 -14 -11
0 -14 43 -3 53 12 13 25 7 19 -9z m4478 -40 c3 -8 2 -12 -4 -9 -6 3 -10 10
-10 16 0 14 7 11 14 -7z m-4448 -37 c8 -5 14 -24 14 -47 0 -27 7 -47 20 -60
22 -22 26 -40 10 -40 -5 0 -10 5 -10 11 0 6 -6 9 -14 6 -9 -4 -18 4 -24 21 -6
15 -13 36 -18 47 -9 24 -12 86 -5 100 3 6 7 1 9 -10 2 -11 10 -24 18 -28z
m2428 -492 c20 -9 42 -15 49 -13 7 1 33 -4 60 -12 45 -14 47 -16 47 -52 0 -31
-4 -38 -20 -38 -11 0 -20 -4 -20 -10 0 -13 -50 -13 -70 0 -10 6 -11 10 -2 10
6 0 12 9 12 20 0 16 -7 20 -38 20 -21 0 -50 6 -65 13 -21 10 -25 17 -20 37 11
47 13 47 67 25z m-2134 -105 c0 -5 -5 -10 -11 -10 -5 0 -7 5 -4 10 3 6 8 10
11 10 2 0 4 -4 4 -10z m1272 -683 c40 -17 43 -54 5 -73 -27 -14 -33 -14 -74 1
-29 11 -56 15 -79 10 -31 -5 -36 -3 -41 15 -4 15 -9 18 -18 10 -10 -8 -15 -8
-20 0 -9 14 13 40 29 34 7 -3 25 2 40 9 30 16 114 13 158 -6z m65 -69 c-3 -8
-6 -5 -6 6 -1 11 2 17 5 13 3 -3 4 -12 1 -19z m-345 -77 c0 -58 -15 -83 -46
-79 -18 3 -20 9 -18 41 2 22 -1 37 -7 37 -22 0 -10 17 26 37 21 12 39 20 41
18 2 -1 3 -26 4 -54z m-739 -41 c3 -11 1 -20 -4 -20 -5 0 -9 9 -9 20 0 11 2
20 4 20 2 0 6 -9 9 -20z m-11 -35 c9 -4 12 -19 10 -50 -3 -35 -1 -45 11 -45
22 0 47 -39 47 -74 0 -28 0 -29 -20 -11 -11 10 -20 28 -20 39 0 16 -3 17 -9 7
-10 -16 -41 67 -41 111 0 30 1 31 22 23z m294 -40 c36 -19 50 -22 55 -13 4 7
12 9 16 4 4 -5 2 -11 -4 -13 -24 -9 -13 -22 33 -42 40 -18 45 -23 39 -43 -4
-13 -16 -30 -28 -39 -15 -13 -17 -17 -6 -21 11 -4 11 -10 3 -24 -16 -27 -30
-27 -58 0 -14 15 -36 26 -48 26 -16 0 -30 10 -41 30 -16 26 -23 30 -60 28 -23
0 -45 -5 -48 -10 -9 -14 -39 3 -39 22 0 10 9 20 20 23 24 6 37 36 20 47 -8 5
-9 10 -2 14 6 3 13 2 17 -4 9 -15 25 -12 25 4 0 8 12 19 28 24 15 6 28 11 29
11 1 1 23 -10 49 -24z m239 -175 c3 -5 17 -10 31 -10 13 0 24 -4 24 -10 0 -5
7 -10 15 -10 8 0 19 -9 25 -20 6 -10 26 -22 45 -26 42 -7 75 -35 75 -60 -1
-26 -49 -61 -60 -44 -11 18 -72 15 -82 -4 -13 -23 -35 -19 -54 10 -10 14 -34
34 -56 45 -21 11 -38 24 -38 29 0 6 -7 10 -15 10 -19 0 -21 70 -3 88 15 15 84
16 93 2z m-225 -28 c0 -10 9 -24 20 -32 29 -21 25 -30 -15 -30 -34 0 -35 1
-35 40 0 29 4 40 15 40 8 0 15 -8 15 -18z m651 -6 l34 -14 -25 -10 c-51 -19
-107 -23 -120 -8 -9 12 -6 18 17 30 35 19 52 20 94 2z m-695 -33 c-11 -11 -19
6 -11 24 8 17 8 17 12 0 3 -10 2 -21 -1 -24z"/>
<path d="M5425 8260 c3 -5 8 -10 11 -10 2 0 4 5 4 10 0 6 -5 10 -11 10 -5 0
-7 -4 -4 -10z"/>
<path d="M5140 8336 c0 -2 7 -7 16 -10 8 -3 12 -2 9 4 -6 10 -25 14 -25 6z"/>
<path d="M5783 8174 c-3 -8 -1 -20 6 -27 8 -8 11 -4 11 16 0 30 -7 35 -17 11z"/>
<path d="M4260 5073 c-25 -10 -50 -44 -50 -68 0 -38 26 -37 46 1 10 19 22 34
26 34 5 0 8 9 8 20 0 21 -4 23 -30 13z"/>
<path d="M6904 6829 c-3 -6 -1 -16 5 -22 8 -8 11 -5 11 11 0 24 -5 28 -16 11z"/>
<path d="M6951 6304 c0 -11 3 -14 6 -6 3 7 2 16 -1 19 -3 4 -6 -2 -5 -13z"/>
<path d="M3877 8774 c-10 -11 3 -24 24 -24 23 0 25 15 3 24 -19 7 -19 7 -27 0z"/>
<path d="M4100 8690 c0 -5 3 -10 8 -10 4 0 20 -11 36 -25 16 -14 33 -25 38
-25 5 0 -5 12 -24 28 -18 15 -34 30 -36 35 -5 11 -22 9 -22 -3z"/>
<path d="M5875 8450 c3 -5 8 -10 11 -10 2 0 4 5 4 10 0 6 -5 10 -11 10 -5 0
-7 -4 -4 -10z"/>
<path d="M5823 8443 c-31 -6 -29 -18 2 -19 15 -1 25 3 25 12 0 8 -1 13 -2 13
-2 -1 -13 -4 -25 -6z"/>
<path d="M5825 8390 c-4 -6 11 -10 39 -10 24 0 53 -3 63 -6 14 -4 15 -4 3 4
-24 15 -98 23 -105 12z"/>
<path d="M5980 8296 c0 -2 7 -9 15 -16 13 -11 14 -10 9 4 -5 14 -24 23 -24 12z"/>
<path d="M6360 8014 c0 -4 20 -29 45 -55 25 -26 45 -42 45 -36 0 7 -20 32 -45
56 -25 24 -45 39 -45 35z"/>
<path d="M6630 7471 c0 -5 5 -13 10 -16 6 -3 10 -2 10 4 0 5 -4 13 -10 16 -5
3 -10 2 -10 -4z"/>
<path d="M6860 7239 c0 -5 5 -7 10 -4 6 3 10 8 10 11 0 2 -4 4 -10 4 -5 0 -10
-5 -10 -11z"/>
<path d="M3082 5060 c0 -14 2 -19 5 -12 2 6 2 18 0 25 -3 6 -5 1 -5 -13z"/>
<path d="M5810 4591 c0 -5 -3 -17 -7 -27 -4 -11 -3 -15 4 -11 14 9 24 47 12
47 -5 0 -9 -4 -9 -9z"/>
<path d="M5745 4479 c-4 -6 -5 -12 -2 -15 2 -3 7 2 10 11 7 17 1 20 -8 4z"/>
<path d="M3274 4353 c0 -25 6 -45 13 -48 7 -2 13 -14 13 -25 0 -12 4 -18 10
-15 11 7 4 45 -9 55 -4 3 -12 21 -17 40 l-11 35 1 -42z"/>
<path d="M5840 4090 c0 -5 5 -10 10 -10 6 0 10 5 10 10 0 6 -4 10 -10 10 -5 0
-10 -4 -10 -10z"/>
<path d="M6645 3893 c-26 -5 -65 -25 -65 -33 0 -4 25 -6 55 -6 34 1 55 5 55
12 0 18 -23 31 -45 27z"/>
<path d="M3816 2651 c-14 -5 -16 -10 -8 -15 7 -4 12 -4 12 1 0 4 5 1 10 -7 8
-12 10 -11 10 8 0 12 -1 22 -2 21 -2 0 -12 -4 -22 -8z"/>
<path d="M3782 2615 c6 -14 13 -23 16 -21 7 7 -9 46 -18 46 -5 0 -4 -11 2 -25z"/>
<path d="M3814 2565 c-7 -17 10 -43 54 -80 25 -21 35 -25 46 -16 11 9 15 9 18
-3 2 -10 8 -13 16 -7 32 20 -34 107 -74 97 -13 -4 -24 -1 -27 7 -3 6 -6 3 -6
-8 -1 -16 -3 -17 -10 -5 -6 8 -7 18 -5 22 3 4 3 8 -1 8 -3 0 -8 -7 -11 -15z
m76 -75 c6 -11 8 -20 6 -20 -3 0 -10 9 -16 20 -6 11 -8 20 -6 20 3 0 10 -9 16
-20z"/>
<path d="M4484 2465 c-11 -27 2 -37 14 -11 7 16 8 26 1 26 -5 0 -12 -7 -15
-15z"/>
<path d="M3930 2430 c20 -13 33 -13 25 0 -3 6 -14 10 -23 10 -15 0 -15 -2 -2
-10z"/>
<path d="M4420 2400 c0 -5 5 -10 10 -10 6 0 10 5 10 10 0 6 -4 10 -10 10 -5 0
-10 -4 -10 -10z"/>
<path d="M3995 2389 c-4 -6 -5 -12 -2 -15 2 -3 7 2 10 11 7 17 1 20 -8 4z"/>
<path d="M7394 800 c3 -14 10 -65 16 -115 30 -259 44 -361 52 -366 5 -3 10
-15 11 -26 0 -13 6 -19 14 -16 10 4 13 50 13 200 0 192 0 194 -24 220 -14 15
-28 44 -31 65 -4 21 -10 40 -14 43 -5 2 -6 -7 -3 -20 2 -15 0 -25 -7 -25 -6 0
-11 8 -11 18 0 9 -5 24 -11 32 -8 12 -9 10 -5 -10z"/>
</g>
</svg>
