<svg width="26" height="26" viewBox="0 0 26 26" fill="none" xmlns="http://www.w3.org/2000/svg">
<path d="M25.6196 12.9873L21.938 24.3766C21.701 24.8163 21.3624 25.1925 20.9223 25.5054C20.4822 25.8182 19.9914 25.9831 19.4497 26C18.9757 25.9831 18.5018 25.8098 18.0278 25.48C17.5539 25.1502 17.2322 24.7824 17.063 24.3766L13.3813 12.9873C12.992 12.0065 12.9116 11.2202 13.1401 10.6283C13.3686 10.0364 13.7876 9.74049 14.397 9.74049H24.604C25.2134 9.74049 25.6323 10.0364 25.8608 10.6283C26.0893 11.2202 26.0089 12.0065 25.6196 12.9873ZM19.3735 26H19.5259H19.3735ZM14.6255 4.87024C14.6255 3.5174 15.1037 2.36748 16.06 1.42049C17.0164 0.473496 18.1675 0 19.5132 0C20.8589 0 22.0057 0.473496 22.9536 1.42049C23.9015 2.36748 24.3755 3.5174 24.3755 4.87024C24.3755 6.22309 23.9015 7.37301 22.9536 8.32C22.0057 9.26699 20.8589 9.74049 19.5132 9.74049C18.1675 9.74049 17.0164 9.26699 16.06 8.32C15.1037 7.37301 14.6255 6.22309 14.6255 4.87024ZM11.604 26H1.37156C0.779114 26 0.368632 25.7041 0.140116 25.1122C-0.0883996 24.5203 -0.0164594 23.734 0.355936 22.7532L4.82469 9.4361C3.87677 9.08098 3.10236 8.48911 2.50144 7.66049C1.90053 6.83187 1.60008 5.90179 1.60008 4.87024C1.60008 3.5174 2.07827 2.36748 3.03465 1.42049C3.99103 0.473496 5.14207 0 6.48777 0C7.83348 0 8.98452 0.473496 9.9409 1.42049C10.8973 2.36748 11.3755 3.5174 11.3755 4.87024C11.3755 5.9187 11.0665 6.86146 10.4487 7.69854C9.83087 8.53561 9.03953 9.12325 8.07469 9.46146L12.6196 22.7532C13.0089 23.734 13.0851 24.5203 12.8481 25.1122C12.6111 25.7041 12.1964 26 11.604 26Z" fill="#FEC6E8"/>
</svg>
