<svg width="24" height="18" viewBox="0 0 24 18" fill="none" xmlns="http://www.w3.org/2000/svg">
<path d="M22.5625 0.0625H1.4375C0.988086 0.0625 0.625 0.425586 0.625 0.875V17.125C0.625 17.5744 0.988086 17.9375 1.4375 17.9375H22.5625C23.0119 17.9375 23.375 17.5744 23.375 17.125V0.875C23.375 0.425586 23.0119 0.0625 22.5625 0.0625ZM20.1631 1.89316L12 8.23828L3.83691 1.89316H20.1631ZM21.5469 2.87578V16.1094H2.45312V2.87578L1.75234 2.32988L2.45059 2.87324L11.124 9.61699C11.3735 9.81077 11.6803 9.91597 11.9962 9.91597C12.3121 9.91597 12.6189 9.81077 12.8684 9.61699L21.5469 2.87578L22.2477 2.32988L21.2498 1.04766H21.2523L22.2502 2.32988L21.5469 2.87578Z" fill="#FEC6E8"/>
</svg>
