<svg width="26" height="26" viewBox="0 0 26 26" fill="none" xmlns="http://www.w3.org/2000/svg">
<path d="M15.6313 17.3191C13.7447 16.7236 14.2818 16.2495 16.0823 15.5731C16.9447 15.2485 16.4203 14.5639 16.4438 14.0163C16.4544 13.7657 17.44 13.8156 17.3685 12.8488C17.3181 12.1679 15.8182 11.1978 15.4095 10.7838C15.1735 10.5449 15.8905 9.89125 15.3856 9.31641C14.6962 8.53072 14.5873 7.16369 14.1701 6.39913C14.1701 6.39913 14.4882 5.91325 14.2444 5.637C12.1417 3.25679 4.29493 3.47535 2.28968 6.97844C0.0386537 10.9109 0.00859129 16.3462 4.689 19.2744C6.77062 20.5764 4.1044 25.1874 4.1044 25.1874H12.359C12.359 24.4001 11.4384 21.5758 13.0496 21.7026C14.4496 21.8127 16.1639 21.7521 16.012 20.171C15.9661 19.6941 15.9121 19.2647 16.2452 18.8694C16.5783 18.4745 17.0605 17.7701 15.6313 17.3191Z" fill="#FEC6E8"/>
<path d="M17.5215 16.5771L25.1878 17.5813V15.5732L17.5215 16.5771Z" fill="#FEC6E8"/>
<path d="M23.7497 23.1889L24.572 21.4498L17.5215 17.644L23.7497 23.1889Z" fill="#FEC6E8"/>
<path d="M24.572 11.6863L23.7497 9.94678L17.5215 15.4925L24.572 11.6863Z" fill="#FEC6E8"/>
</svg>
